<?xml version="1.0" encoding="utf-8" standalone="no"?>
<!DOCTYPE svg PUBLIC "-//W3C//DTD SVG 1.1//EN"
  "http://www.w3.org/Graphics/SVG/1.1/DTD/svg11.dtd">
<svg height="252pt" version="1.1" viewBox="0 0 360 252" width="360pt" xmlns="http://www.w3.org/2000/svg" xmlns:xlink="http://www.w3.org/1999/xlink">
 <metadata>
  <rdf:RDF xmlns:cc="http://creativecommons.org/ns#" xmlns:dc="http://purl.org/dc/elements/1.1/" xmlns:rdf="http://www.w3.org/1999/02/22-rdf-syntax-ns#">
   <cc:Work>
    <dc:type rdf:resource="http://purl.org/dc/dcmitype/StillImage"/>
    <dc:date>2022-01-12T09:29:52.804550</dc:date>
    <dc:format>image/svg+xml</dc:format>
    <dc:creator>
     <cc:Agent>
      <dc:title>Matplotlib v3.4.2, https://matplotlib.org/</dc:title>
     </cc:Agent>
    </dc:creator>
   </cc:Work>
  </rdf:RDF>
 </metadata>
 <defs>
  <style type="text/css">*{stroke-linecap:butt;stroke-linejoin:round;}</style>
 </defs>
 <g id="figure_1">
  <g id="patch_1">
   <path d="M 0 252 
L 360 252 
L 360 0 
L 0 0 
z
" style="fill:#ffffff;"/>
  </g>
  <g id="axes_1">
   <g id="patch_2">
    <path d="M 47.58 199.74 
L 345.906818 199.74 
L 345.906818 14.04 
L 47.58 14.04 
z
" style="fill:#ffffff;"/>
   </g>
   <g id="matplotlib.axis_1">
    <g id="xtick_1">
     <g id="line2d_1">
      <defs>
       <path d="M 0 0 
L 0 4.8 
" id="m661eb691f2" style="stroke:#262626;"/>
      </defs>
      <g>
       <use style="fill:#262626;stroke:#262626;" x="61.14031" xlink:href="#m661eb691f2" y="199.74"/>
      </g>
     </g>
     <g id="text_1">
      <!-- TT -->
      <g style="fill:#262626;" transform="translate(53.313904 217.917969)scale(0.13 -0.13)">
       <defs>
        <path d="M -19 4666 
L 3928 4666 
L 3928 4134 
L 2272 4134 
L 2272 0 
L 1638 0 
L 1638 4134 
L -19 4134 
L -19 4666 
z
" id="DejaVuSans-54" transform="scale(0.015625)"/>
       </defs>
       <use xlink:href="#DejaVuSans-54"/>
       <use x="59.333984" xlink:href="#DejaVuSans-54"/>
      </g>
     </g>
    </g>
    <g id="xtick_2">
     <g id="line2d_2">
      <g>
       <use style="fill:#262626;stroke:#262626;" x="88.26093" xlink:href="#m661eb691f2" y="199.74"/>
      </g>
     </g>
     <g id="text_2">
      <!-- C2 -->
      <g style="fill:#262626;" transform="translate(79.586477 217.917969)scale(0.13 -0.13)">
       <defs>
        <path d="M 4122 4306 
L 4122 3641 
Q 3803 3938 3442 4084 
Q 3081 4231 2675 4231 
Q 1875 4231 1450 3742 
Q 1025 3253 1025 2328 
Q 1025 1406 1450 917 
Q 1875 428 2675 428 
Q 3081 428 3442 575 
Q 3803 722 4122 1019 
L 4122 359 
Q 3791 134 3420 21 
Q 3050 -91 2638 -91 
Q 1578 -91 968 557 
Q 359 1206 359 2328 
Q 359 3453 968 4101 
Q 1578 4750 2638 4750 
Q 3056 4750 3426 4639 
Q 3797 4528 4122 4306 
z
" id="DejaVuSans-43" transform="scale(0.015625)"/>
        <path d="M 1228 531 
L 3431 531 
L 3431 0 
L 469 0 
L 469 531 
Q 828 903 1448 1529 
Q 2069 2156 2228 2338 
Q 2531 2678 2651 2914 
Q 2772 3150 2772 3378 
Q 2772 3750 2511 3984 
Q 2250 4219 1831 4219 
Q 1534 4219 1204 4116 
Q 875 4013 500 3803 
L 500 4441 
Q 881 4594 1212 4672 
Q 1544 4750 1819 4750 
Q 2544 4750 2975 4387 
Q 3406 4025 3406 3419 
Q 3406 3131 3298 2873 
Q 3191 2616 2906 2266 
Q 2828 2175 2409 1742 
Q 1991 1309 1228 531 
z
" id="DejaVuSans-32" transform="scale(0.015625)"/>
       </defs>
       <use xlink:href="#DejaVuSans-43"/>
       <use x="69.824219" xlink:href="#DejaVuSans-32"/>
      </g>
     </g>
    </g>
    <g id="xtick_3">
     <g id="line2d_3">
      <g>
       <use style="fill:#262626;stroke:#262626;" x="115.38155" xlink:href="#m661eb691f2" y="199.74"/>
      </g>
     </g>
     <g id="text_3">
      <!-- C3 -->
      <g style="fill:#262626;" transform="translate(106.707096 217.917969)scale(0.13 -0.13)">
       <defs>
        <path d="M 2597 2516 
Q 3050 2419 3304 2112 
Q 3559 1806 3559 1356 
Q 3559 666 3084 287 
Q 2609 -91 1734 -91 
Q 1441 -91 1130 -33 
Q 819 25 488 141 
L 488 750 
Q 750 597 1062 519 
Q 1375 441 1716 441 
Q 2309 441 2620 675 
Q 2931 909 2931 1356 
Q 2931 1769 2642 2001 
Q 2353 2234 1838 2234 
L 1294 2234 
L 1294 2753 
L 1863 2753 
Q 2328 2753 2575 2939 
Q 2822 3125 2822 3475 
Q 2822 3834 2567 4026 
Q 2313 4219 1838 4219 
Q 1578 4219 1281 4162 
Q 984 4106 628 3988 
L 628 4550 
Q 988 4650 1302 4700 
Q 1616 4750 1894 4750 
Q 2613 4750 3031 4423 
Q 3450 4097 3450 3541 
Q 3450 3153 3228 2886 
Q 3006 2619 2597 2516 
z
" id="DejaVuSans-33" transform="scale(0.015625)"/>
       </defs>
       <use xlink:href="#DejaVuSans-43"/>
       <use x="69.824219" xlink:href="#DejaVuSans-33"/>
      </g>
     </g>
    </g>
    <g id="xtick_4">
     <g id="line2d_4">
      <g>
       <use style="fill:#262626;stroke:#262626;" x="142.502169" xlink:href="#m661eb691f2" y="199.74"/>
      </g>
     </g>
     <g id="text_4">
      <!-- C4 -->
      <g style="fill:#262626;" transform="translate(133.827716 217.917969)scale(0.13 -0.13)">
       <defs>
        <path d="M 2419 4116 
L 825 1625 
L 2419 1625 
L 2419 4116 
z
M 2253 4666 
L 3047 4666 
L 3047 1625 
L 3713 1625 
L 3713 1100 
L 3047 1100 
L 3047 0 
L 2419 0 
L 2419 1100 
L 313 1100 
L 313 1709 
L 2253 4666 
z
" id="DejaVuSans-34" transform="scale(0.015625)"/>
       </defs>
       <use xlink:href="#DejaVuSans-43"/>
       <use x="69.824219" xlink:href="#DejaVuSans-34"/>
      </g>
     </g>
    </g>
    <g id="xtick_5">
     <g id="line2d_5">
      <g>
       <use style="fill:#262626;stroke:#262626;" x="169.622789" xlink:href="#m661eb691f2" y="199.74"/>
      </g>
     </g>
     <g id="text_5">
      <!-- C5 -->
      <g style="fill:#262626;" transform="translate(160.948336 217.917969)scale(0.13 -0.13)">
       <defs>
        <path d="M 691 4666 
L 3169 4666 
L 3169 4134 
L 1269 4134 
L 1269 2991 
Q 1406 3038 1543 3061 
Q 1681 3084 1819 3084 
Q 2600 3084 3056 2656 
Q 3513 2228 3513 1497 
Q 3513 744 3044 326 
Q 2575 -91 1722 -91 
Q 1428 -91 1123 -41 
Q 819 9 494 109 
L 494 744 
Q 775 591 1075 516 
Q 1375 441 1709 441 
Q 2250 441 2565 725 
Q 2881 1009 2881 1497 
Q 2881 1984 2565 2268 
Q 2250 2553 1709 2553 
Q 1456 2553 1204 2497 
Q 953 2441 691 2322 
L 691 4666 
z
" id="DejaVuSans-35" transform="scale(0.015625)"/>
       </defs>
       <use xlink:href="#DejaVuSans-43"/>
       <use x="69.824219" xlink:href="#DejaVuSans-35"/>
      </g>
     </g>
    </g>
    <g id="xtick_6">
     <g id="line2d_6">
      <g>
       <use style="fill:#262626;stroke:#262626;" x="196.743409" xlink:href="#m661eb691f2" y="199.74"/>
      </g>
     </g>
     <g id="text_6">
      <!-- C6 -->
      <g style="fill:#262626;" transform="translate(188.068956 217.917969)scale(0.13 -0.13)">
       <defs>
        <path d="M 2113 2584 
Q 1688 2584 1439 2293 
Q 1191 2003 1191 1497 
Q 1191 994 1439 701 
Q 1688 409 2113 409 
Q 2538 409 2786 701 
Q 3034 994 3034 1497 
Q 3034 2003 2786 2293 
Q 2538 2584 2113 2584 
z
M 3366 4563 
L 3366 3988 
Q 3128 4100 2886 4159 
Q 2644 4219 2406 4219 
Q 1781 4219 1451 3797 
Q 1122 3375 1075 2522 
Q 1259 2794 1537 2939 
Q 1816 3084 2150 3084 
Q 2853 3084 3261 2657 
Q 3669 2231 3669 1497 
Q 3669 778 3244 343 
Q 2819 -91 2113 -91 
Q 1303 -91 875 529 
Q 447 1150 447 2328 
Q 447 3434 972 4092 
Q 1497 4750 2381 4750 
Q 2619 4750 2861 4703 
Q 3103 4656 3366 4563 
z
" id="DejaVuSans-36" transform="scale(0.015625)"/>
       </defs>
       <use xlink:href="#DejaVuSans-43"/>
       <use x="69.824219" xlink:href="#DejaVuSans-36"/>
      </g>
     </g>
    </g>
    <g id="xtick_7">
     <g id="line2d_7">
      <g>
       <use style="fill:#262626;stroke:#262626;" x="223.864029" xlink:href="#m661eb691f2" y="199.74"/>
      </g>
     </g>
     <g id="text_7">
      <!-- C7 -->
      <g style="fill:#262626;" transform="translate(215.189576 217.917969)scale(0.13 -0.13)">
       <defs>
        <path d="M 525 4666 
L 3525 4666 
L 3525 4397 
L 1831 0 
L 1172 0 
L 2766 4134 
L 525 4134 
L 525 4666 
z
" id="DejaVuSans-37" transform="scale(0.015625)"/>
       </defs>
       <use xlink:href="#DejaVuSans-43"/>
       <use x="69.824219" xlink:href="#DejaVuSans-37"/>
      </g>
     </g>
    </g>
    <g id="xtick_8">
     <g id="line2d_8">
      <g>
       <use style="fill:#262626;stroke:#262626;" x="250.984649" xlink:href="#m661eb691f2" y="199.74"/>
      </g>
     </g>
     <g id="text_8">
      <!-- C8 -->
      <g style="fill:#262626;" transform="translate(242.310196 217.917969)scale(0.13 -0.13)">
       <defs>
        <path d="M 2034 2216 
Q 1584 2216 1326 1975 
Q 1069 1734 1069 1313 
Q 1069 891 1326 650 
Q 1584 409 2034 409 
Q 2484 409 2743 651 
Q 3003 894 3003 1313 
Q 3003 1734 2745 1975 
Q 2488 2216 2034 2216 
z
M 1403 2484 
Q 997 2584 770 2862 
Q 544 3141 544 3541 
Q 544 4100 942 4425 
Q 1341 4750 2034 4750 
Q 2731 4750 3128 4425 
Q 3525 4100 3525 3541 
Q 3525 3141 3298 2862 
Q 3072 2584 2669 2484 
Q 3125 2378 3379 2068 
Q 3634 1759 3634 1313 
Q 3634 634 3220 271 
Q 2806 -91 2034 -91 
Q 1263 -91 848 271 
Q 434 634 434 1313 
Q 434 1759 690 2068 
Q 947 2378 1403 2484 
z
M 1172 3481 
Q 1172 3119 1398 2916 
Q 1625 2713 2034 2713 
Q 2441 2713 2670 2916 
Q 2900 3119 2900 3481 
Q 2900 3844 2670 4047 
Q 2441 4250 2034 4250 
Q 1625 4250 1398 4047 
Q 1172 3844 1172 3481 
z
" id="DejaVuSans-38" transform="scale(0.015625)"/>
       </defs>
       <use xlink:href="#DejaVuSans-43"/>
       <use x="69.824219" xlink:href="#DejaVuSans-38"/>
      </g>
     </g>
    </g>
    <g id="xtick_9">
     <g id="line2d_9">
      <g>
       <use style="fill:#262626;stroke:#262626;" x="278.105269" xlink:href="#m661eb691f2" y="199.74"/>
      </g>
     </g>
     <g id="text_9">
      <!-- C9 -->
      <g style="fill:#262626;" transform="translate(269.430815 217.917969)scale(0.13 -0.13)">
       <defs>
        <path d="M 703 97 
L 703 672 
Q 941 559 1184 500 
Q 1428 441 1663 441 
Q 2288 441 2617 861 
Q 2947 1281 2994 2138 
Q 2813 1869 2534 1725 
Q 2256 1581 1919 1581 
Q 1219 1581 811 2004 
Q 403 2428 403 3163 
Q 403 3881 828 4315 
Q 1253 4750 1959 4750 
Q 2769 4750 3195 4129 
Q 3622 3509 3622 2328 
Q 3622 1225 3098 567 
Q 2575 -91 1691 -91 
Q 1453 -91 1209 -44 
Q 966 3 703 97 
z
M 1959 2075 
Q 2384 2075 2632 2365 
Q 2881 2656 2881 3163 
Q 2881 3666 2632 3958 
Q 2384 4250 1959 4250 
Q 1534 4250 1286 3958 
Q 1038 3666 1038 3163 
Q 1038 2656 1286 2365 
Q 1534 2075 1959 2075 
z
" id="DejaVuSans-39" transform="scale(0.015625)"/>
       </defs>
       <use xlink:href="#DejaVuSans-43"/>
       <use x="69.824219" xlink:href="#DejaVuSans-39"/>
      </g>
     </g>
    </g>
    <g id="xtick_10">
     <g id="line2d_10">
      <g>
       <use style="fill:#262626;stroke:#262626;" x="305.225888" xlink:href="#m661eb691f2" y="199.74"/>
      </g>
     </g>
     <g id="text_10">
      <!-- C12 -->
      <g style="fill:#262626;" transform="translate(292.41581 217.917969)scale(0.13 -0.13)">
       <defs>
        <path d="M 794 531 
L 1825 531 
L 1825 4091 
L 703 3866 
L 703 4441 
L 1819 4666 
L 2450 4666 
L 2450 531 
L 3481 531 
L 3481 0 
L 794 0 
L 794 531 
z
" id="DejaVuSans-31" transform="scale(0.015625)"/>
       </defs>
       <use xlink:href="#DejaVuSans-43"/>
       <use x="69.824219" xlink:href="#DejaVuSans-31"/>
       <use x="133.447266" xlink:href="#DejaVuSans-32"/>
      </g>
     </g>
    </g>
    <g id="xtick_11">
     <g id="line2d_11">
      <g>
       <use style="fill:#262626;stroke:#262626;" x="332.346508" xlink:href="#m661eb691f2" y="199.74"/>
      </g>
     </g>
     <g id="text_11">
      <!-- C13 -->
      <g style="fill:#262626;" transform="translate(319.53643 217.917969)scale(0.13 -0.13)">
       <use xlink:href="#DejaVuSans-43"/>
       <use x="69.824219" xlink:href="#DejaVuSans-31"/>
       <use x="133.447266" xlink:href="#DejaVuSans-33"/>
      </g>
     </g>
    </g>
    <g id="text_12">
     <!-- Type -->
     <g style="fill:#262626;" transform="translate(181.815753 234.499531)scale(0.13 -0.13)">
      <defs>
       <path d="M 2059 -325 
Q 1816 -950 1584 -1140 
Q 1353 -1331 966 -1331 
L 506 -1331 
L 506 -850 
L 844 -850 
Q 1081 -850 1212 -737 
Q 1344 -625 1503 -206 
L 1606 56 
L 191 3500 
L 800 3500 
L 1894 763 
L 2988 3500 
L 3597 3500 
L 2059 -325 
z
" id="DejaVuSans-79" transform="scale(0.015625)"/>
       <path d="M 1159 525 
L 1159 -1331 
L 581 -1331 
L 581 3500 
L 1159 3500 
L 1159 2969 
Q 1341 3281 1617 3432 
Q 1894 3584 2278 3584 
Q 2916 3584 3314 3078 
Q 3713 2572 3713 1747 
Q 3713 922 3314 415 
Q 2916 -91 2278 -91 
Q 1894 -91 1617 61 
Q 1341 213 1159 525 
z
M 3116 1747 
Q 3116 2381 2855 2742 
Q 2594 3103 2138 3103 
Q 1681 3103 1420 2742 
Q 1159 2381 1159 1747 
Q 1159 1113 1420 752 
Q 1681 391 2138 391 
Q 2594 391 2855 752 
Q 3116 1113 3116 1747 
z
" id="DejaVuSans-70" transform="scale(0.015625)"/>
       <path d="M 3597 1894 
L 3597 1613 
L 953 1613 
Q 991 1019 1311 708 
Q 1631 397 2203 397 
Q 2534 397 2845 478 
Q 3156 559 3463 722 
L 3463 178 
Q 3153 47 2828 -22 
Q 2503 -91 2169 -91 
Q 1331 -91 842 396 
Q 353 884 353 1716 
Q 353 2575 817 3079 
Q 1281 3584 2069 3584 
Q 2775 3584 3186 3129 
Q 3597 2675 3597 1894 
z
M 3022 2063 
Q 3016 2534 2758 2815 
Q 2500 3097 2075 3097 
Q 1594 3097 1305 2825 
Q 1016 2553 972 2059 
L 3022 2063 
z
" id="DejaVuSans-65" transform="scale(0.015625)"/>
      </defs>
      <use xlink:href="#DejaVuSans-54"/>
      <use x="45.458984" xlink:href="#DejaVuSans-79"/>
      <use x="104.638672" xlink:href="#DejaVuSans-70"/>
      <use x="168.115234" xlink:href="#DejaVuSans-65"/>
     </g>
    </g>
   </g>
   <g id="matplotlib.axis_2">
    <g id="ytick_1">
     <g id="line2d_12">
      <defs>
       <path d="M 0 0 
L -4.8 0 
" id="m6515fe58eb" style="stroke:#262626;"/>
      </defs>
      <g>
       <use style="fill:#262626;stroke:#262626;" x="47.58" xlink:href="#m6515fe58eb" y="162.6"/>
      </g>
     </g>
     <g id="text_13">
      <!-- 1 -->
      <g style="fill:#262626;" transform="translate(31.00875 167.538984)scale(0.13 -0.13)">
       <use xlink:href="#DejaVuSans-31"/>
      </g>
     </g>
    </g>
    <g id="ytick_2">
     <g id="line2d_13">
      <g>
       <use style="fill:#262626;stroke:#262626;" x="47.58" xlink:href="#m6515fe58eb" y="116.175"/>
      </g>
     </g>
     <g id="text_14">
      <!-- 2 -->
      <g style="fill:#262626;" transform="translate(31.00875 121.113984)scale(0.13 -0.13)">
       <use xlink:href="#DejaVuSans-32"/>
      </g>
     </g>
    </g>
    <g id="ytick_3">
     <g id="line2d_14">
      <g>
       <use style="fill:#262626;stroke:#262626;" x="47.58" xlink:href="#m6515fe58eb" y="69.75"/>
      </g>
     </g>
     <g id="text_15">
      <!-- 3 -->
      <g style="fill:#262626;" transform="translate(31.00875 74.688984)scale(0.13 -0.13)">
       <use xlink:href="#DejaVuSans-33"/>
      </g>
     </g>
    </g>
    <g id="ytick_4">
     <g id="line2d_15">
      <g>
       <use style="fill:#262626;stroke:#262626;" x="47.58" xlink:href="#m6515fe58eb" y="23.325"/>
      </g>
     </g>
     <g id="text_16">
      <!-- 4 -->
      <g style="fill:#262626;" transform="translate(31.00875 28.263984)scale(0.13 -0.13)">
       <use xlink:href="#DejaVuSans-34"/>
      </g>
     </g>
    </g>
    <g id="text_17">
     <!-- f1/f2 -->
     <g style="fill:#262626;" transform="translate(24.305156 121.927344)rotate(-90)scale(0.13 -0.13)">
      <defs>
       <path d="M 2375 4863 
L 2375 4384 
L 1825 4384 
Q 1516 4384 1395 4259 
Q 1275 4134 1275 3809 
L 1275 3500 
L 2222 3500 
L 2222 3053 
L 1275 3053 
L 1275 0 
L 697 0 
L 697 3053 
L 147 3053 
L 147 3500 
L 697 3500 
L 697 3744 
Q 697 4328 969 4595 
Q 1241 4863 1831 4863 
L 2375 4863 
z
" id="DejaVuSans-66" transform="scale(0.015625)"/>
       <path d="M 1625 4666 
L 2156 4666 
L 531 -594 
L 0 -594 
L 1625 4666 
z
" id="DejaVuSans-2f" transform="scale(0.015625)"/>
      </defs>
      <use xlink:href="#DejaVuSans-66"/>
      <use x="35.205078" xlink:href="#DejaVuSans-31"/>
      <use x="98.828125" xlink:href="#DejaVuSans-2f"/>
      <use x="132.519531" xlink:href="#DejaVuSans-66"/>
      <use x="167.724609" xlink:href="#DejaVuSans-32"/>
     </g>
    </g>
   </g>
   <g id="patch_3">
    <path clip-path="url(#p42f2bd5e79)" d="M 50.292062 155.038021 
L 71.988558 155.038021 
L 71.988558 140.670854 
L 50.292062 140.670854 
L 50.292062 155.038021 
z
" style="fill:#ea96a3;stroke:#474747;stroke-linejoin:miter;stroke-width:1.2;"/>
   </g>
   <g id="patch_4">
    <path clip-path="url(#p42f2bd5e79)" d="M 77.412682 143.406789 
L 99.109178 143.406789 
L 99.109178 92.017905 
L 77.412682 92.017905 
L 77.412682 143.406789 
z
" style="fill:#dc924e;stroke:#474747;stroke-linejoin:miter;stroke-width:1.2;"/>
   </g>
   <g id="patch_5">
    <path clip-path="url(#p42f2bd5e79)" d="M 104.533302 175.32726 
L 126.229798 175.32726 
L 126.229798 168.460728 
L 104.533302 168.460728 
L 104.533302 175.32726 
z
" style="fill:#b39d48;stroke:#474747;stroke-linejoin:miter;stroke-width:1.2;"/>
   </g>
   <g id="patch_6">
    <path clip-path="url(#p42f2bd5e79)" d="M 131.653921 177.468468 
L 153.350417 177.468468 
L 153.350417 171.618632 
L 131.653921 171.618632 
L 131.653921 177.468468 
z
" style="fill:#8ea546;stroke:#474747;stroke-linejoin:miter;stroke-width:1.2;"/>
   </g>
   <g id="patch_7">
    <path clip-path="url(#p42f2bd5e79)" d="M 158.774541 175.246333 
L 180.471037 175.246333 
L 180.471037 167.773287 
L 158.774541 167.773287 
L 158.774541 175.246333 
z
" style="fill:#48b067;stroke:#474747;stroke-linejoin:miter;stroke-width:1.2;"/>
   </g>
   <g id="patch_8">
    <path clip-path="url(#p42f2bd5e79)" d="M 185.895161 171.426425 
L 207.591657 171.426425 
L 207.591657 164.236891 
L 185.895161 164.236891 
L 185.895161 171.426425 
z
" style="fill:#4aac98;stroke:#474747;stroke-linejoin:miter;stroke-width:1.2;"/>
   </g>
   <g id="patch_9">
    <path clip-path="url(#p42f2bd5e79)" d="M 213.015781 167.824178 
L 234.712277 167.824178 
L 234.712277 160.252526 
L 213.015781 160.252526 
L 213.015781 167.824178 
z
" style="fill:#4dabb0;stroke:#474747;stroke-linejoin:miter;stroke-width:1.2;"/>
   </g>
   <g id="patch_10">
    <path clip-path="url(#p42f2bd5e79)" d="M 240.136401 167.751409 
L 261.832897 167.751409 
L 261.832897 161.977072 
L 240.136401 161.977072 
L 240.136401 167.751409 
z
" style="fill:#54acd3;stroke:#474747;stroke-linejoin:miter;stroke-width:1.2;"/>
   </g>
   <g id="patch_11">
    <path clip-path="url(#p42f2bd5e79)" d="M 267.257021 172.030201 
L 288.953517 172.030201 
L 288.953517 166.858749 
L 267.257021 166.858749 
L 267.257021 172.030201 
z
" style="fill:#a9aceb;stroke:#474747;stroke-linejoin:miter;stroke-width:1.2;"/>
   </g>
   <g id="patch_12">
    <path clip-path="url(#p42f2bd5e79)" d="M 294.37764 168.190283 
L 316.074136 168.190283 
L 316.074136 160.712087 
L 294.37764 160.712087 
L 294.37764 168.190283 
z
" style="fill:#d795e8;stroke:#474747;stroke-linejoin:miter;stroke-width:1.2;"/>
   </g>
   <g id="patch_13">
    <path clip-path="url(#p42f2bd5e79)" d="M 321.49826 166.609892 
L 343.194756 166.609892 
L 343.194756 161.064891 
L 321.49826 161.064891 
L 321.49826 166.609892 
z
" style="fill:#e88fc9;stroke:#474747;stroke-linejoin:miter;stroke-width:1.2;"/>
   </g>
   <g id="line2d_16">
    <path clip-path="url(#p42f2bd5e79)" d="M 61.14031 155.038021 
L 61.14031 169.877642 
" style="fill:none;stroke:#474747;stroke-linecap:round;stroke-width:1.2;"/>
   </g>
   <g id="line2d_17">
    <path clip-path="url(#p42f2bd5e79)" d="M 61.14031 140.670854 
L 61.14031 119.393301 
" style="fill:none;stroke:#474747;stroke-linecap:round;stroke-width:1.2;"/>
   </g>
   <g id="line2d_18">
    <path clip-path="url(#p42f2bd5e79)" d="M 55.716186 169.877642 
L 66.564434 169.877642 
" style="fill:none;stroke:#474747;stroke-linecap:round;stroke-width:1.2;"/>
   </g>
   <g id="line2d_19">
    <path clip-path="url(#p42f2bd5e79)" d="M 55.716186 119.393301 
L 66.564434 119.393301 
" style="fill:none;stroke:#474747;stroke-linecap:round;stroke-width:1.2;"/>
   </g>
   <g id="line2d_20">
    <defs>
     <path d="M -0 3.535534 
L 2.12132 0 
L -0 -3.535534 
L -2.12132 -0 
z
" id="m9d270154b3" style="stroke:#474747;stroke-linejoin:miter;"/>
    </defs>
    <g clip-path="url(#p42f2bd5e79)">
     <use style="fill:#474747;stroke:#474747;stroke-linejoin:miter;" x="61.14031" xlink:href="#m9d270154b3" y="118.74249"/>
     <use style="fill:#474747;stroke:#474747;stroke-linejoin:miter;" x="61.14031" xlink:href="#m9d270154b3" y="114.421954"/>
     <use style="fill:#474747;stroke:#474747;stroke-linejoin:miter;" x="61.14031" xlink:href="#m9d270154b3" y="92.655185"/>
     <use style="fill:#474747;stroke:#474747;stroke-linejoin:miter;" x="61.14031" xlink:href="#m9d270154b3" y="118.432687"/>
    </g>
   </g>
   <g id="line2d_21">
    <path clip-path="url(#p42f2bd5e79)" d="M 88.26093 143.406789 
L 88.26093 181.750447 
" style="fill:none;stroke:#474747;stroke-linecap:round;stroke-width:1.2;"/>
   </g>
   <g id="line2d_22">
    <path clip-path="url(#p42f2bd5e79)" d="M 88.26093 92.017905 
L 88.26093 35.87316 
" style="fill:none;stroke:#474747;stroke-linecap:round;stroke-width:1.2;"/>
   </g>
   <g id="line2d_23">
    <path clip-path="url(#p42f2bd5e79)" d="M 82.836806 181.750447 
L 93.685054 181.750447 
" style="fill:none;stroke:#474747;stroke-linecap:round;stroke-width:1.2;"/>
   </g>
   <g id="line2d_24">
    <path clip-path="url(#p42f2bd5e79)" d="M 82.836806 35.87316 
L 93.685054 35.87316 
" style="fill:none;stroke:#474747;stroke-linecap:round;stroke-width:1.2;"/>
   </g>
   <g id="line2d_25"/>
   <g id="line2d_26">
    <path clip-path="url(#p42f2bd5e79)" d="M 115.38155 175.32726 
L 115.38155 183.35962 
" style="fill:none;stroke:#474747;stroke-linecap:round;stroke-width:1.2;"/>
   </g>
   <g id="line2d_27">
    <path clip-path="url(#p42f2bd5e79)" d="M 115.38155 168.460728 
L 115.38155 158.978168 
" style="fill:none;stroke:#474747;stroke-linecap:round;stroke-width:1.2;"/>
   </g>
   <g id="line2d_28">
    <path clip-path="url(#p42f2bd5e79)" d="M 109.957426 183.35962 
L 120.805674 183.35962 
" style="fill:none;stroke:#474747;stroke-linecap:round;stroke-width:1.2;"/>
   </g>
   <g id="line2d_29">
    <path clip-path="url(#p42f2bd5e79)" d="M 109.957426 158.978168 
L 120.805674 158.978168 
" style="fill:none;stroke:#474747;stroke-linecap:round;stroke-width:1.2;"/>
   </g>
   <g id="line2d_30">
    <g clip-path="url(#p42f2bd5e79)">
     <use style="fill:#474747;stroke:#474747;stroke-linejoin:miter;" x="115.38155" xlink:href="#m9d270154b3" y="187.445649"/>
     <use style="fill:#474747;stroke:#474747;stroke-linejoin:miter;" x="115.38155" xlink:href="#m9d270154b3" y="149.492035"/>
     <use style="fill:#474747;stroke:#474747;stroke-linejoin:miter;" x="115.38155" xlink:href="#m9d270154b3" y="155.839537"/>
     <use style="fill:#474747;stroke:#474747;stroke-linejoin:miter;" x="115.38155" xlink:href="#m9d270154b3" y="158.140489"/>
     <use style="fill:#474747;stroke:#474747;stroke-linejoin:miter;" x="115.38155" xlink:href="#m9d270154b3" y="157.4588"/>
     <use style="fill:#474747;stroke:#474747;stroke-linejoin:miter;" x="115.38155" xlink:href="#m9d270154b3" y="157.424636"/>
    </g>
   </g>
   <g id="line2d_31">
    <path clip-path="url(#p42f2bd5e79)" d="M 142.502169 177.468468 
L 142.502169 183.071922 
" style="fill:none;stroke:#474747;stroke-linecap:round;stroke-width:1.2;"/>
   </g>
   <g id="line2d_32">
    <path clip-path="url(#p42f2bd5e79)" d="M 142.502169 171.618632 
L 142.502169 164.84253 
" style="fill:none;stroke:#474747;stroke-linecap:round;stroke-width:1.2;"/>
   </g>
   <g id="line2d_33">
    <path clip-path="url(#p42f2bd5e79)" d="M 137.078045 183.071922 
L 147.926293 183.071922 
" style="fill:none;stroke:#474747;stroke-linecap:round;stroke-width:1.2;"/>
   </g>
   <g id="line2d_34">
    <path clip-path="url(#p42f2bd5e79)" d="M 137.078045 164.84253 
L 147.926293 164.84253 
" style="fill:none;stroke:#474747;stroke-linecap:round;stroke-width:1.2;"/>
   </g>
   <g id="line2d_35"/>
   <g id="line2d_36">
    <path clip-path="url(#p42f2bd5e79)" d="M 169.622789 175.246333 
L 169.622789 183.478136 
" style="fill:none;stroke:#474747;stroke-linecap:round;stroke-width:1.2;"/>
   </g>
   <g id="line2d_37">
    <path clip-path="url(#p42f2bd5e79)" d="M 169.622789 167.773287 
L 169.622789 157.443907 
" style="fill:none;stroke:#474747;stroke-linecap:round;stroke-width:1.2;"/>
   </g>
   <g id="line2d_38">
    <path clip-path="url(#p42f2bd5e79)" d="M 164.198665 183.478136 
L 175.046913 183.478136 
" style="fill:none;stroke:#474747;stroke-linecap:round;stroke-width:1.2;"/>
   </g>
   <g id="line2d_39">
    <path clip-path="url(#p42f2bd5e79)" d="M 164.198665 157.443907 
L 175.046913 157.443907 
" style="fill:none;stroke:#474747;stroke-linecap:round;stroke-width:1.2;"/>
   </g>
   <g id="line2d_40">
    <g clip-path="url(#p42f2bd5e79)">
     <use style="fill:#474747;stroke:#474747;stroke-linejoin:miter;" x="169.622789" xlink:href="#m9d270154b3" y="187.110418"/>
     <use style="fill:#474747;stroke:#474747;stroke-linejoin:miter;" x="169.622789" xlink:href="#m9d270154b3" y="153.403863"/>
     <use style="fill:#474747;stroke:#474747;stroke-linejoin:miter;" x="169.622789" xlink:href="#m9d270154b3" y="149.765758"/>
     <use style="fill:#474747;stroke:#474747;stroke-linejoin:miter;" x="169.622789" xlink:href="#m9d270154b3" y="152.788202"/>
     <use style="fill:#474747;stroke:#474747;stroke-linejoin:miter;" x="169.622789" xlink:href="#m9d270154b3" y="154.618519"/>
    </g>
   </g>
   <g id="line2d_41">
    <path clip-path="url(#p42f2bd5e79)" d="M 196.743409 171.426425 
L 196.743409 180.379074 
" style="fill:none;stroke:#474747;stroke-linecap:round;stroke-width:1.2;"/>
   </g>
   <g id="line2d_42">
    <path clip-path="url(#p42f2bd5e79)" d="M 196.743409 164.236891 
L 196.743409 154.088661 
" style="fill:none;stroke:#474747;stroke-linecap:round;stroke-width:1.2;"/>
   </g>
   <g id="line2d_43">
    <path clip-path="url(#p42f2bd5e79)" d="M 191.319285 180.379074 
L 202.167533 180.379074 
" style="fill:none;stroke:#474747;stroke-linecap:round;stroke-width:1.2;"/>
   </g>
   <g id="line2d_44">
    <path clip-path="url(#p42f2bd5e79)" d="M 191.319285 154.088661 
L 202.167533 154.088661 
" style="fill:none;stroke:#474747;stroke-linecap:round;stroke-width:1.2;"/>
   </g>
   <g id="line2d_45">
    <g clip-path="url(#p42f2bd5e79)">
     <use style="fill:#474747;stroke:#474747;stroke-linejoin:miter;" x="196.743409" xlink:href="#m9d270154b3" y="182.296945"/>
    </g>
   </g>
   <g id="line2d_46">
    <path clip-path="url(#p42f2bd5e79)" d="M 223.864029 167.824178 
L 223.864029 174.728637 
" style="fill:none;stroke:#474747;stroke-linecap:round;stroke-width:1.2;"/>
   </g>
   <g id="line2d_47">
    <path clip-path="url(#p42f2bd5e79)" d="M 223.864029 160.252526 
L 223.864029 151.757328 
" style="fill:none;stroke:#474747;stroke-linecap:round;stroke-width:1.2;"/>
   </g>
   <g id="line2d_48">
    <path clip-path="url(#p42f2bd5e79)" d="M 218.439905 174.728637 
L 229.288153 174.728637 
" style="fill:none;stroke:#474747;stroke-linecap:round;stroke-width:1.2;"/>
   </g>
   <g id="line2d_49">
    <path clip-path="url(#p42f2bd5e79)" d="M 218.439905 151.757328 
L 229.288153 151.757328 
" style="fill:none;stroke:#474747;stroke-linecap:round;stroke-width:1.2;"/>
   </g>
   <g id="line2d_50"/>
   <g id="line2d_51">
    <path clip-path="url(#p42f2bd5e79)" d="M 250.984649 167.751409 
L 250.984649 174.551107 
" style="fill:none;stroke:#474747;stroke-linecap:round;stroke-width:1.2;"/>
   </g>
   <g id="line2d_52">
    <path clip-path="url(#p42f2bd5e79)" d="M 250.984649 161.977072 
L 250.984649 154.493119 
" style="fill:none;stroke:#474747;stroke-linecap:round;stroke-width:1.2;"/>
   </g>
   <g id="line2d_53">
    <path clip-path="url(#p42f2bd5e79)" d="M 245.560525 174.551107 
L 256.408773 174.551107 
" style="fill:none;stroke:#474747;stroke-linecap:round;stroke-width:1.2;"/>
   </g>
   <g id="line2d_54">
    <path clip-path="url(#p42f2bd5e79)" d="M 245.560525 154.493119 
L 256.408773 154.493119 
" style="fill:none;stroke:#474747;stroke-linecap:round;stroke-width:1.2;"/>
   </g>
   <g id="line2d_55"/>
   <g id="line2d_56">
    <path clip-path="url(#p42f2bd5e79)" d="M 278.105269 172.030201 
L 278.105269 177.803618 
" style="fill:none;stroke:#474747;stroke-linecap:round;stroke-width:1.2;"/>
   </g>
   <g id="line2d_57">
    <path clip-path="url(#p42f2bd5e79)" d="M 278.105269 166.858749 
L 278.105269 159.567106 
" style="fill:none;stroke:#474747;stroke-linecap:round;stroke-width:1.2;"/>
   </g>
   <g id="line2d_58">
    <path clip-path="url(#p42f2bd5e79)" d="M 272.681145 177.803618 
L 283.529393 177.803618 
" style="fill:none;stroke:#474747;stroke-linecap:round;stroke-width:1.2;"/>
   </g>
   <g id="line2d_59">
    <path clip-path="url(#p42f2bd5e79)" d="M 272.681145 159.567106 
L 283.529393 159.567106 
" style="fill:none;stroke:#474747;stroke-linecap:round;stroke-width:1.2;"/>
   </g>
   <g id="line2d_60">
    <g clip-path="url(#p42f2bd5e79)">
     <use style="fill:#474747;stroke:#474747;stroke-linejoin:miter;" x="278.105269" xlink:href="#m9d270154b3" y="180.355975"/>
     <use style="fill:#474747;stroke:#474747;stroke-linejoin:miter;" x="278.105269" xlink:href="#m9d270154b3" y="155.81632"/>
     <use style="fill:#474747;stroke:#474747;stroke-linejoin:miter;" x="278.105269" xlink:href="#m9d270154b3" y="158.164322"/>
     <use style="fill:#474747;stroke:#474747;stroke-linejoin:miter;" x="278.105269" xlink:href="#m9d270154b3" y="156.262032"/>
     <use style="fill:#474747;stroke:#474747;stroke-linejoin:miter;" x="278.105269" xlink:href="#m9d270154b3" y="156.246419"/>
     <use style="fill:#474747;stroke:#474747;stroke-linejoin:miter;" x="278.105269" xlink:href="#m9d270154b3" y="158.249702"/>
     <use style="fill:#474747;stroke:#474747;stroke-linejoin:miter;" x="278.105269" xlink:href="#m9d270154b3" y="158.735226"/>
     <use style="fill:#474747;stroke:#474747;stroke-linejoin:miter;" x="278.105269" xlink:href="#m9d270154b3" y="155.48139"/>
     <use style="fill:#474747;stroke:#474747;stroke-linejoin:miter;" x="278.105269" xlink:href="#m9d270154b3" y="153.423461"/>
     <use style="fill:#474747;stroke:#474747;stroke-linejoin:miter;" x="278.105269" xlink:href="#m9d270154b3" y="159.024761"/>
     <use style="fill:#474747;stroke:#474747;stroke-linejoin:miter;" x="278.105269" xlink:href="#m9d270154b3" y="153.413666"/>
     <use style="fill:#474747;stroke:#474747;stroke-linejoin:miter;" x="278.105269" xlink:href="#m9d270154b3" y="155.481354"/>
    </g>
   </g>
   <g id="line2d_61">
    <path clip-path="url(#p42f2bd5e79)" d="M 305.225888 168.190283 
L 305.225888 172.694341 
" style="fill:none;stroke:#474747;stroke-linecap:round;stroke-width:1.2;"/>
   </g>
   <g id="line2d_62">
    <path clip-path="url(#p42f2bd5e79)" d="M 305.225888 160.712087 
L 305.225888 150.200007 
" style="fill:none;stroke:#474747;stroke-linecap:round;stroke-width:1.2;"/>
   </g>
   <g id="line2d_63">
    <path clip-path="url(#p42f2bd5e79)" d="M 299.801764 172.694341 
L 310.650012 172.694341 
" style="fill:none;stroke:#474747;stroke-linecap:round;stroke-width:1.2;"/>
   </g>
   <g id="line2d_64">
    <path clip-path="url(#p42f2bd5e79)" d="M 299.801764 150.200007 
L 310.650012 150.200007 
" style="fill:none;stroke:#474747;stroke-linecap:round;stroke-width:1.2;"/>
   </g>
   <g id="line2d_65">
    <g clip-path="url(#p42f2bd5e79)">
     <use style="fill:#474747;stroke:#474747;stroke-linejoin:miter;" x="305.225888" xlink:href="#m9d270154b3" y="149.145438"/>
     <use style="fill:#474747;stroke:#474747;stroke-linejoin:miter;" x="305.225888" xlink:href="#m9d270154b3" y="148.865973"/>
     <use style="fill:#474747;stroke:#474747;stroke-linejoin:miter;" x="305.225888" xlink:href="#m9d270154b3" y="147.137338"/>
     <use style="fill:#474747;stroke:#474747;stroke-linejoin:miter;" x="305.225888" xlink:href="#m9d270154b3" y="149.373329"/>
     <use style="fill:#474747;stroke:#474747;stroke-linejoin:miter;" x="305.225888" xlink:href="#m9d270154b3" y="139.867112"/>
    </g>
   </g>
   <g id="line2d_66">
    <path clip-path="url(#p42f2bd5e79)" d="M 332.346508 166.609892 
L 332.346508 174.548408 
" style="fill:none;stroke:#474747;stroke-linecap:round;stroke-width:1.2;"/>
   </g>
   <g id="line2d_67">
    <path clip-path="url(#p42f2bd5e79)" d="M 332.346508 161.064891 
L 332.346508 154.120029 
" style="fill:none;stroke:#474747;stroke-linecap:round;stroke-width:1.2;"/>
   </g>
   <g id="line2d_68">
    <path clip-path="url(#p42f2bd5e79)" d="M 326.922384 174.548408 
L 337.770632 174.548408 
" style="fill:none;stroke:#474747;stroke-linecap:round;stroke-width:1.2;"/>
   </g>
   <g id="line2d_69">
    <path clip-path="url(#p42f2bd5e79)" d="M 326.922384 154.120029 
L 337.770632 154.120029 
" style="fill:none;stroke:#474747;stroke-linecap:round;stroke-width:1.2;"/>
   </g>
   <g id="line2d_70">
    <g clip-path="url(#p42f2bd5e79)">
     <use style="fill:#474747;stroke:#474747;stroke-linejoin:miter;" x="332.346508" xlink:href="#m9d270154b3" y="175.15943"/>
     <use style="fill:#474747;stroke:#474747;stroke-linejoin:miter;" x="332.346508" xlink:href="#m9d270154b3" y="146.597278"/>
     <use style="fill:#474747;stroke:#474747;stroke-linejoin:miter;" x="332.346508" xlink:href="#m9d270154b3" y="143.61553"/>
     <use style="fill:#474747;stroke:#474747;stroke-linejoin:miter;" x="332.346508" xlink:href="#m9d270154b3" y="152.056611"/>
     <use style="fill:#474747;stroke:#474747;stroke-linejoin:miter;" x="332.346508" xlink:href="#m9d270154b3" y="146.169538"/>
     <use style="fill:#474747;stroke:#474747;stroke-linejoin:miter;" x="332.346508" xlink:href="#m9d270154b3" y="151.095067"/>
     <use style="fill:#474747;stroke:#474747;stroke-linejoin:miter;" x="332.346508" xlink:href="#m9d270154b3" y="151.977104"/>
     <use style="fill:#474747;stroke:#474747;stroke-linejoin:miter;" x="332.346508" xlink:href="#m9d270154b3" y="143.295478"/>
     <use style="fill:#474747;stroke:#474747;stroke-linejoin:miter;" x="332.346508" xlink:href="#m9d270154b3" y="148.905389"/>
     <use style="fill:#474747;stroke:#474747;stroke-linejoin:miter;" x="332.346508" xlink:href="#m9d270154b3" y="149.678642"/>
     <use style="fill:#474747;stroke:#474747;stroke-linejoin:miter;" x="332.346508" xlink:href="#m9d270154b3" y="145.174276"/>
     <use style="fill:#474747;stroke:#474747;stroke-linejoin:miter;" x="332.346508" xlink:href="#m9d270154b3" y="150.513545"/>
    </g>
   </g>
   <g id="line2d_71">
    <path clip-path="url(#p42f2bd5e79)" d="M 50.292062 148.896662 
L 71.988558 148.896662 
" style="fill:none;stroke:#474747;stroke-linecap:round;stroke-width:1.2;"/>
   </g>
   <g id="line2d_72">
    <path clip-path="url(#p42f2bd5e79)" d="M 77.412682 119.203705 
L 99.109178 119.203705 
" style="fill:none;stroke:#474747;stroke-linecap:round;stroke-width:1.2;"/>
   </g>
   <g id="line2d_73">
    <path clip-path="url(#p42f2bd5e79)" d="M 104.533302 171.377486 
L 126.229798 171.377486 
" style="fill:none;stroke:#474747;stroke-linecap:round;stroke-width:1.2;"/>
   </g>
   <g id="line2d_74">
    <path clip-path="url(#p42f2bd5e79)" d="M 131.653921 173.666447 
L 153.350417 173.666447 
" style="fill:none;stroke:#474747;stroke-linecap:round;stroke-width:1.2;"/>
   </g>
   <g id="line2d_75">
    <path clip-path="url(#p42f2bd5e79)" d="M 158.774541 171.274457 
L 180.471037 171.274457 
" style="fill:none;stroke:#474747;stroke-linecap:round;stroke-width:1.2;"/>
   </g>
   <g id="line2d_76">
    <path clip-path="url(#p42f2bd5e79)" d="M 185.895161 168.093521 
L 207.591657 168.093521 
" style="fill:none;stroke:#474747;stroke-linecap:round;stroke-width:1.2;"/>
   </g>
   <g id="line2d_77">
    <path clip-path="url(#p42f2bd5e79)" d="M 213.015781 165.044285 
L 234.712277 165.044285 
" style="fill:none;stroke:#474747;stroke-linecap:round;stroke-width:1.2;"/>
   </g>
   <g id="line2d_78">
    <path clip-path="url(#p42f2bd5e79)" d="M 240.136401 165.132678 
L 261.832897 165.132678 
" style="fill:none;stroke:#474747;stroke-linecap:round;stroke-width:1.2;"/>
   </g>
   <g id="line2d_79">
    <path clip-path="url(#p42f2bd5e79)" d="M 267.257021 169.917981 
L 288.953517 169.917981 
" style="fill:none;stroke:#474747;stroke-linecap:round;stroke-width:1.2;"/>
   </g>
   <g id="line2d_80">
    <path clip-path="url(#p42f2bd5e79)" d="M 294.37764 164.810448 
L 316.074136 164.810448 
" style="fill:none;stroke:#474747;stroke-linecap:round;stroke-width:1.2;"/>
   </g>
   <g id="line2d_81">
    <path clip-path="url(#p42f2bd5e79)" d="M 321.49826 163.521085 
L 343.194756 163.521085 
" style="fill:none;stroke:#474747;stroke-linecap:round;stroke-width:1.2;"/>
   </g>
   <g id="patch_14">
    <path d="M 47.58 199.74 
L 47.58 14.04 
" style="fill:none;stroke:#262626;stroke-linecap:square;stroke-linejoin:miter;"/>
   </g>
   <g id="patch_15">
    <path d="M 345.906818 199.74 
L 345.906818 14.04 
" style="fill:none;stroke:#262626;stroke-linecap:square;stroke-linejoin:miter;"/>
   </g>
   <g id="patch_16">
    <path d="M 47.58 199.74 
L 345.906818 199.74 
" style="fill:none;stroke:#262626;stroke-linecap:square;stroke-linejoin:miter;"/>
   </g>
   <g id="patch_17">
    <path d="M 47.58 14.04 
L 345.906818 14.04 
" style="fill:none;stroke:#262626;stroke-linecap:square;stroke-linejoin:miter;"/>
   </g>
  </g>
 </g>
 <defs>
  <clipPath id="p42f2bd5e79">
   <rect height="185.7" width="298.326818" x="47.58" y="14.04"/>
  </clipPath>
 </defs>
</svg>
