<?xml version="1.0" encoding="utf-8" standalone="no"?>
<!DOCTYPE svg PUBLIC "-//W3C//DTD SVG 1.1//EN"
  "http://www.w3.org/Graphics/SVG/1.1/DTD/svg11.dtd">
<svg height="252pt" version="1.1" viewBox="0 0 360 252" width="360pt" xmlns="http://www.w3.org/2000/svg" xmlns:xlink="http://www.w3.org/1999/xlink">
 <metadata>
  <rdf:RDF xmlns:cc="http://creativecommons.org/ns#" xmlns:dc="http://purl.org/dc/elements/1.1/" xmlns:rdf="http://www.w3.org/1999/02/22-rdf-syntax-ns#">
   <cc:Work>
    <dc:type rdf:resource="http://purl.org/dc/dcmitype/StillImage"/>
    <dc:date>2021-12-14T14:30:25.171870</dc:date>
    <dc:format>image/svg+xml</dc:format>
    <dc:creator>
     <cc:Agent>
      <dc:title>Matplotlib v3.4.2, https://matplotlib.org/</dc:title>
     </cc:Agent>
    </dc:creator>
   </cc:Work>
  </rdf:RDF>
 </metadata>
 <defs>
  <style type="text/css">*{stroke-linecap:butt;stroke-linejoin:round;}</style>
 </defs>
 <g id="figure_1">
  <g id="patch_1">
   <path d="M 0 252 
L 360 252 
L 360 0 
L 0 0 
z
" style="fill:#ffffff;"/>
  </g>
  <g id="axes_1">
   <g id="patch_2">
    <path d="M 70.71 199.74 
L 345.906818 199.74 
L 345.906818 14.04 
L 70.71 14.04 
z
" style="fill:#ffffff;"/>
   </g>
   <g id="matplotlib.axis_1">
    <g id="xtick_1">
     <g id="line2d_1">
      <defs>
       <path d="M 0 0 
L 0 4.8 
" id="m3b6bab815a" style="stroke:#262626;"/>
      </defs>
      <g>
       <use style="fill:#262626;stroke:#262626;" x="83.218946" xlink:href="#m3b6bab815a" y="199.74"/>
      </g>
     </g>
     <g id="text_1">
      <!-- TT -->
      <g style="fill:#262626;" transform="translate(75.39254 217.917969)scale(0.13 -0.13)">
       <defs>
        <path d="M -19 4666 
L 3928 4666 
L 3928 4134 
L 2272 4134 
L 2272 0 
L 1638 0 
L 1638 4134 
L -19 4134 
L -19 4666 
z
" id="DejaVuSans-54" transform="scale(0.015625)"/>
       </defs>
       <use xlink:href="#DejaVuSans-54"/>
       <use x="59.333984" xlink:href="#DejaVuSans-54"/>
      </g>
     </g>
    </g>
    <g id="xtick_2">
     <g id="line2d_2">
      <g>
       <use style="fill:#262626;stroke:#262626;" x="108.236839" xlink:href="#m3b6bab815a" y="199.74"/>
      </g>
     </g>
     <g id="text_2">
      <!-- C2 -->
      <g style="fill:#262626;" transform="translate(99.562386 217.917969)scale(0.13 -0.13)">
       <defs>
        <path d="M 4122 4306 
L 4122 3641 
Q 3803 3938 3442 4084 
Q 3081 4231 2675 4231 
Q 1875 4231 1450 3742 
Q 1025 3253 1025 2328 
Q 1025 1406 1450 917 
Q 1875 428 2675 428 
Q 3081 428 3442 575 
Q 3803 722 4122 1019 
L 4122 359 
Q 3791 134 3420 21 
Q 3050 -91 2638 -91 
Q 1578 -91 968 557 
Q 359 1206 359 2328 
Q 359 3453 968 4101 
Q 1578 4750 2638 4750 
Q 3056 4750 3426 4639 
Q 3797 4528 4122 4306 
z
" id="DejaVuSans-43" transform="scale(0.015625)"/>
        <path d="M 1228 531 
L 3431 531 
L 3431 0 
L 469 0 
L 469 531 
Q 828 903 1448 1529 
Q 2069 2156 2228 2338 
Q 2531 2678 2651 2914 
Q 2772 3150 2772 3378 
Q 2772 3750 2511 3984 
Q 2250 4219 1831 4219 
Q 1534 4219 1204 4116 
Q 875 4013 500 3803 
L 500 4441 
Q 881 4594 1212 4672 
Q 1544 4750 1819 4750 
Q 2544 4750 2975 4387 
Q 3406 4025 3406 3419 
Q 3406 3131 3298 2873 
Q 3191 2616 2906 2266 
Q 2828 2175 2409 1742 
Q 1991 1309 1228 531 
z
" id="DejaVuSans-32" transform="scale(0.015625)"/>
       </defs>
       <use xlink:href="#DejaVuSans-43"/>
       <use x="69.824219" xlink:href="#DejaVuSans-32"/>
      </g>
     </g>
    </g>
    <g id="xtick_3">
     <g id="line2d_3">
      <g>
       <use style="fill:#262626;stroke:#262626;" x="133.254731" xlink:href="#m3b6bab815a" y="199.74"/>
      </g>
     </g>
     <g id="text_3">
      <!-- C3 -->
      <g style="fill:#262626;" transform="translate(124.580278 217.917969)scale(0.13 -0.13)">
       <defs>
        <path d="M 2597 2516 
Q 3050 2419 3304 2112 
Q 3559 1806 3559 1356 
Q 3559 666 3084 287 
Q 2609 -91 1734 -91 
Q 1441 -91 1130 -33 
Q 819 25 488 141 
L 488 750 
Q 750 597 1062 519 
Q 1375 441 1716 441 
Q 2309 441 2620 675 
Q 2931 909 2931 1356 
Q 2931 1769 2642 2001 
Q 2353 2234 1838 2234 
L 1294 2234 
L 1294 2753 
L 1863 2753 
Q 2328 2753 2575 2939 
Q 2822 3125 2822 3475 
Q 2822 3834 2567 4026 
Q 2313 4219 1838 4219 
Q 1578 4219 1281 4162 
Q 984 4106 628 3988 
L 628 4550 
Q 988 4650 1302 4700 
Q 1616 4750 1894 4750 
Q 2613 4750 3031 4423 
Q 3450 4097 3450 3541 
Q 3450 3153 3228 2886 
Q 3006 2619 2597 2516 
z
" id="DejaVuSans-33" transform="scale(0.015625)"/>
       </defs>
       <use xlink:href="#DejaVuSans-43"/>
       <use x="69.824219" xlink:href="#DejaVuSans-33"/>
      </g>
     </g>
    </g>
    <g id="xtick_4">
     <g id="line2d_4">
      <g>
       <use style="fill:#262626;stroke:#262626;" x="158.272624" xlink:href="#m3b6bab815a" y="199.74"/>
      </g>
     </g>
     <g id="text_4">
      <!-- C4 -->
      <g style="fill:#262626;" transform="translate(149.598171 217.917969)scale(0.13 -0.13)">
       <defs>
        <path d="M 2419 4116 
L 825 1625 
L 2419 1625 
L 2419 4116 
z
M 2253 4666 
L 3047 4666 
L 3047 1625 
L 3713 1625 
L 3713 1100 
L 3047 1100 
L 3047 0 
L 2419 0 
L 2419 1100 
L 313 1100 
L 313 1709 
L 2253 4666 
z
" id="DejaVuSans-34" transform="scale(0.015625)"/>
       </defs>
       <use xlink:href="#DejaVuSans-43"/>
       <use x="69.824219" xlink:href="#DejaVuSans-34"/>
      </g>
     </g>
    </g>
    <g id="xtick_5">
     <g id="line2d_5">
      <g>
       <use style="fill:#262626;stroke:#262626;" x="183.290517" xlink:href="#m3b6bab815a" y="199.74"/>
      </g>
     </g>
     <g id="text_5">
      <!-- C5 -->
      <g style="fill:#262626;" transform="translate(174.616063 217.917969)scale(0.13 -0.13)">
       <defs>
        <path d="M 691 4666 
L 3169 4666 
L 3169 4134 
L 1269 4134 
L 1269 2991 
Q 1406 3038 1543 3061 
Q 1681 3084 1819 3084 
Q 2600 3084 3056 2656 
Q 3513 2228 3513 1497 
Q 3513 744 3044 326 
Q 2575 -91 1722 -91 
Q 1428 -91 1123 -41 
Q 819 9 494 109 
L 494 744 
Q 775 591 1075 516 
Q 1375 441 1709 441 
Q 2250 441 2565 725 
Q 2881 1009 2881 1497 
Q 2881 1984 2565 2268 
Q 2250 2553 1709 2553 
Q 1456 2553 1204 2497 
Q 953 2441 691 2322 
L 691 4666 
z
" id="DejaVuSans-35" transform="scale(0.015625)"/>
       </defs>
       <use xlink:href="#DejaVuSans-43"/>
       <use x="69.824219" xlink:href="#DejaVuSans-35"/>
      </g>
     </g>
    </g>
    <g id="xtick_6">
     <g id="line2d_6">
      <g>
       <use style="fill:#262626;stroke:#262626;" x="208.308409" xlink:href="#m3b6bab815a" y="199.74"/>
      </g>
     </g>
     <g id="text_6">
      <!-- C6 -->
      <g style="fill:#262626;" transform="translate(199.633956 217.917969)scale(0.13 -0.13)">
       <defs>
        <path d="M 2113 2584 
Q 1688 2584 1439 2293 
Q 1191 2003 1191 1497 
Q 1191 994 1439 701 
Q 1688 409 2113 409 
Q 2538 409 2786 701 
Q 3034 994 3034 1497 
Q 3034 2003 2786 2293 
Q 2538 2584 2113 2584 
z
M 3366 4563 
L 3366 3988 
Q 3128 4100 2886 4159 
Q 2644 4219 2406 4219 
Q 1781 4219 1451 3797 
Q 1122 3375 1075 2522 
Q 1259 2794 1537 2939 
Q 1816 3084 2150 3084 
Q 2853 3084 3261 2657 
Q 3669 2231 3669 1497 
Q 3669 778 3244 343 
Q 2819 -91 2113 -91 
Q 1303 -91 875 529 
Q 447 1150 447 2328 
Q 447 3434 972 4092 
Q 1497 4750 2381 4750 
Q 2619 4750 2861 4703 
Q 3103 4656 3366 4563 
z
" id="DejaVuSans-36" transform="scale(0.015625)"/>
       </defs>
       <use xlink:href="#DejaVuSans-43"/>
       <use x="69.824219" xlink:href="#DejaVuSans-36"/>
      </g>
     </g>
    </g>
    <g id="xtick_7">
     <g id="line2d_7">
      <g>
       <use style="fill:#262626;stroke:#262626;" x="233.326302" xlink:href="#m3b6bab815a" y="199.74"/>
      </g>
     </g>
     <g id="text_7">
      <!-- C7 -->
      <g style="fill:#262626;" transform="translate(224.651849 217.917969)scale(0.13 -0.13)">
       <defs>
        <path d="M 525 4666 
L 3525 4666 
L 3525 4397 
L 1831 0 
L 1172 0 
L 2766 4134 
L 525 4134 
L 525 4666 
z
" id="DejaVuSans-37" transform="scale(0.015625)"/>
       </defs>
       <use xlink:href="#DejaVuSans-43"/>
       <use x="69.824219" xlink:href="#DejaVuSans-37"/>
      </g>
     </g>
    </g>
    <g id="xtick_8">
     <g id="line2d_8">
      <g>
       <use style="fill:#262626;stroke:#262626;" x="258.344194" xlink:href="#m3b6bab815a" y="199.74"/>
      </g>
     </g>
     <g id="text_8">
      <!-- C8 -->
      <g style="fill:#262626;" transform="translate(249.669741 217.917969)scale(0.13 -0.13)">
       <defs>
        <path d="M 2034 2216 
Q 1584 2216 1326 1975 
Q 1069 1734 1069 1313 
Q 1069 891 1326 650 
Q 1584 409 2034 409 
Q 2484 409 2743 651 
Q 3003 894 3003 1313 
Q 3003 1734 2745 1975 
Q 2488 2216 2034 2216 
z
M 1403 2484 
Q 997 2584 770 2862 
Q 544 3141 544 3541 
Q 544 4100 942 4425 
Q 1341 4750 2034 4750 
Q 2731 4750 3128 4425 
Q 3525 4100 3525 3541 
Q 3525 3141 3298 2862 
Q 3072 2584 2669 2484 
Q 3125 2378 3379 2068 
Q 3634 1759 3634 1313 
Q 3634 634 3220 271 
Q 2806 -91 2034 -91 
Q 1263 -91 848 271 
Q 434 634 434 1313 
Q 434 1759 690 2068 
Q 947 2378 1403 2484 
z
M 1172 3481 
Q 1172 3119 1398 2916 
Q 1625 2713 2034 2713 
Q 2441 2713 2670 2916 
Q 2900 3119 2900 3481 
Q 2900 3844 2670 4047 
Q 2441 4250 2034 4250 
Q 1625 4250 1398 4047 
Q 1172 3844 1172 3481 
z
" id="DejaVuSans-38" transform="scale(0.015625)"/>
       </defs>
       <use xlink:href="#DejaVuSans-43"/>
       <use x="69.824219" xlink:href="#DejaVuSans-38"/>
      </g>
     </g>
    </g>
    <g id="xtick_9">
     <g id="line2d_9">
      <g>
       <use style="fill:#262626;stroke:#262626;" x="283.362087" xlink:href="#m3b6bab815a" y="199.74"/>
      </g>
     </g>
     <g id="text_9">
      <!-- C9 -->
      <g style="fill:#262626;" transform="translate(274.687634 217.917969)scale(0.13 -0.13)">
       <defs>
        <path d="M 703 97 
L 703 672 
Q 941 559 1184 500 
Q 1428 441 1663 441 
Q 2288 441 2617 861 
Q 2947 1281 2994 2138 
Q 2813 1869 2534 1725 
Q 2256 1581 1919 1581 
Q 1219 1581 811 2004 
Q 403 2428 403 3163 
Q 403 3881 828 4315 
Q 1253 4750 1959 4750 
Q 2769 4750 3195 4129 
Q 3622 3509 3622 2328 
Q 3622 1225 3098 567 
Q 2575 -91 1691 -91 
Q 1453 -91 1209 -44 
Q 966 3 703 97 
z
M 1959 2075 
Q 2384 2075 2632 2365 
Q 2881 2656 2881 3163 
Q 2881 3666 2632 3958 
Q 2384 4250 1959 4250 
Q 1534 4250 1286 3958 
Q 1038 3666 1038 3163 
Q 1038 2656 1286 2365 
Q 1534 2075 1959 2075 
z
" id="DejaVuSans-39" transform="scale(0.015625)"/>
       </defs>
       <use xlink:href="#DejaVuSans-43"/>
       <use x="69.824219" xlink:href="#DejaVuSans-39"/>
      </g>
     </g>
    </g>
    <g id="xtick_10">
     <g id="line2d_10">
      <g>
       <use style="fill:#262626;stroke:#262626;" x="308.379979" xlink:href="#m3b6bab815a" y="199.74"/>
      </g>
     </g>
     <g id="text_10">
      <!-- C12 -->
      <g style="fill:#262626;" transform="translate(295.569901 217.917969)scale(0.13 -0.13)">
       <defs>
        <path d="M 794 531 
L 1825 531 
L 1825 4091 
L 703 3866 
L 703 4441 
L 1819 4666 
L 2450 4666 
L 2450 531 
L 3481 531 
L 3481 0 
L 794 0 
L 794 531 
z
" id="DejaVuSans-31" transform="scale(0.015625)"/>
       </defs>
       <use xlink:href="#DejaVuSans-43"/>
       <use x="69.824219" xlink:href="#DejaVuSans-31"/>
       <use x="133.447266" xlink:href="#DejaVuSans-32"/>
      </g>
     </g>
    </g>
    <g id="xtick_11">
     <g id="line2d_11">
      <g>
       <use style="fill:#262626;stroke:#262626;" x="333.397872" xlink:href="#m3b6bab815a" y="199.74"/>
      </g>
     </g>
     <g id="text_11">
      <!-- C13 -->
      <g style="fill:#262626;" transform="translate(320.587794 217.917969)scale(0.13 -0.13)">
       <use xlink:href="#DejaVuSans-43"/>
       <use x="69.824219" xlink:href="#DejaVuSans-31"/>
       <use x="133.447266" xlink:href="#DejaVuSans-33"/>
      </g>
     </g>
    </g>
    <g id="text_12">
     <!-- Type -->
     <g style="fill:#262626;" transform="translate(193.380753 234.499531)scale(0.13 -0.13)">
      <defs>
       <path d="M 2059 -325 
Q 1816 -950 1584 -1140 
Q 1353 -1331 966 -1331 
L 506 -1331 
L 506 -850 
L 844 -850 
Q 1081 -850 1212 -737 
Q 1344 -625 1503 -206 
L 1606 56 
L 191 3500 
L 800 3500 
L 1894 763 
L 2988 3500 
L 3597 3500 
L 2059 -325 
z
" id="DejaVuSans-79" transform="scale(0.015625)"/>
       <path d="M 1159 525 
L 1159 -1331 
L 581 -1331 
L 581 3500 
L 1159 3500 
L 1159 2969 
Q 1341 3281 1617 3432 
Q 1894 3584 2278 3584 
Q 2916 3584 3314 3078 
Q 3713 2572 3713 1747 
Q 3713 922 3314 415 
Q 2916 -91 2278 -91 
Q 1894 -91 1617 61 
Q 1341 213 1159 525 
z
M 3116 1747 
Q 3116 2381 2855 2742 
Q 2594 3103 2138 3103 
Q 1681 3103 1420 2742 
Q 1159 2381 1159 1747 
Q 1159 1113 1420 752 
Q 1681 391 2138 391 
Q 2594 391 2855 752 
Q 3116 1113 3116 1747 
z
" id="DejaVuSans-70" transform="scale(0.015625)"/>
       <path d="M 3597 1894 
L 3597 1613 
L 953 1613 
Q 991 1019 1311 708 
Q 1631 397 2203 397 
Q 2534 397 2845 478 
Q 3156 559 3463 722 
L 3463 178 
Q 3153 47 2828 -22 
Q 2503 -91 2169 -91 
Q 1331 -91 842 396 
Q 353 884 353 1716 
Q 353 2575 817 3079 
Q 1281 3584 2069 3584 
Q 2775 3584 3186 3129 
Q 3597 2675 3597 1894 
z
M 3022 2063 
Q 3016 2534 2758 2815 
Q 2500 3097 2075 3097 
Q 1594 3097 1305 2825 
Q 1016 2553 972 2059 
L 3022 2063 
z
" id="DejaVuSans-65" transform="scale(0.015625)"/>
      </defs>
      <use xlink:href="#DejaVuSans-54"/>
      <use x="45.458984" xlink:href="#DejaVuSans-79"/>
      <use x="104.638672" xlink:href="#DejaVuSans-70"/>
      <use x="168.115234" xlink:href="#DejaVuSans-65"/>
     </g>
    </g>
   </g>
   <g id="matplotlib.axis_2">
    <g id="ytick_1">
     <g id="line2d_12">
      <defs>
       <path d="M 0 0 
L -4.8 0 
" id="m346b1b8826" style="stroke:#262626;"/>
      </defs>
      <g>
       <use style="fill:#262626;stroke:#262626;" x="70.71" xlink:href="#m346b1b8826" y="162.6"/>
      </g>
     </g>
     <g id="text_13">
      <!-- −0.5 -->
      <g style="fill:#262626;" transform="translate(30.842344 167.538984)scale(0.13 -0.13)">
       <defs>
        <path d="M 678 2272 
L 4684 2272 
L 4684 1741 
L 678 1741 
L 678 2272 
z
" id="DejaVuSans-2212" transform="scale(0.015625)"/>
        <path d="M 2034 4250 
Q 1547 4250 1301 3770 
Q 1056 3291 1056 2328 
Q 1056 1369 1301 889 
Q 1547 409 2034 409 
Q 2525 409 2770 889 
Q 3016 1369 3016 2328 
Q 3016 3291 2770 3770 
Q 2525 4250 2034 4250 
z
M 2034 4750 
Q 2819 4750 3233 4129 
Q 3647 3509 3647 2328 
Q 3647 1150 3233 529 
Q 2819 -91 2034 -91 
Q 1250 -91 836 529 
Q 422 1150 422 2328 
Q 422 3509 836 4129 
Q 1250 4750 2034 4750 
z
" id="DejaVuSans-30" transform="scale(0.015625)"/>
        <path d="M 684 794 
L 1344 794 
L 1344 0 
L 684 0 
L 684 794 
z
" id="DejaVuSans-2e" transform="scale(0.015625)"/>
       </defs>
       <use xlink:href="#DejaVuSans-2212"/>
       <use x="83.789062" xlink:href="#DejaVuSans-30"/>
       <use x="147.412109" xlink:href="#DejaVuSans-2e"/>
       <use x="179.199219" xlink:href="#DejaVuSans-35"/>
      </g>
     </g>
    </g>
    <g id="ytick_2">
     <g id="line2d_13">
      <g>
       <use style="fill:#262626;stroke:#262626;" x="70.71" xlink:href="#m346b1b8826" y="116.175"/>
      </g>
     </g>
     <g id="text_14">
      <!-- 0.0 -->
      <g style="fill:#262626;" transform="translate(41.735938 121.113984)scale(0.13 -0.13)">
       <use xlink:href="#DejaVuSans-30"/>
       <use x="63.623047" xlink:href="#DejaVuSans-2e"/>
       <use x="95.410156" xlink:href="#DejaVuSans-30"/>
      </g>
     </g>
    </g>
    <g id="ytick_3">
     <g id="line2d_14">
      <g>
       <use style="fill:#262626;stroke:#262626;" x="70.71" xlink:href="#m346b1b8826" y="69.75"/>
      </g>
     </g>
     <g id="text_15">
      <!-- 0.5 -->
      <g style="fill:#262626;" transform="translate(41.735938 74.688984)scale(0.13 -0.13)">
       <use xlink:href="#DejaVuSans-30"/>
       <use x="63.623047" xlink:href="#DejaVuSans-2e"/>
       <use x="95.410156" xlink:href="#DejaVuSans-35"/>
      </g>
     </g>
    </g>
    <g id="ytick_4">
     <g id="line2d_15">
      <g>
       <use style="fill:#262626;stroke:#262626;" x="70.71" xlink:href="#m346b1b8826" y="23.325"/>
      </g>
     </g>
     <g id="text_16">
      <!-- 1.0 -->
      <g style="fill:#262626;" transform="translate(41.735938 28.263984)scale(0.13 -0.13)">
       <use xlink:href="#DejaVuSans-31"/>
       <use x="63.623047" xlink:href="#DejaVuSans-2e"/>
       <use x="95.410156" xlink:href="#DejaVuSans-30"/>
      </g>
     </g>
    </g>
    <g id="text_17">
     <!-- CC AB -->
     <g style="fill:#262626;" transform="translate(24.13875 126.939453)rotate(-90)scale(0.13 -0.13)">
      <defs>
       <path id="DejaVuSans-20" transform="scale(0.015625)"/>
       <path d="M 2188 4044 
L 1331 1722 
L 3047 1722 
L 2188 4044 
z
M 1831 4666 
L 2547 4666 
L 4325 0 
L 3669 0 
L 3244 1197 
L 1141 1197 
L 716 0 
L 50 0 
L 1831 4666 
z
" id="DejaVuSans-41" transform="scale(0.015625)"/>
       <path d="M 1259 2228 
L 1259 519 
L 2272 519 
Q 2781 519 3026 730 
Q 3272 941 3272 1375 
Q 3272 1813 3026 2020 
Q 2781 2228 2272 2228 
L 1259 2228 
z
M 1259 4147 
L 1259 2741 
L 2194 2741 
Q 2656 2741 2882 2914 
Q 3109 3088 3109 3444 
Q 3109 3797 2882 3972 
Q 2656 4147 2194 4147 
L 1259 4147 
z
M 628 4666 
L 2241 4666 
Q 2963 4666 3353 4366 
Q 3744 4066 3744 3513 
Q 3744 3084 3544 2831 
Q 3344 2578 2956 2516 
Q 3422 2416 3680 2098 
Q 3938 1781 3938 1306 
Q 3938 681 3513 340 
Q 3088 0 2303 0 
L 628 0 
L 628 4666 
z
" id="DejaVuSans-42" transform="scale(0.015625)"/>
      </defs>
      <use xlink:href="#DejaVuSans-43"/>
      <use x="69.824219" xlink:href="#DejaVuSans-43"/>
      <use x="139.648438" xlink:href="#DejaVuSans-20"/>
      <use x="171.435547" xlink:href="#DejaVuSans-41"/>
      <use x="239.84375" xlink:href="#DejaVuSans-42"/>
     </g>
    </g>
   </g>
   <g id="patch_3">
    <path clip-path="url(#p20381df7bb)" d="M 73.211789 159.364539 
L 93.226103 159.364539 
L 93.226103 143.880365 
L 73.211789 143.880365 
L 73.211789 159.364539 
z
" style="fill:#ea96a3;stroke:#474747;stroke-linejoin:miter;stroke-width:1.2;"/>
   </g>
   <g id="patch_4">
    <path clip-path="url(#p20381df7bb)" d="M 98.229682 45.554354 
L 118.243996 45.554354 
L 118.243996 40.73009 
L 98.229682 40.73009 
L 98.229682 45.554354 
z
" style="fill:#dc924e;stroke:#474747;stroke-linejoin:miter;stroke-width:1.2;"/>
   </g>
   <g id="patch_5">
    <path clip-path="url(#p20381df7bb)" d="M 123.247574 105.161913 
L 143.261888 105.161913 
L 143.261888 80.858795 
L 123.247574 80.858795 
L 123.247574 105.161913 
z
" style="fill:#b39d48;stroke:#474747;stroke-linejoin:miter;stroke-width:1.2;"/>
   </g>
   <g id="patch_6">
    <path clip-path="url(#p20381df7bb)" d="M 148.265467 105.087126 
L 168.279781 105.087126 
L 168.279781 87.668499 
L 148.265467 87.668499 
L 148.265467 105.087126 
z
" style="fill:#8ea546;stroke:#474747;stroke-linejoin:miter;stroke-width:1.2;"/>
   </g>
   <g id="patch_7">
    <path clip-path="url(#p20381df7bb)" d="M 173.28336 84.90486 
L 193.297674 84.90486 
L 193.297674 68.5708 
L 173.28336 68.5708 
L 173.28336 84.90486 
z
" style="fill:#48b067;stroke:#474747;stroke-linejoin:miter;stroke-width:1.2;"/>
   </g>
   <g id="patch_8">
    <path clip-path="url(#p20381df7bb)" d="M 198.301252 152.864673 
L 218.315566 152.864673 
L 218.315566 122.327852 
L 198.301252 122.327852 
L 198.301252 152.864673 
z
" style="fill:#4aac98;stroke:#474747;stroke-linejoin:miter;stroke-width:1.2;"/>
   </g>
   <g id="patch_9">
    <path clip-path="url(#p20381df7bb)" d="M 223.319145 115.939823 
L 243.333459 115.939823 
L 243.333459 89.746913 
L 223.319145 89.746913 
L 223.319145 115.939823 
z
" style="fill:#4dabb0;stroke:#474747;stroke-linejoin:miter;stroke-width:1.2;"/>
   </g>
   <g id="patch_10">
    <path clip-path="url(#p20381df7bb)" d="M 248.337037 106.402535 
L 268.351351 106.402535 
L 268.351351 81.675749 
L 248.337037 81.675749 
L 248.337037 106.402535 
z
" style="fill:#54acd3;stroke:#474747;stroke-linejoin:miter;stroke-width:1.2;"/>
   </g>
   <g id="patch_11">
    <path clip-path="url(#p20381df7bb)" d="M 273.35493 67.820146 
L 293.369244 67.820146 
L 293.369244 58.870649 
L 273.35493 58.870649 
L 273.35493 67.820146 
z
" style="fill:#a9aceb;stroke:#474747;stroke-linejoin:miter;stroke-width:1.2;"/>
   </g>
   <g id="patch_12">
    <path clip-path="url(#p20381df7bb)" d="M 298.372822 94.587558 
L 318.387136 94.587558 
L 318.387136 65.683586 
L 298.372822 65.683586 
L 298.372822 94.587558 
z
" style="fill:#d795e8;stroke:#474747;stroke-linejoin:miter;stroke-width:1.2;"/>
   </g>
   <g id="patch_13">
    <path clip-path="url(#p20381df7bb)" d="M 323.390715 133.826629 
L 343.405029 133.826629 
L 343.405029 107.946858 
L 323.390715 107.946858 
L 323.390715 133.826629 
z
" style="fill:#e88fc9;stroke:#474747;stroke-linejoin:miter;stroke-width:1.2;"/>
   </g>
   <g id="line2d_16">
    <path clip-path="url(#p20381df7bb)" d="M 83.218946 159.364539 
L 83.218946 176.003818 
" style="fill:none;stroke:#474747;stroke-linecap:round;stroke-width:1.2;"/>
   </g>
   <g id="line2d_17">
    <path clip-path="url(#p20381df7bb)" d="M 83.218946 143.880365 
L 83.218946 122.172168 
" style="fill:none;stroke:#474747;stroke-linecap:round;stroke-width:1.2;"/>
   </g>
   <g id="line2d_18">
    <path clip-path="url(#p20381df7bb)" d="M 78.215368 176.003818 
L 88.222525 176.003818 
" style="fill:none;stroke:#474747;stroke-linecap:round;stroke-width:1.2;"/>
   </g>
   <g id="line2d_19">
    <path clip-path="url(#p20381df7bb)" d="M 78.215368 122.172168 
L 88.222525 122.172168 
" style="fill:none;stroke:#474747;stroke-linecap:round;stroke-width:1.2;"/>
   </g>
   <g id="line2d_20">
    <defs>
     <path d="M -0 3.535534 
L 2.12132 0 
L -0 -3.535534 
L -2.12132 -0 
z
" id="m8fb74e3a6e" style="stroke:#474747;stroke-linejoin:miter;"/>
    </defs>
    <g clip-path="url(#p20381df7bb)">
     <use style="fill:#474747;stroke:#474747;stroke-linejoin:miter;" x="83.218946" xlink:href="#m8fb74e3a6e" y="183.265311"/>
     <use style="fill:#474747;stroke:#474747;stroke-linejoin:miter;" x="83.218946" xlink:href="#m8fb74e3a6e" y="114.303187"/>
    </g>
   </g>
   <g id="line2d_21">
    <path clip-path="url(#p20381df7bb)" d="M 108.236839 45.554354 
L 108.236839 52.474205 
" style="fill:none;stroke:#474747;stroke-linecap:round;stroke-width:1.2;"/>
   </g>
   <g id="line2d_22">
    <path clip-path="url(#p20381df7bb)" d="M 108.236839 40.73009 
L 108.236839 36.814062 
" style="fill:none;stroke:#474747;stroke-linecap:round;stroke-width:1.2;"/>
   </g>
   <g id="line2d_23">
    <path clip-path="url(#p20381df7bb)" d="M 103.23326 52.474205 
L 113.240417 52.474205 
" style="fill:none;stroke:#474747;stroke-linecap:round;stroke-width:1.2;"/>
   </g>
   <g id="line2d_24">
    <path clip-path="url(#p20381df7bb)" d="M 103.23326 36.814062 
L 113.240417 36.814062 
" style="fill:none;stroke:#474747;stroke-linecap:round;stroke-width:1.2;"/>
   </g>
   <g id="line2d_25">
    <g clip-path="url(#p20381df7bb)">
     <use style="fill:#474747;stroke:#474747;stroke-linejoin:miter;" x="108.236839" xlink:href="#m8fb74e3a6e" y="54.229787"/>
     <use style="fill:#474747;stroke:#474747;stroke-linejoin:miter;" x="108.236839" xlink:href="#m8fb74e3a6e" y="55.723333"/>
     <use style="fill:#474747;stroke:#474747;stroke-linejoin:miter;" x="108.236839" xlink:href="#m8fb74e3a6e" y="55.340653"/>
     <use style="fill:#474747;stroke:#474747;stroke-linejoin:miter;" x="108.236839" xlink:href="#m8fb74e3a6e" y="55.945008"/>
     <use style="fill:#474747;stroke:#474747;stroke-linejoin:miter;" x="108.236839" xlink:href="#m8fb74e3a6e" y="57.451486"/>
    </g>
   </g>
   <g id="line2d_26">
    <path clip-path="url(#p20381df7bb)" d="M 133.254731 105.161913 
L 133.254731 135.301034 
" style="fill:none;stroke:#474747;stroke-linecap:round;stroke-width:1.2;"/>
   </g>
   <g id="line2d_27">
    <path clip-path="url(#p20381df7bb)" d="M 133.254731 80.858795 
L 133.254731 55.993139 
" style="fill:none;stroke:#474747;stroke-linecap:round;stroke-width:1.2;"/>
   </g>
   <g id="line2d_28">
    <path clip-path="url(#p20381df7bb)" d="M 128.251153 135.301034 
L 138.25831 135.301034 
" style="fill:none;stroke:#474747;stroke-linecap:round;stroke-width:1.2;"/>
   </g>
   <g id="line2d_29">
    <path clip-path="url(#p20381df7bb)" d="M 128.251153 55.993139 
L 138.25831 55.993139 
" style="fill:none;stroke:#474747;stroke-linecap:round;stroke-width:1.2;"/>
   </g>
   <g id="line2d_30">
    <g clip-path="url(#p20381df7bb)">
     <use style="fill:#474747;stroke:#474747;stroke-linejoin:miter;" x="133.254731" xlink:href="#m8fb74e3a6e" y="145.540422"/>
     <use style="fill:#474747;stroke:#474747;stroke-linejoin:miter;" x="133.254731" xlink:href="#m8fb74e3a6e" y="148.706442"/>
    </g>
   </g>
   <g id="line2d_31">
    <path clip-path="url(#p20381df7bb)" d="M 158.272624 105.087126 
L 158.272624 129.342335 
" style="fill:none;stroke:#474747;stroke-linecap:round;stroke-width:1.2;"/>
   </g>
   <g id="line2d_32">
    <path clip-path="url(#p20381df7bb)" d="M 158.272624 87.668499 
L 158.272624 68.045461 
" style="fill:none;stroke:#474747;stroke-linecap:round;stroke-width:1.2;"/>
   </g>
   <g id="line2d_33">
    <path clip-path="url(#p20381df7bb)" d="M 153.269045 129.342335 
L 163.276202 129.342335 
" style="fill:none;stroke:#474747;stroke-linecap:round;stroke-width:1.2;"/>
   </g>
   <g id="line2d_34">
    <path clip-path="url(#p20381df7bb)" d="M 153.269045 68.045461 
L 163.276202 68.045461 
" style="fill:none;stroke:#474747;stroke-linecap:round;stroke-width:1.2;"/>
   </g>
   <g id="line2d_35">
    <g clip-path="url(#p20381df7bb)">
     <use style="fill:#474747;stroke:#474747;stroke-linejoin:miter;" x="158.272624" xlink:href="#m8fb74e3a6e" y="133.817525"/>
     <use style="fill:#474747;stroke:#474747;stroke-linejoin:miter;" x="158.272624" xlink:href="#m8fb74e3a6e" y="131.572209"/>
     <use style="fill:#474747;stroke:#474747;stroke-linejoin:miter;" x="158.272624" xlink:href="#m8fb74e3a6e" y="151.17144"/>
     <use style="fill:#474747;stroke:#474747;stroke-linejoin:miter;" x="158.272624" xlink:href="#m8fb74e3a6e" y="136.687947"/>
    </g>
   </g>
   <g id="line2d_36">
    <path clip-path="url(#p20381df7bb)" d="M 183.290517 84.90486 
L 183.290517 108.353582 
" style="fill:none;stroke:#474747;stroke-linecap:round;stroke-width:1.2;"/>
   </g>
   <g id="line2d_37">
    <path clip-path="url(#p20381df7bb)" d="M 183.290517 68.5708 
L 183.290517 53.581908 
" style="fill:none;stroke:#474747;stroke-linecap:round;stroke-width:1.2;"/>
   </g>
   <g id="line2d_38">
    <path clip-path="url(#p20381df7bb)" d="M 178.286938 108.353582 
L 188.294095 108.353582 
" style="fill:none;stroke:#474747;stroke-linecap:round;stroke-width:1.2;"/>
   </g>
   <g id="line2d_39">
    <path clip-path="url(#p20381df7bb)" d="M 178.286938 53.581908 
L 188.294095 53.581908 
" style="fill:none;stroke:#474747;stroke-linecap:round;stroke-width:1.2;"/>
   </g>
   <g id="line2d_40">
    <g clip-path="url(#p20381df7bb)">
     <use style="fill:#474747;stroke:#474747;stroke-linejoin:miter;" x="183.290517" xlink:href="#m8fb74e3a6e" y="110.123577"/>
     <use style="fill:#474747;stroke:#474747;stroke-linejoin:miter;" x="183.290517" xlink:href="#m8fb74e3a6e" y="113.838325"/>
    </g>
   </g>
   <g id="line2d_41">
    <path clip-path="url(#p20381df7bb)" d="M 208.308409 152.864673 
L 208.308409 179.454369 
" style="fill:none;stroke:#474747;stroke-linecap:round;stroke-width:1.2;"/>
   </g>
   <g id="line2d_42">
    <path clip-path="url(#p20381df7bb)" d="M 208.308409 122.327852 
L 208.308409 85.387738 
" style="fill:none;stroke:#474747;stroke-linecap:round;stroke-width:1.2;"/>
   </g>
   <g id="line2d_43">
    <path clip-path="url(#p20381df7bb)" d="M 203.304831 179.454369 
L 213.311988 179.454369 
" style="fill:none;stroke:#474747;stroke-linecap:round;stroke-width:1.2;"/>
   </g>
   <g id="line2d_44">
    <path clip-path="url(#p20381df7bb)" d="M 203.304831 85.387738 
L 213.311988 85.387738 
" style="fill:none;stroke:#474747;stroke-linecap:round;stroke-width:1.2;"/>
   </g>
   <g id="line2d_45"/>
   <g id="line2d_46">
    <path clip-path="url(#p20381df7bb)" d="M 233.326302 115.939823 
L 233.326302 148.703654 
" style="fill:none;stroke:#474747;stroke-linecap:round;stroke-width:1.2;"/>
   </g>
   <g id="line2d_47">
    <path clip-path="url(#p20381df7bb)" d="M 233.326302 89.746913 
L 233.326302 65.996793 
" style="fill:none;stroke:#474747;stroke-linecap:round;stroke-width:1.2;"/>
   </g>
   <g id="line2d_48">
    <path clip-path="url(#p20381df7bb)" d="M 228.322723 148.703654 
L 238.32988 148.703654 
" style="fill:none;stroke:#474747;stroke-linecap:round;stroke-width:1.2;"/>
   </g>
   <g id="line2d_49">
    <path clip-path="url(#p20381df7bb)" d="M 228.322723 65.996793 
L 238.32988 65.996793 
" style="fill:none;stroke:#474747;stroke-linecap:round;stroke-width:1.2;"/>
   </g>
   <g id="line2d_50"/>
   <g id="line2d_51">
    <path clip-path="url(#p20381df7bb)" d="M 258.344194 106.402535 
L 258.344194 135.022409 
" style="fill:none;stroke:#474747;stroke-linecap:round;stroke-width:1.2;"/>
   </g>
   <g id="line2d_52">
    <path clip-path="url(#p20381df7bb)" d="M 258.344194 81.675749 
L 258.344194 54.54554 
" style="fill:none;stroke:#474747;stroke-linecap:round;stroke-width:1.2;"/>
   </g>
   <g id="line2d_53">
    <path clip-path="url(#p20381df7bb)" d="M 253.340616 135.022409 
L 263.347773 135.022409 
" style="fill:none;stroke:#474747;stroke-linecap:round;stroke-width:1.2;"/>
   </g>
   <g id="line2d_54">
    <path clip-path="url(#p20381df7bb)" d="M 253.340616 54.54554 
L 263.347773 54.54554 
" style="fill:none;stroke:#474747;stroke-linecap:round;stroke-width:1.2;"/>
   </g>
   <g id="line2d_55"/>
   <g id="line2d_56">
    <path clip-path="url(#p20381df7bb)" d="M 283.362087 67.820146 
L 283.362087 81.189634 
" style="fill:none;stroke:#474747;stroke-linecap:round;stroke-width:1.2;"/>
   </g>
   <g id="line2d_57">
    <path clip-path="url(#p20381df7bb)" d="M 283.362087 58.870649 
L 283.362087 46.169802 
" style="fill:none;stroke:#474747;stroke-linecap:round;stroke-width:1.2;"/>
   </g>
   <g id="line2d_58">
    <path clip-path="url(#p20381df7bb)" d="M 278.358508 81.189634 
L 288.365665 81.189634 
" style="fill:none;stroke:#474747;stroke-linecap:round;stroke-width:1.2;"/>
   </g>
   <g id="line2d_59">
    <path clip-path="url(#p20381df7bb)" d="M 278.358508 46.169802 
L 288.365665 46.169802 
" style="fill:none;stroke:#474747;stroke-linecap:round;stroke-width:1.2;"/>
   </g>
   <g id="line2d_60">
    <g clip-path="url(#p20381df7bb)">
     <use style="fill:#474747;stroke:#474747;stroke-linejoin:miter;" x="283.362087" xlink:href="#m8fb74e3a6e" y="81.810429"/>
     <use style="fill:#474747;stroke:#474747;stroke-linejoin:miter;" x="283.362087" xlink:href="#m8fb74e3a6e" y="88.831178"/>
     <use style="fill:#474747;stroke:#474747;stroke-linejoin:miter;" x="283.362087" xlink:href="#m8fb74e3a6e" y="86.184194"/>
     <use style="fill:#474747;stroke:#474747;stroke-linejoin:miter;" x="283.362087" xlink:href="#m8fb74e3a6e" y="83.423286"/>
     <use style="fill:#474747;stroke:#474747;stroke-linejoin:miter;" x="283.362087" xlink:href="#m8fb74e3a6e" y="86.352425"/>
     <use style="fill:#474747;stroke:#474747;stroke-linejoin:miter;" x="283.362087" xlink:href="#m8fb74e3a6e" y="83.626962"/>
     <use style="fill:#474747;stroke:#474747;stroke-linejoin:miter;" x="283.362087" xlink:href="#m8fb74e3a6e" y="44.628208"/>
    </g>
   </g>
   <g id="line2d_61">
    <path clip-path="url(#p20381df7bb)" d="M 308.379979 94.587558 
L 308.379979 125.241687 
" style="fill:none;stroke:#474747;stroke-linecap:round;stroke-width:1.2;"/>
   </g>
   <g id="line2d_62">
    <path clip-path="url(#p20381df7bb)" d="M 308.379979 65.683586 
L 308.379979 48.397079 
" style="fill:none;stroke:#474747;stroke-linecap:round;stroke-width:1.2;"/>
   </g>
   <g id="line2d_63">
    <path clip-path="url(#p20381df7bb)" d="M 303.376401 125.241687 
L 313.383558 125.241687 
" style="fill:none;stroke:#474747;stroke-linecap:round;stroke-width:1.2;"/>
   </g>
   <g id="line2d_64">
    <path clip-path="url(#p20381df7bb)" d="M 303.376401 48.397079 
L 313.383558 48.397079 
" style="fill:none;stroke:#474747;stroke-linecap:round;stroke-width:1.2;"/>
   </g>
   <g id="line2d_65">
    <g clip-path="url(#p20381df7bb)">
     <use style="fill:#474747;stroke:#474747;stroke-linejoin:miter;" x="308.379979" xlink:href="#m8fb74e3a6e" y="143.810169"/>
    </g>
   </g>
   <g id="line2d_66">
    <path clip-path="url(#p20381df7bb)" d="M 333.397872 133.826629 
L 333.397872 169.665089 
" style="fill:none;stroke:#474747;stroke-linecap:round;stroke-width:1.2;"/>
   </g>
   <g id="line2d_67">
    <path clip-path="url(#p20381df7bb)" d="M 333.397872 107.946858 
L 333.397872 77.63782 
" style="fill:none;stroke:#474747;stroke-linecap:round;stroke-width:1.2;"/>
   </g>
   <g id="line2d_68">
    <path clip-path="url(#p20381df7bb)" d="M 328.394293 169.665089 
L 338.40145 169.665089 
" style="fill:none;stroke:#474747;stroke-linecap:round;stroke-width:1.2;"/>
   </g>
   <g id="line2d_69">
    <path clip-path="url(#p20381df7bb)" d="M 328.394293 77.63782 
L 338.40145 77.63782 
" style="fill:none;stroke:#474747;stroke-linecap:round;stroke-width:1.2;"/>
   </g>
   <g id="line2d_70">
    <g clip-path="url(#p20381df7bb)">
     <use style="fill:#474747;stroke:#474747;stroke-linejoin:miter;" x="333.397872" xlink:href="#m8fb74e3a6e" y="57.579997"/>
     <use style="fill:#474747;stroke:#474747;stroke-linejoin:miter;" x="333.397872" xlink:href="#m8fb74e3a6e" y="65.847006"/>
     <use style="fill:#474747;stroke:#474747;stroke-linejoin:miter;" x="333.397872" xlink:href="#m8fb74e3a6e" y="64.957305"/>
     <use style="fill:#474747;stroke:#474747;stroke-linejoin:miter;" x="333.397872" xlink:href="#m8fb74e3a6e" y="65.474549"/>
    </g>
   </g>
   <g id="line2d_71">
    <path clip-path="url(#p20381df7bb)" d="M 73.211789 150.204569 
L 93.226103 150.204569 
" style="fill:none;stroke:#474747;stroke-linecap:round;stroke-width:1.2;"/>
   </g>
   <g id="line2d_72">
    <path clip-path="url(#p20381df7bb)" d="M 98.229682 42.525858 
L 118.243996 42.525858 
" style="fill:none;stroke:#474747;stroke-linecap:round;stroke-width:1.2;"/>
   </g>
   <g id="line2d_73">
    <path clip-path="url(#p20381df7bb)" d="M 123.247574 92.967876 
L 143.261888 92.967876 
" style="fill:none;stroke:#474747;stroke-linecap:round;stroke-width:1.2;"/>
   </g>
   <g id="line2d_74">
    <path clip-path="url(#p20381df7bb)" d="M 148.265467 95.681592 
L 168.279781 95.681592 
" style="fill:none;stroke:#474747;stroke-linecap:round;stroke-width:1.2;"/>
   </g>
   <g id="line2d_75">
    <path clip-path="url(#p20381df7bb)" d="M 173.28336 77.5374 
L 193.297674 77.5374 
" style="fill:none;stroke:#474747;stroke-linecap:round;stroke-width:1.2;"/>
   </g>
   <g id="line2d_76">
    <path clip-path="url(#p20381df7bb)" d="M 198.301252 138.506365 
L 218.315566 138.506365 
" style="fill:none;stroke:#474747;stroke-linecap:round;stroke-width:1.2;"/>
   </g>
   <g id="line2d_77">
    <path clip-path="url(#p20381df7bb)" d="M 223.319145 105.801393 
L 243.333459 105.801393 
" style="fill:none;stroke:#474747;stroke-linecap:round;stroke-width:1.2;"/>
   </g>
   <g id="line2d_78">
    <path clip-path="url(#p20381df7bb)" d="M 248.337037 96.984914 
L 268.351351 96.984914 
" style="fill:none;stroke:#474747;stroke-linecap:round;stroke-width:1.2;"/>
   </g>
   <g id="line2d_79">
    <path clip-path="url(#p20381df7bb)" d="M 273.35493 63.903504 
L 293.369244 63.903504 
" style="fill:none;stroke:#474747;stroke-linecap:round;stroke-width:1.2;"/>
   </g>
   <g id="line2d_80">
    <path clip-path="url(#p20381df7bb)" d="M 298.372822 81.033412 
L 318.387136 81.033412 
" style="fill:none;stroke:#474747;stroke-linecap:round;stroke-width:1.2;"/>
   </g>
   <g id="line2d_81">
    <path clip-path="url(#p20381df7bb)" d="M 323.390715 122.075727 
L 343.405029 122.075727 
" style="fill:none;stroke:#474747;stroke-linecap:round;stroke-width:1.2;"/>
   </g>
   <g id="patch_14">
    <path d="M 70.71 199.74 
L 70.71 14.04 
" style="fill:none;stroke:#262626;stroke-linecap:square;stroke-linejoin:miter;"/>
   </g>
   <g id="patch_15">
    <path d="M 345.906818 199.74 
L 345.906818 14.04 
" style="fill:none;stroke:#262626;stroke-linecap:square;stroke-linejoin:miter;"/>
   </g>
   <g id="patch_16">
    <path d="M 70.71 199.74 
L 345.906818 199.74 
" style="fill:none;stroke:#262626;stroke-linecap:square;stroke-linejoin:miter;"/>
   </g>
   <g id="patch_17">
    <path d="M 70.71 14.04 
L 345.906818 14.04 
" style="fill:none;stroke:#262626;stroke-linecap:square;stroke-linejoin:miter;"/>
   </g>
  </g>
 </g>
 <defs>
  <clipPath id="p20381df7bb">
   <rect height="185.7" width="275.196818" x="70.71" y="14.04"/>
  </clipPath>
 </defs>
</svg>
