<?xml version="1.0" encoding="utf-8" standalone="no"?>
<!DOCTYPE svg PUBLIC "-//W3C//DTD SVG 1.1//EN"
  "http://www.w3.org/Graphics/SVG/1.1/DTD/svg11.dtd">
<svg height="252pt" version="1.1" viewBox="0 0 324 252" width="324pt" xmlns="http://www.w3.org/2000/svg" xmlns:xlink="http://www.w3.org/1999/xlink">
 <metadata>
  <rdf:RDF xmlns:cc="http://creativecommons.org/ns#" xmlns:dc="http://purl.org/dc/elements/1.1/" xmlns:rdf="http://www.w3.org/1999/02/22-rdf-syntax-ns#">
   <cc:Work>
    <dc:type rdf:resource="http://purl.org/dc/dcmitype/StillImage"/>
    <dc:date>2022-01-12T09:59:04.157799</dc:date>
    <dc:format>image/svg+xml</dc:format>
    <dc:creator>
     <cc:Agent>
      <dc:title>Matplotlib v3.4.2, https://matplotlib.org/</dc:title>
     </cc:Agent>
    </dc:creator>
   </cc:Work>
  </rdf:RDF>
 </metadata>
 <defs>
  <style type="text/css">*{stroke-linecap:butt;stroke-linejoin:round;}</style>
 </defs>
 <g id="figure_1">
  <g id="patch_1">
   <path d="M 0 252 
L 324 252 
L 324 0 
L 0 0 
z
" style="fill:#ffffff;"/>
  </g>
  <g id="axes_1">
   <g id="patch_2">
    <path d="M 74.76 200.82 
L 311.04 200.82 
L 311.04 15.044125 
L 74.76 15.044125 
z
" style="fill:#ffffff;"/>
   </g>
   <g id="matplotlib.axis_1">
    <g id="xtick_1">
     <g id="line2d_1">
      <defs>
       <path d="M 0 0 
L 0 4.8 
" id="m1d9a75a014" style="stroke:#262626;"/>
      </defs>
      <g>
       <use style="fill:#262626;stroke:#262626;" x="101.499839" xlink:href="#m1d9a75a014" y="200.82"/>
      </g>
     </g>
     <g id="text_1">
      <!-- −2 -->
      <g style="fill:#262626;" transform="translate(92.654527 218.238125)scale(0.12 -0.12)">
       <defs>
        <path d="M 678 2272 
L 4684 2272 
L 4684 1741 
L 678 1741 
L 678 2272 
z
" id="DejaVuSans-2212" transform="scale(0.015625)"/>
        <path d="M 1228 531 
L 3431 531 
L 3431 0 
L 469 0 
L 469 531 
Q 828 903 1448 1529 
Q 2069 2156 2228 2338 
Q 2531 2678 2651 2914 
Q 2772 3150 2772 3378 
Q 2772 3750 2511 3984 
Q 2250 4219 1831 4219 
Q 1534 4219 1204 4116 
Q 875 4013 500 3803 
L 500 4441 
Q 881 4594 1212 4672 
Q 1544 4750 1819 4750 
Q 2544 4750 2975 4387 
Q 3406 4025 3406 3419 
Q 3406 3131 3298 2873 
Q 3191 2616 2906 2266 
Q 2828 2175 2409 1742 
Q 1991 1309 1228 531 
z
" id="DejaVuSans-32" transform="scale(0.015625)"/>
       </defs>
       <use xlink:href="#DejaVuSans-2212"/>
       <use x="83.789062" xlink:href="#DejaVuSans-32"/>
      </g>
     </g>
    </g>
    <g id="xtick_2">
     <g id="line2d_2">
      <g>
       <use style="fill:#262626;stroke:#262626;" x="151.199879" xlink:href="#m1d9a75a014" y="200.82"/>
      </g>
     </g>
     <g id="text_2">
      <!-- −1 -->
      <g style="fill:#262626;" transform="translate(142.354567 218.238125)scale(0.12 -0.12)">
       <defs>
        <path d="M 794 531 
L 1825 531 
L 1825 4091 
L 703 3866 
L 703 4441 
L 1819 4666 
L 2450 4666 
L 2450 531 
L 3481 531 
L 3481 0 
L 794 0 
L 794 531 
z
" id="DejaVuSans-31" transform="scale(0.015625)"/>
       </defs>
       <use xlink:href="#DejaVuSans-2212"/>
       <use x="83.789062" xlink:href="#DejaVuSans-31"/>
      </g>
     </g>
    </g>
    <g id="xtick_3">
     <g id="line2d_3">
      <g>
       <use style="fill:#262626;stroke:#262626;" x="200.89992" xlink:href="#m1d9a75a014" y="200.82"/>
      </g>
     </g>
     <g id="text_3">
      <!-- 0 -->
      <g style="fill:#262626;" transform="translate(197.08242 218.238125)scale(0.12 -0.12)">
       <defs>
        <path d="M 2034 4250 
Q 1547 4250 1301 3770 
Q 1056 3291 1056 2328 
Q 1056 1369 1301 889 
Q 1547 409 2034 409 
Q 2525 409 2770 889 
Q 3016 1369 3016 2328 
Q 3016 3291 2770 3770 
Q 2525 4250 2034 4250 
z
M 2034 4750 
Q 2819 4750 3233 4129 
Q 3647 3509 3647 2328 
Q 3647 1150 3233 529 
Q 2819 -91 2034 -91 
Q 1250 -91 836 529 
Q 422 1150 422 2328 
Q 422 3509 836 4129 
Q 1250 4750 2034 4750 
z
" id="DejaVuSans-30" transform="scale(0.015625)"/>
       </defs>
       <use xlink:href="#DejaVuSans-30"/>
      </g>
     </g>
    </g>
    <g id="xtick_4">
     <g id="line2d_4">
      <g>
       <use style="fill:#262626;stroke:#262626;" x="250.59996" xlink:href="#m1d9a75a014" y="200.82"/>
      </g>
     </g>
     <g id="text_4">
      <!-- 1 -->
      <g style="fill:#262626;" transform="translate(246.78246 218.238125)scale(0.12 -0.12)">
       <use xlink:href="#DejaVuSans-31"/>
      </g>
     </g>
    </g>
    <g id="xtick_5">
     <g id="line2d_5">
      <g>
       <use style="fill:#262626;stroke:#262626;" x="300.3" xlink:href="#m1d9a75a014" y="200.82"/>
      </g>
     </g>
     <g id="text_5">
      <!-- 2 -->
      <g style="fill:#262626;" transform="translate(296.4825 218.238125)scale(0.12 -0.12)">
       <use xlink:href="#DejaVuSans-32"/>
      </g>
     </g>
    </g>
    <g id="text_6">
     <!-- log2(InA/InB) -->
     <g style="fill:#262626;" transform="translate(153.86625 233.851875)scale(0.12 -0.12)">
      <defs>
       <path d="M 603 4863 
L 1178 4863 
L 1178 0 
L 603 0 
L 603 4863 
z
" id="DejaVuSans-6c" transform="scale(0.015625)"/>
       <path d="M 1959 3097 
Q 1497 3097 1228 2736 
Q 959 2375 959 1747 
Q 959 1119 1226 758 
Q 1494 397 1959 397 
Q 2419 397 2687 759 
Q 2956 1122 2956 1747 
Q 2956 2369 2687 2733 
Q 2419 3097 1959 3097 
z
M 1959 3584 
Q 2709 3584 3137 3096 
Q 3566 2609 3566 1747 
Q 3566 888 3137 398 
Q 2709 -91 1959 -91 
Q 1206 -91 779 398 
Q 353 888 353 1747 
Q 353 2609 779 3096 
Q 1206 3584 1959 3584 
z
" id="DejaVuSans-6f" transform="scale(0.015625)"/>
       <path d="M 2906 1791 
Q 2906 2416 2648 2759 
Q 2391 3103 1925 3103 
Q 1463 3103 1205 2759 
Q 947 2416 947 1791 
Q 947 1169 1205 825 
Q 1463 481 1925 481 
Q 2391 481 2648 825 
Q 2906 1169 2906 1791 
z
M 3481 434 
Q 3481 -459 3084 -895 
Q 2688 -1331 1869 -1331 
Q 1566 -1331 1297 -1286 
Q 1028 -1241 775 -1147 
L 775 -588 
Q 1028 -725 1275 -790 
Q 1522 -856 1778 -856 
Q 2344 -856 2625 -561 
Q 2906 -266 2906 331 
L 2906 616 
Q 2728 306 2450 153 
Q 2172 0 1784 0 
Q 1141 0 747 490 
Q 353 981 353 1791 
Q 353 2603 747 3093 
Q 1141 3584 1784 3584 
Q 2172 3584 2450 3431 
Q 2728 3278 2906 2969 
L 2906 3500 
L 3481 3500 
L 3481 434 
z
" id="DejaVuSans-67" transform="scale(0.015625)"/>
       <path d="M 1984 4856 
Q 1566 4138 1362 3434 
Q 1159 2731 1159 2009 
Q 1159 1288 1364 580 
Q 1569 -128 1984 -844 
L 1484 -844 
Q 1016 -109 783 600 
Q 550 1309 550 2009 
Q 550 2706 781 3412 
Q 1013 4119 1484 4856 
L 1984 4856 
z
" id="DejaVuSans-28" transform="scale(0.015625)"/>
       <path d="M 628 4666 
L 1259 4666 
L 1259 0 
L 628 0 
L 628 4666 
z
" id="DejaVuSans-49" transform="scale(0.015625)"/>
       <path d="M 3513 2113 
L 3513 0 
L 2938 0 
L 2938 2094 
Q 2938 2591 2744 2837 
Q 2550 3084 2163 3084 
Q 1697 3084 1428 2787 
Q 1159 2491 1159 1978 
L 1159 0 
L 581 0 
L 581 3500 
L 1159 3500 
L 1159 2956 
Q 1366 3272 1645 3428 
Q 1925 3584 2291 3584 
Q 2894 3584 3203 3211 
Q 3513 2838 3513 2113 
z
" id="DejaVuSans-6e" transform="scale(0.015625)"/>
       <path d="M 2188 4044 
L 1331 1722 
L 3047 1722 
L 2188 4044 
z
M 1831 4666 
L 2547 4666 
L 4325 0 
L 3669 0 
L 3244 1197 
L 1141 1197 
L 716 0 
L 50 0 
L 1831 4666 
z
" id="DejaVuSans-41" transform="scale(0.015625)"/>
       <path d="M 1625 4666 
L 2156 4666 
L 531 -594 
L 0 -594 
L 1625 4666 
z
" id="DejaVuSans-2f" transform="scale(0.015625)"/>
       <path d="M 1259 2228 
L 1259 519 
L 2272 519 
Q 2781 519 3026 730 
Q 3272 941 3272 1375 
Q 3272 1813 3026 2020 
Q 2781 2228 2272 2228 
L 1259 2228 
z
M 1259 4147 
L 1259 2741 
L 2194 2741 
Q 2656 2741 2882 2914 
Q 3109 3088 3109 3444 
Q 3109 3797 2882 3972 
Q 2656 4147 2194 4147 
L 1259 4147 
z
M 628 4666 
L 2241 4666 
Q 2963 4666 3353 4366 
Q 3744 4066 3744 3513 
Q 3744 3084 3544 2831 
Q 3344 2578 2956 2516 
Q 3422 2416 3680 2098 
Q 3938 1781 3938 1306 
Q 3938 681 3513 340 
Q 3088 0 2303 0 
L 628 0 
L 628 4666 
z
" id="DejaVuSans-42" transform="scale(0.015625)"/>
       <path d="M 513 4856 
L 1013 4856 
Q 1481 4119 1714 3412 
Q 1947 2706 1947 2009 
Q 1947 1309 1714 600 
Q 1481 -109 1013 -844 
L 513 -844 
Q 928 -128 1133 580 
Q 1338 1288 1338 2009 
Q 1338 2731 1133 3434 
Q 928 4138 513 4856 
z
" id="DejaVuSans-29" transform="scale(0.015625)"/>
      </defs>
      <use xlink:href="#DejaVuSans-6c"/>
      <use x="27.783203" xlink:href="#DejaVuSans-6f"/>
      <use x="88.964844" xlink:href="#DejaVuSans-67"/>
      <use x="152.441406" xlink:href="#DejaVuSans-32"/>
      <use x="216.064453" xlink:href="#DejaVuSans-28"/>
      <use x="255.078125" xlink:href="#DejaVuSans-49"/>
      <use x="284.570312" xlink:href="#DejaVuSans-6e"/>
      <use x="347.949219" xlink:href="#DejaVuSans-41"/>
      <use x="416.357422" xlink:href="#DejaVuSans-2f"/>
      <use x="450.048828" xlink:href="#DejaVuSans-49"/>
      <use x="479.541016" xlink:href="#DejaVuSans-6e"/>
      <use x="542.919922" xlink:href="#DejaVuSans-42"/>
      <use x="611.523438" xlink:href="#DejaVuSans-29"/>
     </g>
    </g>
   </g>
   <g id="matplotlib.axis_2">
    <g id="ytick_1">
     <g id="line2d_6">
      <defs>
       <path d="M 0 0 
L -4.8 0 
" id="m15ebde7661" style="stroke:#262626;"/>
      </defs>
      <g>
       <use style="fill:#262626;stroke:#262626;" x="74.76" xlink:href="#m15ebde7661" y="197.961597"/>
      </g>
     </g>
     <g id="text_7">
      <!-- −0.875 -->
      <g style="fill:#262626;" transform="translate(22.050625 202.52066)scale(0.12 -0.12)">
       <defs>
        <path d="M 684 794 
L 1344 794 
L 1344 0 
L 684 0 
L 684 794 
z
" id="DejaVuSans-2e" transform="scale(0.015625)"/>
        <path d="M 2034 2216 
Q 1584 2216 1326 1975 
Q 1069 1734 1069 1313 
Q 1069 891 1326 650 
Q 1584 409 2034 409 
Q 2484 409 2743 651 
Q 3003 894 3003 1313 
Q 3003 1734 2745 1975 
Q 2488 2216 2034 2216 
z
M 1403 2484 
Q 997 2584 770 2862 
Q 544 3141 544 3541 
Q 544 4100 942 4425 
Q 1341 4750 2034 4750 
Q 2731 4750 3128 4425 
Q 3525 4100 3525 3541 
Q 3525 3141 3298 2862 
Q 3072 2584 2669 2484 
Q 3125 2378 3379 2068 
Q 3634 1759 3634 1313 
Q 3634 634 3220 271 
Q 2806 -91 2034 -91 
Q 1263 -91 848 271 
Q 434 634 434 1313 
Q 434 1759 690 2068 
Q 947 2378 1403 2484 
z
M 1172 3481 
Q 1172 3119 1398 2916 
Q 1625 2713 2034 2713 
Q 2441 2713 2670 2916 
Q 2900 3119 2900 3481 
Q 2900 3844 2670 4047 
Q 2441 4250 2034 4250 
Q 1625 4250 1398 4047 
Q 1172 3844 1172 3481 
z
" id="DejaVuSans-38" transform="scale(0.015625)"/>
        <path d="M 525 4666 
L 3525 4666 
L 3525 4397 
L 1831 0 
L 1172 0 
L 2766 4134 
L 525 4134 
L 525 4666 
z
" id="DejaVuSans-37" transform="scale(0.015625)"/>
        <path d="M 691 4666 
L 3169 4666 
L 3169 4134 
L 1269 4134 
L 1269 2991 
Q 1406 3038 1543 3061 
Q 1681 3084 1819 3084 
Q 2600 3084 3056 2656 
Q 3513 2228 3513 1497 
Q 3513 744 3044 326 
Q 2575 -91 1722 -91 
Q 1428 -91 1123 -41 
Q 819 9 494 109 
L 494 744 
Q 775 591 1075 516 
Q 1375 441 1709 441 
Q 2250 441 2565 725 
Q 2881 1009 2881 1497 
Q 2881 1984 2565 2268 
Q 2250 2553 1709 2553 
Q 1456 2553 1204 2497 
Q 953 2441 691 2322 
L 691 4666 
z
" id="DejaVuSans-35" transform="scale(0.015625)"/>
       </defs>
       <use xlink:href="#DejaVuSans-2212"/>
       <use x="83.789062" xlink:href="#DejaVuSans-30"/>
       <use x="147.412109" xlink:href="#DejaVuSans-2e"/>
       <use x="179.199219" xlink:href="#DejaVuSans-38"/>
       <use x="242.822266" xlink:href="#DejaVuSans-37"/>
       <use x="306.445312" xlink:href="#DejaVuSans-35"/>
      </g>
     </g>
    </g>
    <g id="ytick_2">
     <g id="line2d_7">
      <g>
       <use style="fill:#262626;stroke:#262626;" x="74.76" xlink:href="#m15ebde7661" y="168.915228"/>
      </g>
     </g>
     <g id="text_8">
      <!-- −0.850 -->
      <g style="fill:#262626;" transform="translate(22.050625 173.474291)scale(0.12 -0.12)">
       <use xlink:href="#DejaVuSans-2212"/>
       <use x="83.789062" xlink:href="#DejaVuSans-30"/>
       <use x="147.412109" xlink:href="#DejaVuSans-2e"/>
       <use x="179.199219" xlink:href="#DejaVuSans-38"/>
       <use x="242.822266" xlink:href="#DejaVuSans-35"/>
       <use x="306.445312" xlink:href="#DejaVuSans-30"/>
      </g>
     </g>
    </g>
    <g id="ytick_3">
     <g id="line2d_8">
      <g>
       <use style="fill:#262626;stroke:#262626;" x="74.76" xlink:href="#m15ebde7661" y="139.868859"/>
      </g>
     </g>
     <g id="text_9">
      <!-- −0.825 -->
      <g style="fill:#262626;" transform="translate(22.050625 144.427922)scale(0.12 -0.12)">
       <use xlink:href="#DejaVuSans-2212"/>
       <use x="83.789062" xlink:href="#DejaVuSans-30"/>
       <use x="147.412109" xlink:href="#DejaVuSans-2e"/>
       <use x="179.199219" xlink:href="#DejaVuSans-38"/>
       <use x="242.822266" xlink:href="#DejaVuSans-32"/>
       <use x="306.445312" xlink:href="#DejaVuSans-35"/>
      </g>
     </g>
    </g>
    <g id="ytick_4">
     <g id="line2d_9">
      <g>
       <use style="fill:#262626;stroke:#262626;" x="74.76" xlink:href="#m15ebde7661" y="110.822491"/>
      </g>
     </g>
     <g id="text_10">
      <!-- −0.800 -->
      <g style="fill:#262626;" transform="translate(22.050625 115.381553)scale(0.12 -0.12)">
       <use xlink:href="#DejaVuSans-2212"/>
       <use x="83.789062" xlink:href="#DejaVuSans-30"/>
       <use x="147.412109" xlink:href="#DejaVuSans-2e"/>
       <use x="179.199219" xlink:href="#DejaVuSans-38"/>
       <use x="242.822266" xlink:href="#DejaVuSans-30"/>
       <use x="306.445312" xlink:href="#DejaVuSans-30"/>
      </g>
     </g>
    </g>
    <g id="ytick_5">
     <g id="line2d_10">
      <g>
       <use style="fill:#262626;stroke:#262626;" x="74.76" xlink:href="#m15ebde7661" y="81.776122"/>
      </g>
     </g>
     <g id="text_11">
      <!-- −0.775 -->
      <g style="fill:#262626;" transform="translate(22.050625 86.335184)scale(0.12 -0.12)">
       <use xlink:href="#DejaVuSans-2212"/>
       <use x="83.789062" xlink:href="#DejaVuSans-30"/>
       <use x="147.412109" xlink:href="#DejaVuSans-2e"/>
       <use x="179.199219" xlink:href="#DejaVuSans-37"/>
       <use x="242.822266" xlink:href="#DejaVuSans-37"/>
       <use x="306.445312" xlink:href="#DejaVuSans-35"/>
      </g>
     </g>
    </g>
    <g id="ytick_6">
     <g id="line2d_11">
      <g>
       <use style="fill:#262626;stroke:#262626;" x="74.76" xlink:href="#m15ebde7661" y="52.729753"/>
      </g>
     </g>
     <g id="text_12">
      <!-- −0.750 -->
      <g style="fill:#262626;" transform="translate(22.050625 57.288815)scale(0.12 -0.12)">
       <use xlink:href="#DejaVuSans-2212"/>
       <use x="83.789062" xlink:href="#DejaVuSans-30"/>
       <use x="147.412109" xlink:href="#DejaVuSans-2e"/>
       <use x="179.199219" xlink:href="#DejaVuSans-37"/>
       <use x="242.822266" xlink:href="#DejaVuSans-35"/>
       <use x="306.445312" xlink:href="#DejaVuSans-30"/>
      </g>
     </g>
    </g>
    <g id="ytick_7">
     <g id="line2d_12">
      <g>
       <use style="fill:#262626;stroke:#262626;" x="74.76" xlink:href="#m15ebde7661" y="23.683384"/>
      </g>
     </g>
     <g id="text_13">
      <!-- −0.725 -->
      <g style="fill:#262626;" transform="translate(22.050625 28.242446)scale(0.12 -0.12)">
       <use xlink:href="#DejaVuSans-2212"/>
       <use x="83.789062" xlink:href="#DejaVuSans-30"/>
       <use x="147.412109" xlink:href="#DejaVuSans-2e"/>
       <use x="179.199219" xlink:href="#DejaVuSans-37"/>
       <use x="242.822266" xlink:href="#DejaVuSans-32"/>
       <use x="306.445312" xlink:href="#DejaVuSans-35"/>
      </g>
     </g>
    </g>
    <g id="text_14">
     <!-- CC AB -->
     <g style="fill:#262626;" transform="translate(15.555 126.43925)rotate(-90)scale(0.12 -0.12)">
      <defs>
       <path d="M 4122 4306 
L 4122 3641 
Q 3803 3938 3442 4084 
Q 3081 4231 2675 4231 
Q 1875 4231 1450 3742 
Q 1025 3253 1025 2328 
Q 1025 1406 1450 917 
Q 1875 428 2675 428 
Q 3081 428 3442 575 
Q 3803 722 4122 1019 
L 4122 359 
Q 3791 134 3420 21 
Q 3050 -91 2638 -91 
Q 1578 -91 968 557 
Q 359 1206 359 2328 
Q 359 3453 968 4101 
Q 1578 4750 2638 4750 
Q 3056 4750 3426 4639 
Q 3797 4528 4122 4306 
z
" id="DejaVuSans-43" transform="scale(0.015625)"/>
       <path id="DejaVuSans-20" transform="scale(0.015625)"/>
      </defs>
      <use xlink:href="#DejaVuSans-43"/>
      <use x="69.824219" xlink:href="#DejaVuSans-43"/>
      <use x="139.648438" xlink:href="#DejaVuSans-20"/>
      <use x="171.435547" xlink:href="#DejaVuSans-41"/>
      <use x="239.84375" xlink:href="#DejaVuSans-42"/>
     </g>
    </g>
   </g>
   <g id="PathCollection_1">
    <path clip-path="url(#pb2fe79f925)" d="M 200.09992 151.09526 
L 201.69992 151.09526 
L 201.69992 149.49526 
L 203.29992 149.49526 
L 203.29992 147.89526 
L 201.69992 147.89526 
L 201.69992 146.29526 
L 200.09992 146.29526 
L 200.09992 147.89526 
L 198.49992 147.89526 
L 198.49992 149.49526 
L 200.09992 149.49526 
z
" style="fill:#4c72b0;stroke:#ffffff;stroke-width:0.384;"/>
    <path clip-path="url(#pb2fe79f925)" d="M 150.399879 142.92827 
L 151.999879 142.92827 
L 151.999879 141.32827 
L 153.599879 141.32827 
L 153.599879 139.72827 
L 151.999879 139.72827 
L 151.999879 138.12827 
L 150.399879 138.12827 
L 150.399879 139.72827 
L 148.799879 139.72827 
L 148.799879 141.32827 
L 150.399879 141.32827 
z
" style="fill:#4c72b0;stroke:#ffffff;stroke-width:0.384;"/>
    <path clip-path="url(#pb2fe79f925)" d="M 150.399879 138.012801 
L 151.999879 138.012801 
L 151.999879 136.412801 
L 153.599879 136.412801 
L 153.599879 134.812801 
L 151.999879 134.812801 
L 151.999879 133.212801 
L 150.399879 133.212801 
L 150.399879 134.812801 
L 148.799879 134.812801 
L 148.799879 136.412801 
L 150.399879 136.412801 
z
" style="fill:#4c72b0;stroke:#ffffff;stroke-width:0.384;"/>
    <path clip-path="url(#pb2fe79f925)" d="M 200.09992 148.571522 
L 201.69992 148.571522 
L 201.69992 146.971522 
L 203.29992 146.971522 
L 203.29992 145.371522 
L 201.69992 145.371522 
L 201.69992 143.771522 
L 200.09992 143.771522 
L 200.09992 145.371522 
L 198.49992 145.371522 
L 198.49992 146.971522 
L 200.09992 146.971522 
z
" style="fill:#4c72b0;stroke:#ffffff;stroke-width:0.384;"/>
    <path clip-path="url(#pb2fe79f925)" d="M 200.09992 134.899832 
L 201.69992 134.899832 
L 201.69992 133.299832 
L 203.29992 133.299832 
L 203.29992 131.699832 
L 201.69992 131.699832 
L 201.69992 130.099832 
L 200.09992 130.099832 
L 200.09992 131.699832 
L 198.49992 131.699832 
L 198.49992 133.299832 
L 200.09992 133.299832 
z
" style="fill:#4c72b0;stroke:#ffffff;stroke-width:0.384;"/>
    <path clip-path="url(#pb2fe79f925)" d="M 150.399879 137.628936 
L 151.999879 137.628936 
L 151.999879 136.028936 
L 153.599879 136.028936 
L 153.599879 134.428936 
L 151.999879 134.428936 
L 151.999879 132.828936 
L 150.399879 132.828936 
L 150.399879 134.428936 
L 148.799879 134.428936 
L 148.799879 136.028936 
L 150.399879 136.028936 
z
" style="fill:#4c72b0;stroke:#ffffff;stroke-width:0.384;"/>
    <path clip-path="url(#pb2fe79f925)" d="M 229.172579 140.952391 
L 230.772579 140.952391 
L 230.772579 139.352391 
L 232.372579 139.352391 
L 232.372579 137.752391 
L 230.772579 137.752391 
L 230.772579 136.152391 
L 229.172579 136.152391 
L 229.172579 137.752391 
L 227.572579 137.752391 
L 227.572579 139.352391 
L 229.172579 139.352391 
z
" style="fill:#4c72b0;stroke:#ffffff;stroke-width:0.384;"/>
    <path clip-path="url(#pb2fe79f925)" d="M 171.02726 142.582252 
L 172.62726 142.582252 
L 172.62726 140.982252 
L 174.22726 140.982252 
L 174.22726 139.382252 
L 172.62726 139.382252 
L 172.62726 137.782252 
L 171.02726 137.782252 
L 171.02726 139.382252 
L 169.42726 139.382252 
L 169.42726 140.982252 
L 171.02726 140.982252 
z
" style="fill:#4c72b0;stroke:#ffffff;stroke-width:0.384;"/>
    <path clip-path="url(#pb2fe79f925)" d="M 200.09992 155.436448 
L 201.69992 155.436448 
L 201.69992 153.836448 
L 203.29992 153.836448 
L 203.29992 152.236448 
L 201.69992 152.236448 
L 201.69992 150.636448 
L 200.09992 150.636448 
L 200.09992 152.236448 
L 198.49992 152.236448 
L 198.49992 153.836448 
L 200.09992 153.836448 
z
" style="fill:#4c72b0;stroke:#ffffff;stroke-width:0.384;"/>
    <path clip-path="url(#pb2fe79f925)" d="M 200.09992 160.319474 
L 201.69992 160.319474 
L 201.69992 158.719474 
L 203.29992 158.719474 
L 203.29992 157.119474 
L 201.69992 157.119474 
L 201.69992 155.519474 
L 200.09992 155.519474 
L 200.09992 157.119474 
L 198.49992 157.119474 
L 198.49992 158.719474 
L 200.09992 158.719474 
z
" style="fill:#4c72b0;stroke:#ffffff;stroke-width:0.384;"/>
    <path clip-path="url(#pb2fe79f925)" d="M 171.02726 115.743999 
L 172.62726 115.743999 
L 172.62726 114.143999 
L 174.22726 114.143999 
L 174.22726 112.543999 
L 172.62726 112.543999 
L 172.62726 110.943999 
L 171.02726 110.943999 
L 171.02726 112.543999 
L 169.42726 112.543999 
L 169.42726 114.143999 
L 171.02726 114.143999 
z
" style="fill:#4c72b0;stroke:#ffffff;stroke-width:0.384;"/>
    <path clip-path="url(#pb2fe79f925)" d="M 150.399879 152.475533 
L 151.999879 152.475533 
L 151.999879 150.875533 
L 153.599879 150.875533 
L 153.599879 149.275533 
L 151.999879 149.275533 
L 151.999879 147.675533 
L 150.399879 147.675533 
L 150.399879 149.275533 
L 148.799879 149.275533 
L 148.799879 150.875533 
L 150.399879 150.875533 
z
" style="fill:#4c72b0;stroke:#ffffff;stroke-width:0.384;"/>
    <path clip-path="url(#pb2fe79f925)" d="M 200.09992 157.422797 
L 201.69992 157.422797 
L 201.69992 155.822797 
L 203.29992 155.822797 
L 203.29992 154.222797 
L 201.69992 154.222797 
L 201.69992 152.622797 
L 200.09992 152.622797 
L 200.09992 154.222797 
L 198.49992 154.222797 
L 198.49992 155.822797 
L 200.09992 155.822797 
z
" style="fill:#4c72b0;stroke:#ffffff;stroke-width:0.384;"/>
    <path clip-path="url(#pb2fe79f925)" d="M 150.399879 169.159903 
L 151.999879 169.159903 
L 151.999879 167.559903 
L 153.599879 167.559903 
L 153.599879 165.959903 
L 151.999879 165.959903 
L 151.999879 164.359903 
L 150.399879 164.359903 
L 150.399879 165.959903 
L 148.799879 165.959903 
L 148.799879 167.559903 
L 150.399879 167.559903 
z
" style="fill:#4c72b0;stroke:#ffffff;stroke-width:0.384;"/>
    <path clip-path="url(#pb2fe79f925)" d="M 278.87262 169.261454 
L 280.47262 169.261454 
L 280.47262 167.661454 
L 282.07262 167.661454 
L 282.07262 166.061454 
L 280.47262 166.061454 
L 280.47262 164.461454 
L 278.87262 164.461454 
L 278.87262 166.061454 
L 277.27262 166.061454 
L 277.27262 167.661454 
L 278.87262 167.661454 
z
" style="fill:#4c72b0;stroke:#ffffff;stroke-width:0.384;"/>
    <path clip-path="url(#pb2fe79f925)" d="M 171.02726 83.63721 
L 172.62726 83.63721 
L 172.62726 82.03721 
L 174.22726 82.03721 
L 174.22726 80.43721 
L 172.62726 80.43721 
L 172.62726 78.83721 
L 171.02726 78.83721 
L 171.02726 80.43721 
L 169.42726 80.43721 
L 169.42726 82.03721 
L 171.02726 82.03721 
z
" style="fill:#4c72b0;stroke:#ffffff;stroke-width:0.384;"/>
    <path clip-path="url(#pb2fe79f925)" d="M 200.09992 155.276026 
L 201.69992 155.276026 
L 201.69992 153.676026 
L 203.29992 153.676026 
L 203.29992 152.076026 
L 201.69992 152.076026 
L 201.69992 150.476026 
L 200.09992 150.476026 
L 200.09992 152.076026 
L 198.49992 152.076026 
L 198.49992 153.676026 
L 200.09992 153.676026 
z
" style="fill:#4c72b0;stroke:#ffffff;stroke-width:0.384;"/>
    <path clip-path="url(#pb2fe79f925)" d="M 278.87262 162.227083 
L 280.47262 162.227083 
L 280.47262 160.627083 
L 282.07262 160.627083 
L 282.07262 159.027083 
L 280.47262 159.027083 
L 280.47262 157.427083 
L 278.87262 157.427083 
L 278.87262 159.027083 
L 277.27262 159.027083 
L 277.27262 160.627083 
L 278.87262 160.627083 
z
" style="fill:#4c72b0;stroke:#ffffff;stroke-width:0.384;"/>
    <path clip-path="url(#pb2fe79f925)" d="M 150.399879 143.898382 
L 151.999879 143.898382 
L 151.999879 142.298382 
L 153.599879 142.298382 
L 153.599879 140.698382 
L 151.999879 140.698382 
L 151.999879 139.098382 
L 150.399879 139.098382 
L 150.399879 140.698382 
L 148.799879 140.698382 
L 148.799879 142.298382 
L 150.399879 142.298382 
z
" style="fill:#4c72b0;stroke:#ffffff;stroke-width:0.384;"/>
    <path clip-path="url(#pb2fe79f925)" d="M 229.172579 161.483832 
L 230.772579 161.483832 
L 230.772579 159.883832 
L 232.372579 159.883832 
L 232.372579 158.283832 
L 230.772579 158.283832 
L 230.772579 156.683832 
L 229.172579 156.683832 
L 229.172579 158.283832 
L 227.572579 158.283832 
L 227.572579 159.883832 
L 229.172579 159.883832 
z
" style="fill:#4c72b0;stroke:#ffffff;stroke-width:0.384;"/>
    <path clip-path="url(#pb2fe79f925)" d="M 150.399879 180.385954 
L 151.999879 180.385954 
L 151.999879 178.785954 
L 153.599879 178.785954 
L 153.599879 177.185954 
L 151.999879 177.185954 
L 151.999879 175.585954 
L 150.399879 175.585954 
L 150.399879 177.185954 
L 148.799879 177.185954 
L 148.799879 178.785954 
L 150.399879 178.785954 
z
" style="fill:#4c72b0;stroke:#ffffff;stroke-width:0.384;"/>
    <path clip-path="url(#pb2fe79f925)" d="M 150.399879 160.657169 
L 151.999879 160.657169 
L 151.999879 159.057169 
L 153.599879 159.057169 
L 153.599879 157.457169 
L 151.999879 157.457169 
L 151.999879 155.857169 
L 150.399879 155.857169 
L 150.399879 157.457169 
L 148.799879 157.457169 
L 148.799879 159.057169 
L 150.399879 159.057169 
z
" style="fill:#4c72b0;stroke:#ffffff;stroke-width:0.384;"/>
    <path clip-path="url(#pb2fe79f925)" d="M 200.09992 148.233705 
L 201.69992 148.233705 
L 201.69992 146.633705 
L 203.29992 146.633705 
L 203.29992 145.033705 
L 201.69992 145.033705 
L 201.69992 143.433705 
L 200.09992 143.433705 
L 200.09992 145.033705 
L 198.49992 145.033705 
L 198.49992 146.633705 
L 200.09992 146.633705 
z
" style="fill:#4c72b0;stroke:#ffffff;stroke-width:0.384;"/>
    <path clip-path="url(#pb2fe79f925)" d="M 150.399879 176.453558 
L 151.999879 176.453558 
L 151.999879 174.853558 
L 153.599879 174.853558 
L 153.599879 173.253558 
L 151.999879 173.253558 
L 151.999879 171.653558 
L 150.399879 171.653558 
L 150.399879 173.253558 
L 148.799879 173.253558 
L 148.799879 174.853558 
L 150.399879 174.853558 
z
" style="fill:#4c72b0;stroke:#ffffff;stroke-width:0.384;"/>
    <path clip-path="url(#pb2fe79f925)" d="M 171.02726 112.130242 
L 172.62726 112.130242 
L 172.62726 110.530242 
L 174.22726 110.530242 
L 174.22726 108.930242 
L 172.62726 108.930242 
L 172.62726 107.330242 
L 171.02726 107.330242 
L 171.02726 108.930242 
L 169.42726 108.930242 
L 169.42726 110.530242 
L 171.02726 110.530242 
z
" style="fill:#4c72b0;stroke:#ffffff;stroke-width:0.384;"/>
    <path clip-path="url(#pb2fe79f925)" d="M 229.972579 90.223156 
C 230.609067 90.223156 231.219571 89.970276 231.669636 89.520212 
C 232.1197 89.070147 232.372579 88.459643 232.372579 87.823156 
C 232.372579 87.186668 232.1197 86.576164 231.669636 86.126099 
C 231.219571 85.676035 230.609067 85.423156 229.972579 85.423156 
C 229.336092 85.423156 228.725588 85.676035 228.275523 86.126099 
C 227.825459 86.576164 227.572579 87.186668 227.572579 87.823156 
C 227.572579 88.459643 227.825459 89.070147 228.275523 89.520212 
C 228.725588 89.970276 229.336092 90.223156 229.972579 90.223156 
z
" style="fill:#c44e52;stroke:#ffffff;stroke-width:0.384;"/>
    <path clip-path="url(#pb2fe79f925)" d="M 250.59996 159.046895 
C 251.236447 159.046895 251.846952 158.794016 252.297016 158.343952 
C 252.747081 157.893887 252.99996 157.283383 252.99996 156.646895 
C 252.99996 156.010408 252.747081 155.399904 252.297016 154.949839 
C 251.846952 154.499775 251.236447 154.246895 250.59996 154.246895 
C 249.963472 154.246895 249.352968 154.499775 248.902904 154.949839 
C 248.452839 155.399904 248.19996 156.010408 248.19996 156.646895 
C 248.19996 157.283383 248.452839 157.893887 248.902904 158.343952 
C 249.352968 158.794016 249.963472 159.046895 250.59996 159.046895 
z
" style="fill:#c44e52;stroke:#ffffff;stroke-width:0.384;"/>
    <path clip-path="url(#pb2fe79f925)" d="M 200.89992 148.304093 
C 201.536407 148.304093 202.146911 148.051214 202.596976 147.60115 
C 203.04704 147.151085 203.29992 146.540581 203.29992 145.904093 
C 203.29992 145.267606 203.04704 144.657102 202.596976 144.207037 
C 202.146911 143.756972 201.536407 143.504093 200.89992 143.504093 
C 200.263432 143.504093 199.652928 143.756972 199.202863 144.207037 
C 198.752799 144.657102 198.49992 145.267606 198.49992 145.904093 
C 198.49992 146.540581 198.752799 147.151085 199.202863 147.60115 
C 199.652928 148.051214 200.263432 148.304093 200.89992 148.304093 
z
" style="fill:#c44e52;stroke:#ffffff;stroke-width:0.384;"/>
    <path clip-path="url(#pb2fe79f925)" d="M 200.89992 141.950993 
C 201.536407 141.950993 202.146911 141.698114 202.596976 141.248049 
C 203.04704 140.797985 203.29992 140.18748 203.29992 139.550993 
C 203.29992 138.914506 203.04704 138.304001 202.596976 137.853937 
C 202.146911 137.403872 201.536407 137.150993 200.89992 137.150993 
C 200.263432 137.150993 199.652928 137.403872 199.202863 137.853937 
C 198.752799 138.304001 198.49992 138.914506 198.49992 139.550993 
C 198.49992 140.18748 198.752799 140.797985 199.202863 141.248049 
C 199.652928 141.698114 200.263432 141.950993 200.89992 141.950993 
z
" style="fill:#c44e52;stroke:#ffffff;stroke-width:0.384;"/>
    <path clip-path="url(#pb2fe79f925)" d="M 200.89992 109.419236 
C 201.536407 109.419236 202.146911 109.166357 202.596976 108.716293 
C 203.04704 108.266228 203.29992 107.655724 203.29992 107.019236 
C 203.29992 106.382749 203.04704 105.772245 202.596976 105.32218 
C 202.146911 104.872115 201.536407 104.619236 200.89992 104.619236 
C 200.263432 104.619236 199.652928 104.872115 199.202863 105.32218 
C 198.752799 105.772245 198.49992 106.382749 198.49992 107.019236 
C 198.49992 107.655724 198.752799 108.266228 199.202863 108.716293 
C 199.652928 109.166357 200.263432 109.419236 200.89992 109.419236 
z
" style="fill:#c44e52;stroke:#ffffff;stroke-width:0.384;"/>
    <path clip-path="url(#pb2fe79f925)" d="M 151.199879 145.752819 
C 151.836367 145.752819 152.446871 145.49994 152.896936 145.049875 
C 153.347 144.59981 153.599879 143.989306 153.599879 143.352819 
C 153.599879 142.716331 153.347 142.105827 152.896936 141.655762 
C 152.446871 141.205698 151.836367 140.952819 151.199879 140.952819 
C 150.563392 140.952819 149.952888 141.205698 149.502823 141.655762 
C 149.052759 142.105827 148.799879 142.716331 148.799879 143.352819 
C 148.799879 143.989306 149.052759 144.59981 149.502823 145.049875 
C 149.952888 145.49994 150.563392 145.752819 151.199879 145.752819 
z
" style="fill:#c44e52;stroke:#ffffff;stroke-width:0.384;"/>
    <path clip-path="url(#pb2fe79f925)" d="M 122.12722 167.187805 
C 122.763707 167.187805 123.374211 166.934926 123.824276 166.484861 
C 124.274341 166.034796 124.52722 165.424292 124.52722 164.787805 
C 124.52722 164.151317 124.274341 163.540813 123.824276 163.090748 
C 123.374211 162.640684 122.763707 162.387805 122.12722 162.387805 
C 121.490732 162.387805 120.880228 162.640684 120.430163 163.090748 
C 119.980099 163.540813 119.72722 164.151317 119.72722 164.787805 
C 119.72722 165.424292 119.980099 166.034796 120.430163 166.484861 
C 120.880228 166.934926 121.490732 167.187805 122.12722 167.187805 
z
" style="fill:#c44e52;stroke:#ffffff;stroke-width:0.384;"/>
    <path clip-path="url(#pb2fe79f925)" d="M 229.972579 166.268151 
C 230.609067 166.268151 231.219571 166.015272 231.669636 165.565208 
C 232.1197 165.115143 232.372579 164.504639 232.372579 163.868151 
C 232.372579 163.231664 232.1197 162.62116 231.669636 162.171095 
C 231.219571 161.72103 230.609067 161.468151 229.972579 161.468151 
C 229.336092 161.468151 228.725588 161.72103 228.275523 162.171095 
C 227.825459 162.62116 227.572579 163.231664 227.572579 163.868151 
C 227.572579 164.504639 227.825459 165.115143 228.275523 165.565208 
C 228.725588 166.015272 229.336092 166.268151 229.972579 166.268151 
z
" style="fill:#c44e52;stroke:#ffffff;stroke-width:0.384;"/>
    <path clip-path="url(#pb2fe79f925)" d="M 171.82726 194.775642 
C 172.463747 194.775642 173.074252 194.522763 173.524316 194.072698 
C 173.974381 193.622634 174.22726 193.012129 174.22726 192.375642 
C 174.22726 191.739155 173.974381 191.12865 173.524316 190.678586 
C 173.074252 190.228521 172.463747 189.975642 171.82726 189.975642 
C 171.190772 189.975642 170.580268 190.228521 170.130204 190.678586 
C 169.680139 191.12865 169.42726 191.739155 169.42726 192.375642 
C 169.42726 193.012129 169.680139 193.622634 170.130204 194.072698 
C 170.580268 194.522763 171.190772 194.775642 171.82726 194.775642 
z
" style="fill:#c44e52;stroke:#ffffff;stroke-width:0.384;"/>
    <path clip-path="url(#pb2fe79f925)" d="M 200.89992 25.888483 
C 201.536407 25.888483 202.146911 25.635604 202.596976 25.185539 
C 203.04704 24.735475 203.29992 24.12497 203.29992 23.488483 
C 203.29992 22.851996 203.04704 22.241491 202.596976 21.791427 
C 202.146911 21.341362 201.536407 21.088483 200.89992 21.088483 
C 200.263432 21.088483 199.652928 21.341362 199.202863 21.791427 
C 198.752799 22.241491 198.49992 22.851996 198.49992 23.488483 
C 198.49992 24.12497 198.752799 24.735475 199.202863 25.185539 
C 199.652928 25.635604 200.263432 25.888483 200.89992 25.888483 
z
" style="fill:#8172b3;stroke:#ffffff;stroke-width:0.384;"/>
    <path clip-path="url(#pb2fe79f925)" d="M 151.199879 161.194247 
C 151.836367 161.194247 152.446871 160.941368 152.896936 160.491303 
C 153.347 160.041239 153.599879 159.430735 153.599879 158.794247 
C 153.599879 158.15776 153.347 157.547256 152.896936 157.097191 
C 152.446871 156.647126 151.836367 156.394247 151.199879 156.394247 
C 150.563392 156.394247 149.952888 156.647126 149.502823 157.097191 
C 149.052759 157.547256 148.799879 158.15776 148.799879 158.794247 
C 148.799879 159.430735 149.052759 160.041239 149.502823 160.491303 
C 149.952888 160.941368 150.563392 161.194247 151.199879 161.194247 
z
" style="fill:#8172b3;stroke:#ffffff;stroke-width:0.384;"/>
    <path clip-path="url(#pb2fe79f925)" d="M 266.599799 167.680843 
C 267.236287 167.680843 267.846791 167.427963 268.296855 166.977899 
C 268.74692 166.527834 268.999799 165.91733 268.999799 165.280843 
C 268.999799 164.644355 268.74692 164.033851 268.296855 163.583786 
C 267.846791 163.133722 267.236287 162.880843 266.599799 162.880843 
C 265.963312 162.880843 265.352807 163.133722 264.902743 163.583786 
C 264.452678 164.033851 264.199799 164.644355 264.199799 165.280843 
C 264.199799 165.91733 264.452678 166.527834 264.902743 166.977899 
C 265.352807 167.427963 265.963312 167.680843 266.599799 167.680843 
z
" style="fill:#8172b3;stroke:#ffffff;stroke-width:0.384;"/>
    <path clip-path="url(#pb2fe79f925)" d="M 250.59996 147.273692 
C 251.236447 147.273692 251.846952 147.020813 252.297016 146.570749 
C 252.747081 146.120684 252.99996 145.51018 252.99996 144.873692 
C 252.99996 144.237205 252.747081 143.626701 252.297016 143.176636 
C 251.846952 142.726571 251.236447 142.473692 250.59996 142.473692 
C 249.963472 142.473692 249.352968 142.726571 248.902904 143.176636 
C 248.452839 143.626701 248.19996 144.237205 248.19996 144.873692 
C 248.19996 145.51018 248.452839 146.120684 248.902904 146.570749 
C 249.352968 147.020813 249.963472 147.273692 250.59996 147.273692 
z
" style="fill:#55a868;stroke:#ffffff;stroke-width:0.384;"/>
    <path clip-path="url(#pb2fe79f925)" d="M 151.199879 163.300483 
C 151.836367 163.300483 152.446871 163.047603 152.896936 162.597539 
C 153.347 162.147474 153.599879 161.53697 153.599879 160.900483 
C 153.599879 160.263995 153.347 159.653491 152.896936 159.203426 
C 152.446871 158.753362 151.836367 158.500483 151.199879 158.500483 
C 150.563392 158.500483 149.952888 158.753362 149.502823 159.203426 
C 149.052759 159.653491 148.799879 160.263995 148.799879 160.900483 
C 148.799879 161.53697 149.052759 162.147474 149.502823 162.597539 
C 149.952888 163.047603 150.563392 163.300483 151.199879 163.300483 
z
" style="fill:#55a868;stroke:#ffffff;stroke-width:0.384;"/>
    <path clip-path="url(#pb2fe79f925)" d="M 250.59996 125.523487 
C 251.236447 125.523487 251.846952 125.270608 252.297016 124.820543 
C 252.747081 124.370479 252.99996 123.759975 252.99996 123.123487 
C 252.99996 122.487 252.747081 121.876495 252.297016 121.426431 
C 251.846952 120.976366 251.236447 120.723487 250.59996 120.723487 
C 249.963472 120.723487 249.352968 120.976366 248.902904 121.426431 
C 248.452839 121.876495 248.19996 122.487 248.19996 123.123487 
C 248.19996 123.759975 248.452839 124.370479 248.902904 124.820543 
C 249.352968 125.270608 249.963472 125.523487 250.59996 125.523487 
z
" style="fill:#55a868;stroke:#ffffff;stroke-width:0.384;"/>
    <path clip-path="url(#pb2fe79f925)" d="M 200.89992 151.314736 
C 201.536407 151.314736 202.146911 151.061857 202.596976 150.611792 
C 203.04704 150.161727 203.29992 149.551223 203.29992 148.914736 
C 203.29992 148.278248 203.04704 147.667744 202.596976 147.217679 
C 202.146911 146.767615 201.536407 146.514736 200.89992 146.514736 
C 200.263432 146.514736 199.652928 146.767615 199.202863 147.217679 
C 198.752799 147.667744 198.49992 148.278248 198.49992 148.914736 
C 198.49992 149.551223 198.752799 150.161727 199.202863 150.611792 
C 199.652928 151.061857 200.263432 151.314736 200.89992 151.314736 
z
" style="fill:#55a868;stroke:#ffffff;stroke-width:0.384;"/>
    <path clip-path="url(#pb2fe79f925)" d="M 250.59996 160.961234 
C 251.236447 160.961234 251.846952 160.708354 252.297016 160.25829 
C 252.747081 159.808225 252.99996 159.197721 252.99996 158.561234 
C 252.99996 157.924746 252.747081 157.314242 252.297016 156.864177 
C 251.846952 156.414113 251.236447 156.161234 250.59996 156.161234 
C 249.963472 156.161234 249.352968 156.414113 248.902904 156.864177 
C 248.452839 157.314242 248.19996 157.924746 248.19996 158.561234 
C 248.19996 159.197721 248.452839 159.808225 248.902904 160.25829 
C 249.352968 160.708354 249.963472 160.961234 250.59996 160.961234 
z
" style="fill:#55a868;stroke:#ffffff;stroke-width:0.384;"/>
    <path clip-path="url(#pb2fe79f925)" d="M 200.89992 141.539393 
C 201.536407 141.539393 202.146911 141.286514 202.596976 140.836449 
C 203.04704 140.386385 203.29992 139.775881 203.29992 139.139393 
C 203.29992 138.502906 203.04704 137.892401 202.596976 137.442337 
C 202.146911 136.992272 201.536407 136.739393 200.89992 136.739393 
C 200.263432 136.739393 199.652928 136.992272 199.202863 137.442337 
C 198.752799 137.892401 198.49992 138.502906 198.49992 139.139393 
C 198.49992 139.775881 198.752799 140.386385 199.202863 140.836449 
C 199.652928 141.286514 200.263432 141.539393 200.89992 141.539393 
z
" style="fill:#55a868;stroke:#ffffff;stroke-width:0.384;"/>
    <path clip-path="url(#pb2fe79f925)" d="M 200.89992 85.850152 
C 201.536407 85.850152 202.146911 85.597273 202.596976 85.147209 
C 203.04704 84.697144 203.29992 84.08664 203.29992 83.450152 
C 203.29992 82.813665 203.04704 82.203161 202.596976 81.753096 
C 202.146911 81.303031 201.536407 81.050152 200.89992 81.050152 
C 200.263432 81.050152 199.652928 81.303031 199.202863 81.753096 
C 198.752799 82.203161 198.49992 82.813665 198.49992 83.450152 
C 198.49992 84.08664 198.752799 84.697144 199.202863 85.147209 
C 199.652928 85.597273 200.263432 85.850152 200.89992 85.850152 
z
" style="fill:#55a868;stroke:#ffffff;stroke-width:0.384;"/>
    <path clip-path="url(#pb2fe79f925)" d="M 200.89992 57.133338 
C 201.536407 57.133338 202.146911 56.880459 202.596976 56.430394 
C 203.04704 55.980329 203.29992 55.369825 203.29992 54.733338 
C 203.29992 54.09685 203.04704 53.486346 202.596976 53.036281 
C 202.146911 52.586217 201.536407 52.333338 200.89992 52.333338 
C 200.263432 52.333338 199.652928 52.586217 199.202863 53.036281 
C 198.752799 53.486346 198.49992 54.09685 198.49992 54.733338 
C 198.49992 55.369825 198.752799 55.980329 199.202863 56.430394 
C 199.652928 56.880459 200.263432 57.133338 200.89992 57.133338 
z
" style="fill:#55a868;stroke:#ffffff;stroke-width:0.384;"/>
    <path clip-path="url(#pb2fe79f925)" d="M 200.89992 69.031617 
C 201.536407 69.031617 202.146911 68.778738 202.596976 68.328674 
C 203.04704 67.878609 203.29992 67.268105 203.29992 66.631617 
C 203.29992 65.99513 203.04704 65.384626 202.596976 64.934561 
C 202.146911 64.484496 201.536407 64.231617 200.89992 64.231617 
C 200.263432 64.231617 199.652928 64.484496 199.202863 64.934561 
C 198.752799 65.384626 198.49992 65.99513 198.49992 66.631617 
C 198.49992 67.268105 198.752799 67.878609 199.202863 68.328674 
C 199.652928 68.778738 200.263432 69.031617 200.89992 69.031617 
z
" style="fill:#55a868;stroke:#ffffff;stroke-width:0.384;"/>
    <path clip-path="url(#pb2fe79f925)" d="M 200.89992 44.040678 
C 201.536407 44.040678 202.146911 43.787799 202.596976 43.337734 
C 203.04704 42.88767 203.29992 42.277165 203.29992 41.640678 
C 203.29992 41.004191 203.04704 40.393686 202.596976 39.943622 
C 202.146911 39.493557 201.536407 39.240678 200.89992 39.240678 
C 200.263432 39.240678 199.652928 39.493557 199.202863 39.943622 
C 198.752799 40.393686 198.49992 41.004191 198.49992 41.640678 
C 198.49992 42.277165 198.752799 42.88767 199.202863 43.337734 
C 199.652928 43.787799 200.263432 44.040678 200.89992 44.040678 
z
" style="fill:#55a868;stroke:#ffffff;stroke-width:0.384;"/>
    <path clip-path="url(#pb2fe79f925)" d="M 250.59996 158.588667 
C 251.236447 158.588667 251.846952 158.335787 252.297016 157.885723 
C 252.747081 157.435658 252.99996 156.825154 252.99996 156.188667 
C 252.99996 155.552179 252.747081 154.941675 252.297016 154.49161 
C 251.846952 154.041546 251.236447 153.788667 250.59996 153.788667 
C 249.963472 153.788667 249.352968 154.041546 248.902904 154.49161 
C 248.452839 154.941675 248.19996 155.552179 248.19996 156.188667 
C 248.19996 156.825154 248.452839 157.435658 248.902904 157.885723 
C 249.352968 158.335787 249.963472 158.588667 250.59996 158.588667 
z
" style="fill:#55a868;stroke:#ffffff;stroke-width:0.384;"/>
    <path clip-path="url(#pb2fe79f925)" d="M 200.89992 148.759719 
C 201.536407 148.759719 202.146911 148.50684 202.596976 148.056775 
C 203.04704 147.606711 203.29992 146.996206 203.29992 146.359719 
C 203.29992 145.723231 203.04704 145.112727 202.596976 144.662663 
C 202.146911 144.212598 201.536407 143.959719 200.89992 143.959719 
C 200.263432 143.959719 199.652928 144.212598 199.202863 144.662663 
C 198.752799 145.112727 198.49992 145.723231 198.49992 146.359719 
C 198.49992 146.996206 198.752799 147.606711 199.202863 148.056775 
C 199.652928 148.50684 200.263432 148.759719 200.89992 148.759719 
z
" style="fill:#55a868;stroke:#ffffff;stroke-width:0.384;"/>
    <path clip-path="url(#pb2fe79f925)" d="M 151.199879 147.246219 
C 151.836367 147.246219 152.446871 146.99334 152.896936 146.543275 
C 153.347 146.09321 153.599879 145.482706 153.599879 144.846219 
C 153.599879 144.209731 153.347 143.599227 152.896936 143.149163 
C 152.446871 142.699098 151.836367 142.446219 151.199879 142.446219 
C 150.563392 142.446219 149.952888 142.699098 149.502823 143.149163 
C 149.052759 143.599227 148.799879 144.209731 148.799879 144.846219 
C 148.799879 145.482706 149.052759 146.09321 149.502823 146.543275 
C 149.952888 146.99334 150.563392 147.246219 151.199879 147.246219 
z
" style="fill:#55a868;stroke:#ffffff;stroke-width:0.384;"/>
    <path clip-path="url(#pb2fe79f925)" d="M 250.59996 115.05767 
C 251.236447 115.05767 251.846952 114.804791 252.297016 114.354727 
C 252.747081 113.904662 252.99996 113.294158 252.99996 112.65767 
C 252.99996 112.021183 252.747081 111.410679 252.297016 110.960614 
C 251.846952 110.51055 251.236447 110.25767 250.59996 110.25767 
C 249.963472 110.25767 249.352968 110.51055 248.902904 110.960614 
C 248.452839 111.410679 248.19996 112.021183 248.19996 112.65767 
C 248.19996 113.294158 248.452839 113.904662 248.902904 114.354727 
C 249.352968 114.804791 249.963472 115.05767 250.59996 115.05767 
z
" style="fill:#55a868;stroke:#ffffff;stroke-width:0.384;"/>
    <path clip-path="url(#pb2fe79f925)" d="M 200.89992 142.776993 
C 201.536407 142.776993 202.146911 142.524114 202.596976 142.07405 
C 203.04704 141.623985 203.29992 141.013481 203.29992 140.376993 
C 203.29992 139.740506 203.04704 139.130002 202.596976 138.679937 
C 202.146911 138.229872 201.536407 137.976993 200.89992 137.976993 
C 200.263432 137.976993 199.652928 138.229872 199.202863 138.679937 
C 198.752799 139.130002 198.49992 139.740506 198.49992 140.376993 
C 198.49992 141.013481 198.752799 141.623985 199.202863 142.07405 
C 199.652928 142.524114 200.263432 142.776993 200.89992 142.776993 
z
" style="fill:#55a868;stroke:#ffffff;stroke-width:0.384;"/>
    <path clip-path="url(#pb2fe79f925)" d="M 250.59996 168.832546 
C 251.236447 168.832546 251.846952 168.579667 252.297016 168.129603 
C 252.747081 167.679538 252.99996 167.069034 252.99996 166.432546 
C 252.99996 165.796059 252.747081 165.185555 252.297016 164.73549 
C 251.846952 164.285425 251.236447 164.032546 250.59996 164.032546 
C 249.963472 164.032546 249.352968 164.285425 248.902904 164.73549 
C 248.452839 165.185555 248.19996 165.796059 248.19996 166.432546 
C 248.19996 167.069034 248.452839 167.679538 248.902904 168.129603 
C 249.352968 168.579667 249.963472 168.832546 250.59996 168.832546 
z
" style="fill:#55a868;stroke:#ffffff;stroke-width:0.384;"/>
    <path clip-path="url(#pb2fe79f925)" d="M 300.3 171.869153 
C 300.936487 171.869153 301.546992 171.616274 301.997056 171.166209 
C 302.447121 170.716145 302.7 170.10564 302.7 169.469153 
C 302.7 168.832665 302.447121 168.222161 301.997056 167.772097 
C 301.546992 167.322032 300.936487 167.069153 300.3 167.069153 
C 299.663513 167.069153 299.053008 167.322032 298.602944 167.772097 
C 298.152879 168.222161 297.9 168.832665 297.9 169.469153 
C 297.9 170.10564 298.152879 170.716145 298.602944 171.166209 
C 299.053008 171.616274 299.663513 171.869153 300.3 171.869153 
z
" style="fill:#55a868;stroke:#ffffff;stroke-width:0.384;"/>
    <path clip-path="url(#pb2fe79f925)" d="M 122.12722 172.711949 
C 122.763707 172.711949 123.374211 172.45907 123.824276 172.009005 
C 124.274341 171.558941 124.52722 170.948436 124.52722 170.311949 
C 124.52722 169.675462 124.274341 169.064957 123.824276 168.614893 
C 123.374211 168.164828 122.763707 167.911949 122.12722 167.911949 
C 121.490732 167.911949 120.880228 168.164828 120.430163 168.614893 
C 119.980099 169.064957 119.72722 169.675462 119.72722 170.311949 
C 119.72722 170.948436 119.980099 171.558941 120.430163 172.009005 
C 120.880228 172.45907 121.490732 172.711949 122.12722 172.711949 
z
" style="fill:#c44e52;stroke:#ffffff;stroke-width:0.384;"/>
    <path clip-path="url(#pb2fe79f925)" d="M 180.272539 80.3055 
C 180.909027 80.3055 181.519531 80.05262 181.969596 79.602556 
C 182.41966 79.152491 182.672539 78.541987 182.672539 77.9055 
C 182.672539 77.269012 182.41966 76.658508 181.969596 76.208443 
C 181.519531 75.758379 180.909027 75.5055 180.272539 75.5055 
C 179.636052 75.5055 179.025548 75.758379 178.575483 76.208443 
C 178.125418 76.658508 177.872539 77.269012 177.872539 77.9055 
C 177.872539 78.541987 178.125418 79.152491 178.575483 79.602556 
C 179.025548 80.05262 179.636052 80.3055 180.272539 80.3055 
z
" style="fill:#c44e52;stroke:#ffffff;stroke-width:0.384;"/>
    <path clip-path="url(#pb2fe79f925)" d="M 85.5 178.591993 
C 86.136487 178.591993 86.746992 178.339114 87.197056 177.889049 
C 87.647121 177.438985 87.9 176.828481 87.9 176.191993 
C 87.9 175.555506 87.647121 174.945001 87.197056 174.494937 
C 86.746992 174.044872 86.136487 173.791993 85.5 173.791993 
C 84.863513 173.791993 84.253008 174.044872 83.802944 174.494937 
C 83.352879 174.945001 83.1 175.555506 83.1 176.191993 
C 83.1 176.828481 83.352879 177.438985 83.802944 177.889049 
C 84.253008 178.339114 84.863513 178.591993 85.5 178.591993 
z
" style="fill:#c44e52;stroke:#ffffff;stroke-width:0.384;"/>
    <path clip-path="url(#pb2fe79f925)" d="M 200.89992 60.959496 
C 201.536407 60.959496 202.146911 60.706617 202.596976 60.256552 
C 203.04704 59.806487 203.29992 59.195983 203.29992 58.559496 
C 203.29992 57.923008 203.04704 57.312504 202.596976 56.862439 
C 202.146911 56.412375 201.536407 56.159496 200.89992 56.159496 
C 200.263432 56.159496 199.652928 56.412375 199.202863 56.862439 
C 198.752799 57.312504 198.49992 57.923008 198.49992 58.559496 
C 198.49992 59.195983 198.752799 59.806487 199.202863 60.256552 
C 199.652928 60.706617 200.263432 60.959496 200.89992 60.959496 
z
" style="fill:#c44e52;stroke:#ffffff;stroke-width:0.384;"/>
    <path clip-path="url(#pb2fe79f925)" d="M 216.899759 102.03013 
C 217.536246 102.03013 218.146751 101.777251 218.596815 101.327186 
C 219.04688 100.877121 219.299759 100.266617 219.299759 99.63013 
C 219.299759 98.993642 219.04688 98.383138 218.596815 97.933073 
C 218.146751 97.483009 217.536246 97.23013 216.899759 97.23013 
C 216.263271 97.23013 215.652767 97.483009 215.202703 97.933073 
C 214.752638 98.383138 214.499759 98.993642 214.499759 99.63013 
C 214.499759 100.266617 214.752638 100.877121 215.202703 101.327186 
C 215.652767 101.777251 216.263271 102.03013 216.899759 102.03013 
z
" style="fill:#8172b3;stroke:#ffffff;stroke-width:0.384;"/>
    <path clip-path="url(#pb2fe79f925)" d="M 184.90008 178.25857 
C 185.536568 178.25857 186.147072 178.005691 186.597137 177.555627 
C 187.047201 177.105562 187.30008 176.495058 187.30008 175.85857 
C 187.30008 175.222083 187.047201 174.611579 186.597137 174.161514 
C 186.147072 173.711449 185.536568 173.45857 184.90008 173.45857 
C 184.263593 173.45857 183.653089 173.711449 183.203024 174.161514 
C 182.75296 174.611579 182.50008 175.222083 182.50008 175.85857 
C 182.50008 176.495058 182.75296 177.105562 183.203024 177.555627 
C 183.653089 178.005691 184.263593 178.25857 184.90008 178.25857 
z
" style="fill:#8172b3;stroke:#ffffff;stroke-width:0.384;"/>
    <path clip-path="url(#pb2fe79f925)" d="M 216.899759 167.573856 
C 217.536246 167.573856 218.146751 167.320977 218.596815 166.870912 
C 219.04688 166.420848 219.299759 165.810343 219.299759 165.173856 
C 219.299759 164.537368 219.04688 163.926864 218.596815 163.4768 
C 218.146751 163.026735 217.536246 162.773856 216.899759 162.773856 
C 216.263271 162.773856 215.652767 163.026735 215.202703 163.4768 
C 214.752638 163.926864 214.499759 164.537368 214.499759 165.173856 
C 214.499759 165.810343 214.752638 166.420848 215.202703 166.870912 
C 215.652767 167.320977 216.263271 167.573856 216.899759 167.573856 
z
" style="fill:#8172b3;stroke:#ffffff;stroke-width:0.384;"/>
    <path clip-path="url(#pb2fe79f925)" d="M 250.59996 159.433413 
C 251.236447 159.433413 251.846952 159.180533 252.297016 158.730469 
C 252.747081 158.280404 252.99996 157.6699 252.99996 157.033413 
C 252.99996 156.396925 252.747081 155.786421 252.297016 155.336356 
C 251.846952 154.886292 251.236447 154.633413 250.59996 154.633413 
C 249.963472 154.633413 249.352968 154.886292 248.902904 155.336356 
C 248.452839 155.786421 248.19996 156.396925 248.19996 157.033413 
C 248.19996 157.6699 248.452839 158.280404 248.902904 158.730469 
C 249.352968 159.180533 249.963472 159.433413 250.59996 159.433413 
z
" style="fill:#55a868;stroke:#ffffff;stroke-width:0.384;"/>
    <path clip-path="url(#pb2fe79f925)" d="M 200.89992 119.212501 
C 201.536407 119.212501 202.146911 118.959621 202.596976 118.509557 
C 203.04704 118.059492 203.29992 117.448988 203.29992 116.812501 
C 203.29992 116.176013 203.04704 115.565509 202.596976 115.115444 
C 202.146911 114.66538 201.536407 114.412501 200.89992 114.412501 
C 200.263432 114.412501 199.652928 114.66538 199.202863 115.115444 
C 198.752799 115.565509 198.49992 116.176013 198.49992 116.812501 
C 198.49992 117.448988 198.752799 118.059492 199.202863 118.509557 
C 199.652928 118.959621 200.263432 119.212501 200.89992 119.212501 
z
" style="fill:#55a868;stroke:#ffffff;stroke-width:0.384;"/>
    <path clip-path="url(#pb2fe79f925)" d="M 171.82726 111.103703 
C 172.463747 111.103703 173.074252 110.850824 173.524316 110.400759 
C 173.974381 109.950695 174.22726 109.34019 174.22726 108.703703 
C 174.22726 108.067215 173.974381 107.456711 173.524316 107.006647 
C 173.074252 106.556582 172.463747 106.303703 171.82726 106.303703 
C 171.190772 106.303703 170.580268 106.556582 170.130204 107.006647 
C 169.680139 107.456711 169.42726 108.067215 169.42726 108.703703 
C 169.42726 109.34019 169.680139 109.950695 170.130204 110.400759 
C 170.580268 110.850824 171.190772 111.103703 171.82726 111.103703 
z
" style="fill:#55a868;stroke:#ffffff;stroke-width:0.384;"/>
    <path clip-path="url(#pb2fe79f925)" d="M 171.82726 83.660629 
C 172.463747 83.660629 173.074252 83.40775 173.524316 82.957685 
C 173.974381 82.507621 174.22726 81.897116 174.22726 81.260629 
C 174.22726 80.624142 173.974381 80.013637 173.524316 79.563573 
C 173.074252 79.113508 172.463747 78.860629 171.82726 78.860629 
C 171.190772 78.860629 170.580268 79.113508 170.130204 79.563573 
C 169.680139 80.013637 169.42726 80.624142 169.42726 81.260629 
C 169.42726 81.897116 169.680139 82.507621 170.130204 82.957685 
C 170.580268 83.40775 171.190772 83.660629 171.82726 83.660629 
z
" style="fill:#55a868;stroke:#ffffff;stroke-width:0.384;"/>
    <path clip-path="url(#pb2fe79f925)" d="M 171.82726 128.044285 
C 172.463747 128.044285 173.074252 127.791406 173.524316 127.341342 
C 173.974381 126.891277 174.22726 126.280773 174.22726 125.644285 
C 174.22726 125.007798 173.974381 124.397294 173.524316 123.947229 
C 173.074252 123.497165 172.463747 123.244285 171.82726 123.244285 
C 171.190772 123.244285 170.580268 123.497165 170.130204 123.947229 
C 169.680139 124.397294 169.42726 125.007798 169.42726 125.644285 
C 169.42726 126.280773 169.680139 126.891277 170.130204 127.341342 
C 170.580268 127.791406 171.190772 128.044285 171.82726 128.044285 
z
" style="fill:#55a868;stroke:#ffffff;stroke-width:0.384;"/>
    <path clip-path="url(#pb2fe79f925)" d="M 151.199879 163.200409 
C 151.836367 163.200409 152.446871 162.94753 152.896936 162.497465 
C 153.347 162.0474 153.599879 161.436896 153.599879 160.800409 
C 153.599879 160.163921 153.347 159.553417 152.896936 159.103352 
C 152.446871 158.653288 151.836367 158.400409 151.199879 158.400409 
C 150.563392 158.400409 149.952888 158.653288 149.502823 159.103352 
C 149.052759 159.553417 148.799879 160.163921 148.799879 160.800409 
C 148.799879 161.436896 149.052759 162.0474 149.502823 162.497465 
C 149.952888 162.94753 150.563392 163.200409 151.199879 163.200409 
z
" style="fill:#55a868;stroke:#ffffff;stroke-width:0.384;"/>
    <path clip-path="url(#pb2fe79f925)" d="M 171.82726 141.427774 
C 172.463747 141.427774 173.074252 141.174895 173.524316 140.724831 
C 173.974381 140.274766 174.22726 139.664262 174.22726 139.027774 
C 174.22726 138.391287 173.974381 137.780783 173.524316 137.330718 
C 173.074252 136.880654 172.463747 136.627774 171.82726 136.627774 
C 171.190772 136.627774 170.580268 136.880654 170.130204 137.330718 
C 169.680139 137.780783 169.42726 138.391287 169.42726 139.027774 
C 169.42726 139.664262 169.680139 140.274766 170.130204 140.724831 
C 170.580268 141.174895 171.190772 141.427774 171.82726 141.427774 
z
" style="fill:#55a868;stroke:#ffffff;stroke-width:0.384;"/>
    <path clip-path="url(#pb2fe79f925)" d="M 250.59996 160.139115 
C 251.236447 160.139115 251.846952 159.886236 252.297016 159.436171 
C 252.747081 158.986107 252.99996 158.375603 252.99996 157.739115 
C 252.99996 157.102628 252.747081 156.492123 252.297016 156.042059 
C 251.846952 155.591994 251.236447 155.339115 250.59996 155.339115 
C 249.963472 155.339115 249.352968 155.591994 248.902904 156.042059 
C 248.452839 156.492123 248.19996 157.102628 248.19996 157.739115 
C 248.19996 158.375603 248.452839 158.986107 248.902904 159.436171 
C 249.352968 159.886236 249.963472 160.139115 250.59996 160.139115 
z
" style="fill:#55a868;stroke:#ffffff;stroke-width:0.384;"/>
    <path clip-path="url(#pb2fe79f925)" d="M 122.12722 148.104161 
C 122.763707 148.104161 123.374211 147.851282 123.824276 147.401217 
C 124.274341 146.951153 124.52722 146.340648 124.52722 145.704161 
C 124.52722 145.067674 124.274341 144.457169 123.824276 144.007105 
C 123.374211 143.55704 122.763707 143.304161 122.12722 143.304161 
C 121.490732 143.304161 120.880228 143.55704 120.430163 144.007105 
C 119.980099 144.457169 119.72722 145.067674 119.72722 145.704161 
C 119.72722 146.340648 119.980099 146.951153 120.430163 147.401217 
C 120.880228 147.851282 121.490732 148.104161 122.12722 148.104161 
z
" style="fill:#55a868;stroke:#ffffff;stroke-width:0.384;"/>
    <path clip-path="url(#pb2fe79f925)" d="M 200.89992 140.484736 
C 201.536407 140.484736 202.146911 140.231857 202.596976 139.781792 
C 203.04704 139.331728 203.29992 138.721223 203.29992 138.084736 
C 203.29992 137.448249 203.04704 136.837744 202.596976 136.38768 
C 202.146911 135.937615 201.536407 135.684736 200.89992 135.684736 
C 200.263432 135.684736 199.652928 135.937615 199.202863 136.38768 
C 198.752799 136.837744 198.49992 137.448249 198.49992 138.084736 
C 198.49992 138.721223 198.752799 139.331728 199.202863 139.781792 
C 199.652928 140.231857 200.263432 140.484736 200.89992 140.484736 
z
" style="fill:#55a868;stroke:#ffffff;stroke-width:0.384;"/>
    <path clip-path="url(#pb2fe79f925)" d="M 250.59996 163.2484 
C 251.236447 163.2484 251.846952 162.995521 252.297016 162.545456 
C 252.747081 162.095391 252.99996 161.484887 252.99996 160.8484 
C 252.99996 160.211912 252.747081 159.601408 252.297016 159.151343 
C 251.846952 158.701279 251.236447 158.4484 250.59996 158.4484 
C 249.963472 158.4484 249.352968 158.701279 248.902904 159.151343 
C 248.452839 159.601408 248.19996 160.211912 248.19996 160.8484 
C 248.19996 161.484887 248.452839 162.095391 248.902904 162.545456 
C 249.352968 162.995521 249.963472 163.2484 250.59996 163.2484 
z
" style="fill:#55a868;stroke:#ffffff;stroke-width:0.384;"/>
    <path clip-path="url(#pb2fe79f925)" d="M 200.89992 153.060238 
C 201.536407 153.060238 202.146911 152.807358 202.596976 152.357294 
C 203.04704 151.907229 203.29992 151.296725 203.29992 150.660238 
C 203.29992 150.02375 203.04704 149.413246 202.596976 148.963181 
C 202.146911 148.513117 201.536407 148.260238 200.89992 148.260238 
C 200.263432 148.260238 199.652928 148.513117 199.202863 148.963181 
C 198.752799 149.413246 198.49992 150.02375 198.49992 150.660238 
C 198.49992 151.296725 198.752799 151.907229 199.202863 152.357294 
C 199.652928 152.807358 200.263432 153.060238 200.89992 153.060238 
z
" style="fill:#55a868;stroke:#ffffff;stroke-width:0.384;"/>
    <path clip-path="url(#pb2fe79f925)" d="M 229.972579 84.342388 
C 230.609067 84.342388 231.219571 84.089509 231.669636 83.639445 
C 232.1197 83.18938 232.372579 82.578876 232.372579 81.942388 
C 232.372579 81.305901 232.1197 80.695397 231.669636 80.245332 
C 231.219571 79.795267 230.609067 79.542388 229.972579 79.542388 
C 229.336092 79.542388 228.725588 79.795267 228.275523 80.245332 
C 227.825459 80.695397 227.572579 81.305901 227.572579 81.942388 
C 227.572579 82.578876 227.825459 83.18938 228.275523 83.639445 
C 228.725588 84.089509 229.336092 84.342388 229.972579 84.342388 
z
" style="fill:#55a868;stroke:#ffffff;stroke-width:0.384;"/>
    <path clip-path="url(#pb2fe79f925)" d="M 250.59996 164.533353 
C 251.236447 164.533353 251.846952 164.280474 252.297016 163.83041 
C 252.747081 163.380345 252.99996 162.769841 252.99996 162.133353 
C 252.99996 161.496866 252.747081 160.886362 252.297016 160.436297 
C 251.846952 159.986232 251.236447 159.733353 250.59996 159.733353 
C 249.963472 159.733353 249.352968 159.986232 248.902904 160.436297 
C 248.452839 160.886362 248.19996 161.496866 248.19996 162.133353 
C 248.19996 162.769841 248.452839 163.380345 248.902904 163.83041 
C 249.352968 164.280474 249.963472 164.533353 250.59996 164.533353 
z
" style="fill:#55a868;stroke:#ffffff;stroke-width:0.384;"/>
    <path clip-path="url(#pb2fe79f925)" d="M 151.199879 143.654654 
C 151.836367 143.654654 152.446871 143.401775 152.896936 142.95171 
C 153.347 142.501646 153.599879 141.891142 153.599879 141.254654 
C 153.599879 140.618167 153.347 140.007662 152.896936 139.557598 
C 152.446871 139.107533 151.836367 138.854654 151.199879 138.854654 
C 150.563392 138.854654 149.952888 139.107533 149.502823 139.557598 
C 149.052759 140.007662 148.799879 140.618167 148.799879 141.254654 
C 148.799879 141.891142 149.052759 142.501646 149.502823 142.95171 
C 149.952888 143.401775 150.563392 143.654654 151.199879 143.654654 
z
" style="fill:#55a868;stroke:#ffffff;stroke-width:0.384;"/>
    <path clip-path="url(#pb2fe79f925)" d="M 200.89992 139.902538 
C 201.536407 139.902538 202.146911 139.649659 202.596976 139.199594 
C 203.04704 138.749529 203.29992 138.139025 203.29992 137.502538 
C 203.29992 136.86605 203.04704 136.255546 202.596976 135.805482 
C 202.146911 135.355417 201.536407 135.102538 200.89992 135.102538 
C 200.263432 135.102538 199.652928 135.355417 199.202863 135.805482 
C 198.752799 136.255546 198.49992 136.86605 198.49992 137.502538 
C 198.49992 138.139025 198.752799 138.749529 199.202863 139.199594 
C 199.652928 139.649659 200.263432 139.902538 200.89992 139.902538 
z
" style="fill:#55a868;stroke:#ffffff;stroke-width:0.384;"/>
    <path clip-path="url(#pb2fe79f925)" d="M 151.199879 147.358586 
C 151.836367 147.358586 152.446871 147.105707 152.896936 146.655643 
C 153.347 146.205578 153.599879 145.595074 153.599879 144.958586 
C 153.599879 144.322099 153.347 143.711595 152.896936 143.26153 
C 152.446871 142.811466 151.836367 142.558586 151.199879 142.558586 
C 150.563392 142.558586 149.952888 142.811466 149.502823 143.26153 
C 149.052759 143.711595 148.799879 144.322099 148.799879 144.958586 
C 148.799879 145.595074 149.052759 146.205578 149.502823 146.655643 
C 149.952888 147.105707 150.563392 147.358586 151.199879 147.358586 
z
" style="fill:#c44e52;stroke:#ffffff;stroke-width:0.384;"/>
    <path clip-path="url(#pb2fe79f925)" d="M 151.199879 110.001602 
C 151.836367 110.001602 152.446871 109.748723 152.896936 109.298658 
C 153.347 108.848594 153.599879 108.238089 153.599879 107.601602 
C 153.599879 106.965115 153.347 106.35461 152.896936 105.904546 
C 152.446871 105.454481 151.836367 105.201602 151.199879 105.201602 
C 150.563392 105.201602 149.952888 105.454481 149.502823 105.904546 
C 149.052759 106.35461 148.799879 106.965115 148.799879 107.601602 
C 148.799879 108.238089 149.052759 108.848594 149.502823 109.298658 
C 149.952888 109.748723 150.563392 110.001602 151.199879 110.001602 
z
" style="fill:#8172b3;stroke:#ffffff;stroke-width:0.384;"/>
    <path clip-path="url(#pb2fe79f925)" d="M 200.89992 145.462004 
L 204.294032 142.067892 
L 200.89992 138.673779 
L 197.505807 142.067892 
z
" style="fill:#4c72b0;stroke:#ffffff;stroke-width:0.384;"/>
    <path clip-path="url(#pb2fe79f925)" d="M 200.89992 107.346689 
L 204.294032 103.952577 
L 200.89992 100.558464 
L 197.505807 103.952577 
z
" style="fill:#4c72b0;stroke:#ffffff;stroke-width:0.384;"/>
    <path clip-path="url(#pb2fe79f925)" d="M 200.89992 165.904715 
L 204.294032 162.510603 
L 200.89992 159.11649 
L 197.505807 162.510603 
z
" style="fill:#4c72b0;stroke:#ffffff;stroke-width:0.384;"/>
    <path clip-path="url(#pb2fe79f925)" d="M 200.89992 149.439395 
L 204.294032 146.045283 
L 200.89992 142.65117 
L 197.505807 146.045283 
z
" style="fill:#4c72b0;stroke:#ffffff;stroke-width:0.384;"/>
    <path clip-path="url(#pb2fe79f925)" d="M 200.89992 162.764514 
L 204.294032 159.370401 
L 200.89992 155.976289 
L 197.505807 159.370401 
z
" style="fill:#4c72b0;stroke:#ffffff;stroke-width:0.384;"/>
    <path clip-path="url(#pb2fe79f925)" d="M 200.89992 73.289557 
L 204.294032 69.895445 
L 200.89992 66.501332 
L 197.505807 69.895445 
z
" style="fill:#4c72b0;stroke:#ffffff;stroke-width:0.384;"/>
    <path clip-path="url(#pb2fe79f925)" d="M 200.89992 99.242276 
L 204.294032 95.848163 
L 200.89992 92.454051 
L 197.505807 95.848163 
z
" style="fill:#4c72b0;stroke:#ffffff;stroke-width:0.384;"/>
    <path clip-path="url(#pb2fe79f925)" d="M 151.199879 143.793839 
L 154.593992 140.399727 
L 151.199879 137.005614 
L 147.805767 140.399727 
z
" style="fill:#4c72b0;stroke:#ffffff;stroke-width:0.384;"/>
    <path clip-path="url(#pb2fe79f925)" d="M 250.59996 154.077257 
L 253.994072 150.683144 
L 250.59996 147.289031 
L 247.205847 150.683144 
z
" style="fill:#4c72b0;stroke:#ffffff;stroke-width:0.384;"/>
    <path clip-path="url(#pb2fe79f925)" d="M 250.59996 167.089712 
L 253.994072 163.695599 
L 250.59996 160.301486 
L 247.205847 163.695599 
z
" style="fill:#4c72b0;stroke:#ffffff;stroke-width:0.384;"/>
    <path clip-path="url(#pb2fe79f925)" d="M 151.199879 137.115606 
L 154.593992 133.721494 
L 151.199879 130.327381 
L 147.805767 133.721494 
z
" style="fill:#4c72b0;stroke:#ffffff;stroke-width:0.384;"/>
    <path clip-path="url(#pb2fe79f925)" d="M 151.199879 153.031397 
L 154.593992 149.637284 
L 151.199879 146.243172 
L 147.805767 149.637284 
z
" style="fill:#4c72b0;stroke:#ffffff;stroke-width:0.384;"/>
    <path clip-path="url(#pb2fe79f925)" d="M 151.199879 160.588058 
L 154.593992 157.193945 
L 151.199879 153.799832 
L 147.805767 157.193945 
z
" style="fill:#4c72b0;stroke:#ffffff;stroke-width:0.384;"/>
    <path clip-path="url(#pb2fe79f925)" d="M 229.972579 62.992143 
C 230.609067 62.992143 231.219571 62.739264 231.669636 62.289199 
C 232.1197 61.839135 232.372579 61.228631 232.372579 60.592143 
C 232.372579 59.955656 232.1197 59.345151 231.669636 58.895087 
C 231.219571 58.445022 230.609067 58.192143 229.972579 58.192143 
C 229.336092 58.192143 228.725588 58.445022 228.275523 58.895087 
C 227.825459 59.345151 227.572579 59.955656 227.572579 60.592143 
C 227.572579 61.228631 227.825459 61.839135 228.275523 62.289199 
C 228.725588 62.739264 229.336092 62.992143 229.972579 62.992143 
z
" style="fill:#c44e52;stroke:#ffffff;stroke-width:0.384;"/>
   </g>
   <g id="PathCollection_2"/>
   <g id="PathCollection_3"/>
   <g id="PathCollection_4"/>
   <g id="PathCollection_5"/>
   <g id="PathCollection_6"/>
   <g id="patch_3">
    <path d="M 74.76 200.82 
L 74.76 15.044125 
" style="fill:none;stroke:#262626;stroke-linecap:square;stroke-linejoin:miter;"/>
   </g>
   <g id="patch_4">
    <path d="M 311.04 200.82 
L 311.04 15.044125 
" style="fill:none;stroke:#262626;stroke-linecap:square;stroke-linejoin:miter;"/>
   </g>
   <g id="patch_5">
    <path d="M 74.76 200.82 
L 311.04 200.82 
" style="fill:none;stroke:#262626;stroke-linecap:square;stroke-linejoin:miter;"/>
   </g>
   <g id="patch_6">
    <path d="M 74.76 15.044125 
L 311.04 15.044125 
" style="fill:none;stroke:#262626;stroke-linecap:square;stroke-linejoin:miter;"/>
   </g>
   <g id="legend_1">
    <g id="patch_7">
     <path d="M 81.06 102.473813 
L 177.7475 102.473813 
Q 179.5475 102.473813 179.5475 100.673813 
L 179.5475 21.344125 
Q 179.5475 19.544125 177.7475 19.544125 
L 81.06 19.544125 
Q 79.26 19.544125 79.26 21.344125 
L 79.26 100.673813 
Q 79.26 102.473813 81.06 102.473813 
z
" style="fill:#ffffff;opacity:0.8;stroke:#cccccc;stroke-linejoin:miter;stroke-width:0.8;"/>
    </g>
    <g id="text_15">
     <!-- Mean Connectivity -->
     <g style="fill:#262626;" transform="translate(82.86 30.742563)scale(0.1 -0.1)">
      <defs>
       <path d="M 628 4666 
L 1569 4666 
L 2759 1491 
L 3956 4666 
L 4897 4666 
L 4897 0 
L 4281 0 
L 4281 4097 
L 3078 897 
L 2444 897 
L 1241 4097 
L 1241 0 
L 628 0 
L 628 4666 
z
" id="DejaVuSans-4d" transform="scale(0.015625)"/>
       <path d="M 3597 1894 
L 3597 1613 
L 953 1613 
Q 991 1019 1311 708 
Q 1631 397 2203 397 
Q 2534 397 2845 478 
Q 3156 559 3463 722 
L 3463 178 
Q 3153 47 2828 -22 
Q 2503 -91 2169 -91 
Q 1331 -91 842 396 
Q 353 884 353 1716 
Q 353 2575 817 3079 
Q 1281 3584 2069 3584 
Q 2775 3584 3186 3129 
Q 3597 2675 3597 1894 
z
M 3022 2063 
Q 3016 2534 2758 2815 
Q 2500 3097 2075 3097 
Q 1594 3097 1305 2825 
Q 1016 2553 972 2059 
L 3022 2063 
z
" id="DejaVuSans-65" transform="scale(0.015625)"/>
       <path d="M 2194 1759 
Q 1497 1759 1228 1600 
Q 959 1441 959 1056 
Q 959 750 1161 570 
Q 1363 391 1709 391 
Q 2188 391 2477 730 
Q 2766 1069 2766 1631 
L 2766 1759 
L 2194 1759 
z
M 3341 1997 
L 3341 0 
L 2766 0 
L 2766 531 
Q 2569 213 2275 61 
Q 1981 -91 1556 -91 
Q 1019 -91 701 211 
Q 384 513 384 1019 
Q 384 1609 779 1909 
Q 1175 2209 1959 2209 
L 2766 2209 
L 2766 2266 
Q 2766 2663 2505 2880 
Q 2244 3097 1772 3097 
Q 1472 3097 1187 3025 
Q 903 2953 641 2809 
L 641 3341 
Q 956 3463 1253 3523 
Q 1550 3584 1831 3584 
Q 2591 3584 2966 3190 
Q 3341 2797 3341 1997 
z
" id="DejaVuSans-61" transform="scale(0.015625)"/>
       <path d="M 3122 3366 
L 3122 2828 
Q 2878 2963 2633 3030 
Q 2388 3097 2138 3097 
Q 1578 3097 1268 2742 
Q 959 2388 959 1747 
Q 959 1106 1268 751 
Q 1578 397 2138 397 
Q 2388 397 2633 464 
Q 2878 531 3122 666 
L 3122 134 
Q 2881 22 2623 -34 
Q 2366 -91 2075 -91 
Q 1284 -91 818 406 
Q 353 903 353 1747 
Q 353 2603 823 3093 
Q 1294 3584 2113 3584 
Q 2378 3584 2631 3529 
Q 2884 3475 3122 3366 
z
" id="DejaVuSans-63" transform="scale(0.015625)"/>
       <path d="M 1172 4494 
L 1172 3500 
L 2356 3500 
L 2356 3053 
L 1172 3053 
L 1172 1153 
Q 1172 725 1289 603 
Q 1406 481 1766 481 
L 2356 481 
L 2356 0 
L 1766 0 
Q 1100 0 847 248 
Q 594 497 594 1153 
L 594 3053 
L 172 3053 
L 172 3500 
L 594 3500 
L 594 4494 
L 1172 4494 
z
" id="DejaVuSans-74" transform="scale(0.015625)"/>
       <path d="M 603 3500 
L 1178 3500 
L 1178 0 
L 603 0 
L 603 3500 
z
M 603 4863 
L 1178 4863 
L 1178 4134 
L 603 4134 
L 603 4863 
z
" id="DejaVuSans-69" transform="scale(0.015625)"/>
       <path d="M 191 3500 
L 800 3500 
L 1894 563 
L 2988 3500 
L 3597 3500 
L 2284 0 
L 1503 0 
L 191 3500 
z
" id="DejaVuSans-76" transform="scale(0.015625)"/>
       <path d="M 2059 -325 
Q 1816 -950 1584 -1140 
Q 1353 -1331 966 -1331 
L 506 -1331 
L 506 -850 
L 844 -850 
Q 1081 -850 1212 -737 
Q 1344 -625 1503 -206 
L 1606 56 
L 191 3500 
L 800 3500 
L 1894 763 
L 2988 3500 
L 3597 3500 
L 2059 -325 
z
" id="DejaVuSans-79" transform="scale(0.015625)"/>
      </defs>
      <use xlink:href="#DejaVuSans-4d"/>
      <use x="86.279297" xlink:href="#DejaVuSans-65"/>
      <use x="147.802734" xlink:href="#DejaVuSans-61"/>
      <use x="209.082031" xlink:href="#DejaVuSans-6e"/>
      <use x="272.460938" xlink:href="#DejaVuSans-20"/>
      <use x="304.248047" xlink:href="#DejaVuSans-43"/>
      <use x="374.072266" xlink:href="#DejaVuSans-6f"/>
      <use x="435.253906" xlink:href="#DejaVuSans-6e"/>
      <use x="498.632812" xlink:href="#DejaVuSans-6e"/>
      <use x="562.011719" xlink:href="#DejaVuSans-65"/>
      <use x="623.535156" xlink:href="#DejaVuSans-63"/>
      <use x="678.515625" xlink:href="#DejaVuSans-74"/>
      <use x="717.724609" xlink:href="#DejaVuSans-69"/>
      <use x="745.507812" xlink:href="#DejaVuSans-76"/>
      <use x="804.6875" xlink:href="#DejaVuSans-69"/>
      <use x="832.470703" xlink:href="#DejaVuSans-74"/>
      <use x="871.679688" xlink:href="#DejaVuSans-79"/>
     </g>
    </g>
    <g id="PathCollection_7">
     <defs>
      <path d="M -0.8 2.4 
L 0.8 2.4 
L 0.8 0.8 
L 2.4 0.8 
L 2.4 -0.8 
L 0.8 -0.8 
L 0.8 -2.4 
L -0.8 -2.4 
L -0.8 -0.8 
L -2.4 -0.8 
L -2.4 0.8 
L -0.8 0.8 
z
" id="mb89b574309" style="stroke:#4c72b0;stroke-width:0.8;"/>
     </defs>
     <g>
      <use style="fill:#4c72b0;stroke:#4c72b0;stroke-width:0.8;" x="99.752266" xlink:href="#mb89b574309" y="41.798344"/>
     </g>
    </g>
    <g id="text_16">
     <!-- 5N &amp; E:2N -->
     <g style="fill:#262626;" transform="translate(115.952266 44.160844)scale(0.09 -0.09)">
      <defs>
       <path d="M 628 4666 
L 1478 4666 
L 3547 763 
L 3547 4666 
L 4159 4666 
L 4159 0 
L 3309 0 
L 1241 3903 
L 1241 0 
L 628 0 
L 628 4666 
z
" id="DejaVuSans-4e" transform="scale(0.015625)"/>
       <path d="M 1556 2509 
Q 1272 2256 1139 2004 
Q 1006 1753 1006 1478 
Q 1006 1022 1337 719 
Q 1669 416 2169 416 
Q 2466 416 2725 514 
Q 2984 613 3213 813 
L 1556 2509 
z
M 1997 2859 
L 3584 1234 
Q 3769 1513 3872 1830 
Q 3975 2147 3994 2503 
L 4575 2503 
Q 4538 2091 4375 1687 
Q 4213 1284 3922 891 
L 4794 0 
L 4006 0 
L 3559 459 
Q 3234 181 2878 45 
Q 2522 -91 2113 -91 
Q 1359 -91 881 339 
Q 403 769 403 1441 
Q 403 1841 612 2192 
Q 822 2544 1241 2853 
Q 1091 3050 1012 3245 
Q 934 3441 934 3628 
Q 934 4134 1281 4442 
Q 1628 4750 2203 4750 
Q 2463 4750 2720 4694 
Q 2978 4638 3244 4525 
L 3244 3956 
Q 2972 4103 2725 4179 
Q 2478 4256 2266 4256 
Q 1938 4256 1733 4082 
Q 1528 3909 1528 3634 
Q 1528 3475 1620 3314 
Q 1713 3153 1997 2859 
z
" id="DejaVuSans-26" transform="scale(0.015625)"/>
       <path d="M 628 4666 
L 3578 4666 
L 3578 4134 
L 1259 4134 
L 1259 2753 
L 3481 2753 
L 3481 2222 
L 1259 2222 
L 1259 531 
L 3634 531 
L 3634 0 
L 628 0 
L 628 4666 
z
" id="DejaVuSans-45" transform="scale(0.015625)"/>
       <path d="M 750 794 
L 1409 794 
L 1409 0 
L 750 0 
L 750 794 
z
M 750 3309 
L 1409 3309 
L 1409 2516 
L 750 2516 
L 750 3309 
z
" id="DejaVuSans-3a" transform="scale(0.015625)"/>
      </defs>
      <use xlink:href="#DejaVuSans-35"/>
      <use x="63.623047" xlink:href="#DejaVuSans-4e"/>
      <use x="138.427734" xlink:href="#DejaVuSans-20"/>
      <use x="170.214844" xlink:href="#DejaVuSans-26"/>
      <use x="248.193359" xlink:href="#DejaVuSans-20"/>
      <use x="279.980469" xlink:href="#DejaVuSans-45"/>
      <use x="343.164062" xlink:href="#DejaVuSans-3a"/>
      <use x="376.855469" xlink:href="#DejaVuSans-32"/>
      <use x="440.478516" xlink:href="#DejaVuSans-4e"/>
     </g>
    </g>
    <g id="PathCollection_8">
     <defs>
      <path d="M -0 3.394113 
L 3.394113 0 
L 0 -3.394113 
L -3.394113 -0 
z
" id="mf2a1214b37" style="stroke:#4c72b0;stroke-width:0.8;"/>
     </defs>
     <g>
      <use style="fill:#4c72b0;stroke:#4c72b0;stroke-width:0.8;" x="99.752266" xlink:href="#mf2a1214b37" y="55.008656"/>
     </g>
    </g>
    <g id="text_17">
     <!-- 20N &amp; E:2N -->
     <g style="fill:#262626;" transform="translate(115.952266 57.371156)scale(0.09 -0.09)">
      <use xlink:href="#DejaVuSans-32"/>
      <use x="63.623047" xlink:href="#DejaVuSans-30"/>
      <use x="127.246094" xlink:href="#DejaVuSans-4e"/>
      <use x="202.050781" xlink:href="#DejaVuSans-20"/>
      <use x="233.837891" xlink:href="#DejaVuSans-26"/>
      <use x="311.816406" xlink:href="#DejaVuSans-20"/>
      <use x="343.603516" xlink:href="#DejaVuSans-45"/>
      <use x="406.787109" xlink:href="#DejaVuSans-3a"/>
      <use x="440.478516" xlink:href="#DejaVuSans-32"/>
      <use x="504.101562" xlink:href="#DejaVuSans-4e"/>
     </g>
    </g>
    <g id="PathCollection_9">
     <defs>
      <path d="M 0 2.4 
C 0.636487 2.4 1.246992 2.147121 1.697056 1.697056 
C 2.147121 1.246992 2.4 0.636487 2.4 0 
C 2.4 -0.636487 2.147121 -1.246992 1.697056 -1.697056 
C 1.246992 -2.147121 0.636487 -2.4 0 -2.4 
C -0.636487 -2.4 -1.246992 -2.147121 -1.697056 -1.697056 
C -2.147121 -1.246992 -2.4 -0.636487 -2.4 0 
C -2.4 0.636487 -2.147121 1.246992 -1.697056 1.697056 
C -1.246992 2.147121 -0.636487 2.4 0 2.4 
z
" id="me6d7b363e1" style="stroke:#55a868;stroke-width:0.8;"/>
     </defs>
     <g>
      <use style="fill:#55a868;stroke:#55a868;stroke-width:0.8;" x="99.752266" xlink:href="#me6d7b363e1" y="68.218969"/>
     </g>
    </g>
    <g id="text_18">
     <!-- E:2N -->
     <g style="fill:#262626;" transform="translate(115.952266 70.581469)scale(0.09 -0.09)">
      <use xlink:href="#DejaVuSans-45"/>
      <use x="63.183594" xlink:href="#DejaVuSans-3a"/>
      <use x="96.875" xlink:href="#DejaVuSans-32"/>
      <use x="160.498047" xlink:href="#DejaVuSans-4e"/>
     </g>
    </g>
    <g id="PathCollection_10">
     <defs>
      <path d="M 0 2.4 
C 0.636487 2.4 1.246992 2.147121 1.697056 1.697056 
C 2.147121 1.246992 2.4 0.636487 2.4 0 
C 2.4 -0.636487 2.147121 -1.246992 1.697056 -1.697056 
C 1.246992 -2.147121 0.636487 -2.4 0 -2.4 
C -0.636487 -2.4 -1.246992 -2.147121 -1.697056 -1.697056 
C -2.147121 -1.246992 -2.4 -0.636487 -2.4 0 
C -2.4 0.636487 -2.147121 1.246992 -1.697056 1.697056 
C -1.246992 2.147121 -0.636487 2.4 0 2.4 
z
" id="m2d7990bc8a" style="stroke:#c44e52;stroke-width:0.8;"/>
     </defs>
     <g>
      <use style="fill:#c44e52;stroke:#c44e52;stroke-width:0.8;" x="99.752266" xlink:href="#m2d7990bc8a" y="81.429281"/>
     </g>
    </g>
    <g id="text_19">
     <!-- E:4N -->
     <g style="fill:#262626;" transform="translate(115.952266 83.791781)scale(0.09 -0.09)">
      <defs>
       <path d="M 2419 4116 
L 825 1625 
L 2419 1625 
L 2419 4116 
z
M 2253 4666 
L 3047 4666 
L 3047 1625 
L 3713 1625 
L 3713 1100 
L 3047 1100 
L 3047 0 
L 2419 0 
L 2419 1100 
L 313 1100 
L 313 1709 
L 2253 4666 
z
" id="DejaVuSans-34" transform="scale(0.015625)"/>
      </defs>
      <use xlink:href="#DejaVuSans-45"/>
      <use x="63.183594" xlink:href="#DejaVuSans-3a"/>
      <use x="96.875" xlink:href="#DejaVuSans-34"/>
      <use x="160.498047" xlink:href="#DejaVuSans-4e"/>
     </g>
    </g>
    <g id="PathCollection_11">
     <defs>
      <path d="M 0 2.4 
C 0.636487 2.4 1.246992 2.147121 1.697056 1.697056 
C 2.147121 1.246992 2.4 0.636487 2.4 0 
C 2.4 -0.636487 2.147121 -1.246992 1.697056 -1.697056 
C 1.246992 -2.147121 0.636487 -2.4 0 -2.4 
C -0.636487 -2.4 -1.246992 -2.147121 -1.697056 -1.697056 
C -2.147121 -1.246992 -2.4 -0.636487 -2.4 0 
C -2.4 0.636487 -2.147121 1.246992 -1.697056 1.697056 
C -1.246992 2.147121 -0.636487 2.4 0 2.4 
z
" id="mc27836cc6e" style="stroke:#8172b3;stroke-width:0.8;"/>
     </defs>
     <g>
      <use style="fill:#8172b3;stroke:#8172b3;stroke-width:0.8;" x="99.752266" xlink:href="#mc27836cc6e" y="94.639594"/>
     </g>
    </g>
    <g id="text_20">
     <!-- E:6N -->
     <g style="fill:#262626;" transform="translate(115.952266 97.002094)scale(0.09 -0.09)">
      <defs>
       <path d="M 2113 2584 
Q 1688 2584 1439 2293 
Q 1191 2003 1191 1497 
Q 1191 994 1439 701 
Q 1688 409 2113 409 
Q 2538 409 2786 701 
Q 3034 994 3034 1497 
Q 3034 2003 2786 2293 
Q 2538 2584 2113 2584 
z
M 3366 4563 
L 3366 3988 
Q 3128 4100 2886 4159 
Q 2644 4219 2406 4219 
Q 1781 4219 1451 3797 
Q 1122 3375 1075 2522 
Q 1259 2794 1537 2939 
Q 1816 3084 2150 3084 
Q 2853 3084 3261 2657 
Q 3669 2231 3669 1497 
Q 3669 778 3244 343 
Q 2819 -91 2113 -91 
Q 1303 -91 875 529 
Q 447 1150 447 2328 
Q 447 3434 972 4092 
Q 1497 4750 2381 4750 
Q 2619 4750 2861 4703 
Q 3103 4656 3366 4563 
z
" id="DejaVuSans-36" transform="scale(0.015625)"/>
      </defs>
      <use xlink:href="#DejaVuSans-45"/>
      <use x="63.183594" xlink:href="#DejaVuSans-3a"/>
      <use x="96.875" xlink:href="#DejaVuSans-36"/>
      <use x="160.498047" xlink:href="#DejaVuSans-4e"/>
     </g>
    </g>
   </g>
  </g>
 </g>
 <defs>
  <clipPath id="pb2fe79f925">
   <rect height="185.775875" width="236.28" x="74.76" y="15.044125"/>
  </clipPath>
 </defs>
</svg>
