<?xml version="1.0" encoding="utf-8" standalone="no"?>
<!DOCTYPE svg PUBLIC "-//W3C//DTD SVG 1.1//EN"
  "http://www.w3.org/Graphics/SVG/1.1/DTD/svg11.dtd">
<svg height="252pt" version="1.1" viewBox="0 0 396 252" width="396pt" xmlns="http://www.w3.org/2000/svg" xmlns:xlink="http://www.w3.org/1999/xlink">
 <metadata>
  <rdf:RDF xmlns:cc="http://creativecommons.org/ns#" xmlns:dc="http://purl.org/dc/elements/1.1/" xmlns:rdf="http://www.w3.org/1999/02/22-rdf-syntax-ns#">
   <cc:Work>
    <dc:type rdf:resource="http://purl.org/dc/dcmitype/StillImage"/>
    <dc:date>2021-12-12T11:49:12.874368</dc:date>
    <dc:format>image/svg+xml</dc:format>
    <dc:creator>
     <cc:Agent>
      <dc:title>Matplotlib v3.4.2, https://matplotlib.org/</dc:title>
     </cc:Agent>
    </dc:creator>
   </cc:Work>
  </rdf:RDF>
 </metadata>
 <defs>
  <style type="text/css">*{stroke-linecap:butt;stroke-linejoin:round;}</style>
 </defs>
 <g id="figure_1">
  <g id="patch_1">
   <path d="M 0 252 
L 396 252 
L 396 0 
L 0 0 
z
" style="fill:#ffffff;"/>
  </g>
  <g id="axes_1">
   <g id="patch_2">
    <path d="M 72.33 200.82 
L 267.345 200.82 
L 267.345 13.149 
L 72.33 13.149 
z
" style="fill:#ffffff;"/>
   </g>
   <g id="matplotlib.axis_1">
    <g id="xtick_1">
     <g id="line2d_1">
      <defs>
       <path d="M 0 0 
L 0 4.8 
" id="m5c795a5d72" style="stroke:#262626;"/>
      </defs>
      <g>
       <use style="fill:#262626;stroke:#262626;" x="94.399874" xlink:href="#m5c795a5d72" y="200.82"/>
      </g>
     </g>
     <g id="text_1">
      <!-- −2 -->
      <g style="fill:#262626;" transform="translate(85.554561 218.238125)scale(0.12 -0.12)">
       <defs>
        <path d="M 678 2272 
L 4684 2272 
L 4684 1741 
L 678 1741 
L 678 2272 
z
" id="DejaVuSans-2212" transform="scale(0.015625)"/>
        <path d="M 1228 531 
L 3431 531 
L 3431 0 
L 469 0 
L 469 531 
Q 828 903 1448 1529 
Q 2069 2156 2228 2338 
Q 2531 2678 2651 2914 
Q 2772 3150 2772 3378 
Q 2772 3750 2511 3984 
Q 2250 4219 1831 4219 
Q 1534 4219 1204 4116 
Q 875 4013 500 3803 
L 500 4441 
Q 881 4594 1212 4672 
Q 1544 4750 1819 4750 
Q 2544 4750 2975 4387 
Q 3406 4025 3406 3419 
Q 3406 3131 3298 2873 
Q 3191 2616 2906 2266 
Q 2828 2175 2409 1742 
Q 1991 1309 1228 531 
z
" id="DejaVuSans-32" transform="scale(0.015625)"/>
       </defs>
       <use xlink:href="#DejaVuSans-2212"/>
       <use x="83.789062" xlink:href="#DejaVuSans-32"/>
      </g>
     </g>
    </g>
    <g id="xtick_2">
     <g id="line2d_2">
      <g>
       <use style="fill:#262626;stroke:#262626;" x="135.420076" xlink:href="#m5c795a5d72" y="200.82"/>
      </g>
     </g>
     <g id="text_2">
      <!-- −1 -->
      <g style="fill:#262626;" transform="translate(126.574763 218.238125)scale(0.12 -0.12)">
       <defs>
        <path d="M 794 531 
L 1825 531 
L 1825 4091 
L 703 3866 
L 703 4441 
L 1819 4666 
L 2450 4666 
L 2450 531 
L 3481 531 
L 3481 0 
L 794 0 
L 794 531 
z
" id="DejaVuSans-31" transform="scale(0.015625)"/>
       </defs>
       <use xlink:href="#DejaVuSans-2212"/>
       <use x="83.789062" xlink:href="#DejaVuSans-31"/>
      </g>
     </g>
    </g>
    <g id="xtick_3">
     <g id="line2d_3">
      <g>
       <use style="fill:#262626;stroke:#262626;" x="176.440278" xlink:href="#m5c795a5d72" y="200.82"/>
      </g>
     </g>
     <g id="text_3">
      <!-- 0 -->
      <g style="fill:#262626;" transform="translate(172.622778 218.238125)scale(0.12 -0.12)">
       <defs>
        <path d="M 2034 4250 
Q 1547 4250 1301 3770 
Q 1056 3291 1056 2328 
Q 1056 1369 1301 889 
Q 1547 409 2034 409 
Q 2525 409 2770 889 
Q 3016 1369 3016 2328 
Q 3016 3291 2770 3770 
Q 2525 4250 2034 4250 
z
M 2034 4750 
Q 2819 4750 3233 4129 
Q 3647 3509 3647 2328 
Q 3647 1150 3233 529 
Q 2819 -91 2034 -91 
Q 1250 -91 836 529 
Q 422 1150 422 2328 
Q 422 3509 836 4129 
Q 1250 4750 2034 4750 
z
" id="DejaVuSans-30" transform="scale(0.015625)"/>
       </defs>
       <use xlink:href="#DejaVuSans-30"/>
      </g>
     </g>
    </g>
    <g id="xtick_4">
     <g id="line2d_4">
      <g>
       <use style="fill:#262626;stroke:#262626;" x="217.46048" xlink:href="#m5c795a5d72" y="200.82"/>
      </g>
     </g>
     <g id="text_4">
      <!-- 1 -->
      <g style="fill:#262626;" transform="translate(213.64298 218.238125)scale(0.12 -0.12)">
       <use xlink:href="#DejaVuSans-31"/>
      </g>
     </g>
    </g>
    <g id="xtick_5">
     <g id="line2d_5">
      <g>
       <use style="fill:#262626;stroke:#262626;" x="258.480682" xlink:href="#m5c795a5d72" y="200.82"/>
      </g>
     </g>
     <g id="text_5">
      <!-- 2 -->
      <g style="fill:#262626;" transform="translate(254.663182 218.238125)scale(0.12 -0.12)">
       <use xlink:href="#DejaVuSans-32"/>
      </g>
     </g>
    </g>
    <g id="text_6">
     <!-- log2(InA/InB) -->
     <g style="fill:#262626;" transform="translate(130.80375 233.851875)scale(0.12 -0.12)">
      <defs>
       <path d="M 603 4863 
L 1178 4863 
L 1178 0 
L 603 0 
L 603 4863 
z
" id="DejaVuSans-6c" transform="scale(0.015625)"/>
       <path d="M 1959 3097 
Q 1497 3097 1228 2736 
Q 959 2375 959 1747 
Q 959 1119 1226 758 
Q 1494 397 1959 397 
Q 2419 397 2687 759 
Q 2956 1122 2956 1747 
Q 2956 2369 2687 2733 
Q 2419 3097 1959 3097 
z
M 1959 3584 
Q 2709 3584 3137 3096 
Q 3566 2609 3566 1747 
Q 3566 888 3137 398 
Q 2709 -91 1959 -91 
Q 1206 -91 779 398 
Q 353 888 353 1747 
Q 353 2609 779 3096 
Q 1206 3584 1959 3584 
z
" id="DejaVuSans-6f" transform="scale(0.015625)"/>
       <path d="M 2906 1791 
Q 2906 2416 2648 2759 
Q 2391 3103 1925 3103 
Q 1463 3103 1205 2759 
Q 947 2416 947 1791 
Q 947 1169 1205 825 
Q 1463 481 1925 481 
Q 2391 481 2648 825 
Q 2906 1169 2906 1791 
z
M 3481 434 
Q 3481 -459 3084 -895 
Q 2688 -1331 1869 -1331 
Q 1566 -1331 1297 -1286 
Q 1028 -1241 775 -1147 
L 775 -588 
Q 1028 -725 1275 -790 
Q 1522 -856 1778 -856 
Q 2344 -856 2625 -561 
Q 2906 -266 2906 331 
L 2906 616 
Q 2728 306 2450 153 
Q 2172 0 1784 0 
Q 1141 0 747 490 
Q 353 981 353 1791 
Q 353 2603 747 3093 
Q 1141 3584 1784 3584 
Q 2172 3584 2450 3431 
Q 2728 3278 2906 2969 
L 2906 3500 
L 3481 3500 
L 3481 434 
z
" id="DejaVuSans-67" transform="scale(0.015625)"/>
       <path d="M 1984 4856 
Q 1566 4138 1362 3434 
Q 1159 2731 1159 2009 
Q 1159 1288 1364 580 
Q 1569 -128 1984 -844 
L 1484 -844 
Q 1016 -109 783 600 
Q 550 1309 550 2009 
Q 550 2706 781 3412 
Q 1013 4119 1484 4856 
L 1984 4856 
z
" id="DejaVuSans-28" transform="scale(0.015625)"/>
       <path d="M 628 4666 
L 1259 4666 
L 1259 0 
L 628 0 
L 628 4666 
z
" id="DejaVuSans-49" transform="scale(0.015625)"/>
       <path d="M 3513 2113 
L 3513 0 
L 2938 0 
L 2938 2094 
Q 2938 2591 2744 2837 
Q 2550 3084 2163 3084 
Q 1697 3084 1428 2787 
Q 1159 2491 1159 1978 
L 1159 0 
L 581 0 
L 581 3500 
L 1159 3500 
L 1159 2956 
Q 1366 3272 1645 3428 
Q 1925 3584 2291 3584 
Q 2894 3584 3203 3211 
Q 3513 2838 3513 2113 
z
" id="DejaVuSans-6e" transform="scale(0.015625)"/>
       <path d="M 2188 4044 
L 1331 1722 
L 3047 1722 
L 2188 4044 
z
M 1831 4666 
L 2547 4666 
L 4325 0 
L 3669 0 
L 3244 1197 
L 1141 1197 
L 716 0 
L 50 0 
L 1831 4666 
z
" id="DejaVuSans-41" transform="scale(0.015625)"/>
       <path d="M 1625 4666 
L 2156 4666 
L 531 -594 
L 0 -594 
L 1625 4666 
z
" id="DejaVuSans-2f" transform="scale(0.015625)"/>
       <path d="M 1259 2228 
L 1259 519 
L 2272 519 
Q 2781 519 3026 730 
Q 3272 941 3272 1375 
Q 3272 1813 3026 2020 
Q 2781 2228 2272 2228 
L 1259 2228 
z
M 1259 4147 
L 1259 2741 
L 2194 2741 
Q 2656 2741 2882 2914 
Q 3109 3088 3109 3444 
Q 3109 3797 2882 3972 
Q 2656 4147 2194 4147 
L 1259 4147 
z
M 628 4666 
L 2241 4666 
Q 2963 4666 3353 4366 
Q 3744 4066 3744 3513 
Q 3744 3084 3544 2831 
Q 3344 2578 2956 2516 
Q 3422 2416 3680 2098 
Q 3938 1781 3938 1306 
Q 3938 681 3513 340 
Q 3088 0 2303 0 
L 628 0 
L 628 4666 
z
" id="DejaVuSans-42" transform="scale(0.015625)"/>
       <path d="M 513 4856 
L 1013 4856 
Q 1481 4119 1714 3412 
Q 1947 2706 1947 2009 
Q 1947 1309 1714 600 
Q 1481 -109 1013 -844 
L 513 -844 
Q 928 -128 1133 580 
Q 1338 1288 1338 2009 
Q 1338 2731 1133 3434 
Q 928 4138 513 4856 
z
" id="DejaVuSans-29" transform="scale(0.015625)"/>
      </defs>
      <use xlink:href="#DejaVuSans-6c"/>
      <use x="27.783203" xlink:href="#DejaVuSans-6f"/>
      <use x="88.964844" xlink:href="#DejaVuSans-67"/>
      <use x="152.441406" xlink:href="#DejaVuSans-32"/>
      <use x="216.064453" xlink:href="#DejaVuSans-28"/>
      <use x="255.078125" xlink:href="#DejaVuSans-49"/>
      <use x="284.570312" xlink:href="#DejaVuSans-6e"/>
      <use x="347.949219" xlink:href="#DejaVuSans-41"/>
      <use x="416.357422" xlink:href="#DejaVuSans-2f"/>
      <use x="450.048828" xlink:href="#DejaVuSans-49"/>
      <use x="479.541016" xlink:href="#DejaVuSans-6e"/>
      <use x="542.919922" xlink:href="#DejaVuSans-42"/>
      <use x="611.523438" xlink:href="#DejaVuSans-29"/>
     </g>
    </g>
   </g>
   <g id="matplotlib.axis_2">
    <g id="ytick_1">
     <g id="line2d_6">
      <defs>
       <path d="M 0 0 
L -4.8 0 
" id="m7ba841b050" style="stroke:#262626;"/>
      </defs>
      <g>
       <use style="fill:#262626;stroke:#262626;" x="72.33" xlink:href="#m7ba841b050" y="182.0529"/>
      </g>
     </g>
     <g id="text_7">
      <!-- 0.80 -->
      <g style="fill:#262626;" transform="translate(37.31125 186.611963)scale(0.12 -0.12)">
       <defs>
        <path d="M 684 794 
L 1344 794 
L 1344 0 
L 684 0 
L 684 794 
z
" id="DejaVuSans-2e" transform="scale(0.015625)"/>
        <path d="M 2034 2216 
Q 1584 2216 1326 1975 
Q 1069 1734 1069 1313 
Q 1069 891 1326 650 
Q 1584 409 2034 409 
Q 2484 409 2743 651 
Q 3003 894 3003 1313 
Q 3003 1734 2745 1975 
Q 2488 2216 2034 2216 
z
M 1403 2484 
Q 997 2584 770 2862 
Q 544 3141 544 3541 
Q 544 4100 942 4425 
Q 1341 4750 2034 4750 
Q 2731 4750 3128 4425 
Q 3525 4100 3525 3541 
Q 3525 3141 3298 2862 
Q 3072 2584 2669 2484 
Q 3125 2378 3379 2068 
Q 3634 1759 3634 1313 
Q 3634 634 3220 271 
Q 2806 -91 2034 -91 
Q 1263 -91 848 271 
Q 434 634 434 1313 
Q 434 1759 690 2068 
Q 947 2378 1403 2484 
z
M 1172 3481 
Q 1172 3119 1398 2916 
Q 1625 2713 2034 2713 
Q 2441 2713 2670 2916 
Q 2900 3119 2900 3481 
Q 2900 3844 2670 4047 
Q 2441 4250 2034 4250 
Q 1625 4250 1398 4047 
Q 1172 3844 1172 3481 
z
" id="DejaVuSans-38" transform="scale(0.015625)"/>
       </defs>
       <use xlink:href="#DejaVuSans-30"/>
       <use x="63.623047" xlink:href="#DejaVuSans-2e"/>
       <use x="95.410156" xlink:href="#DejaVuSans-38"/>
       <use x="159.033203" xlink:href="#DejaVuSans-30"/>
      </g>
     </g>
    </g>
    <g id="ytick_2">
     <g id="line2d_7">
      <g>
       <use style="fill:#262626;stroke:#262626;" x="72.33" xlink:href="#m7ba841b050" y="135.13515"/>
      </g>
     </g>
     <g id="text_8">
      <!-- 0.85 -->
      <g style="fill:#262626;" transform="translate(37.31125 139.694213)scale(0.12 -0.12)">
       <defs>
        <path d="M 691 4666 
L 3169 4666 
L 3169 4134 
L 1269 4134 
L 1269 2991 
Q 1406 3038 1543 3061 
Q 1681 3084 1819 3084 
Q 2600 3084 3056 2656 
Q 3513 2228 3513 1497 
Q 3513 744 3044 326 
Q 2575 -91 1722 -91 
Q 1428 -91 1123 -41 
Q 819 9 494 109 
L 494 744 
Q 775 591 1075 516 
Q 1375 441 1709 441 
Q 2250 441 2565 725 
Q 2881 1009 2881 1497 
Q 2881 1984 2565 2268 
Q 2250 2553 1709 2553 
Q 1456 2553 1204 2497 
Q 953 2441 691 2322 
L 691 4666 
z
" id="DejaVuSans-35" transform="scale(0.015625)"/>
       </defs>
       <use xlink:href="#DejaVuSans-30"/>
       <use x="63.623047" xlink:href="#DejaVuSans-2e"/>
       <use x="95.410156" xlink:href="#DejaVuSans-38"/>
       <use x="159.033203" xlink:href="#DejaVuSans-35"/>
      </g>
     </g>
    </g>
    <g id="ytick_3">
     <g id="line2d_8">
      <g>
       <use style="fill:#262626;stroke:#262626;" x="72.33" xlink:href="#m7ba841b050" y="88.2174"/>
      </g>
     </g>
     <g id="text_9">
      <!-- 0.90 -->
      <g style="fill:#262626;" transform="translate(37.31125 92.776463)scale(0.12 -0.12)">
       <defs>
        <path d="M 703 97 
L 703 672 
Q 941 559 1184 500 
Q 1428 441 1663 441 
Q 2288 441 2617 861 
Q 2947 1281 2994 2138 
Q 2813 1869 2534 1725 
Q 2256 1581 1919 1581 
Q 1219 1581 811 2004 
Q 403 2428 403 3163 
Q 403 3881 828 4315 
Q 1253 4750 1959 4750 
Q 2769 4750 3195 4129 
Q 3622 3509 3622 2328 
Q 3622 1225 3098 567 
Q 2575 -91 1691 -91 
Q 1453 -91 1209 -44 
Q 966 3 703 97 
z
M 1959 2075 
Q 2384 2075 2632 2365 
Q 2881 2656 2881 3163 
Q 2881 3666 2632 3958 
Q 2384 4250 1959 4250 
Q 1534 4250 1286 3958 
Q 1038 3666 1038 3163 
Q 1038 2656 1286 2365 
Q 1534 2075 1959 2075 
z
" id="DejaVuSans-39" transform="scale(0.015625)"/>
       </defs>
       <use xlink:href="#DejaVuSans-30"/>
       <use x="63.623047" xlink:href="#DejaVuSans-2e"/>
       <use x="95.410156" xlink:href="#DejaVuSans-39"/>
       <use x="159.033203" xlink:href="#DejaVuSans-30"/>
      </g>
     </g>
    </g>
    <g id="ytick_4">
     <g id="line2d_9">
      <g>
       <use style="fill:#262626;stroke:#262626;" x="72.33" xlink:href="#m7ba841b050" y="41.29965"/>
      </g>
     </g>
     <g id="text_10">
      <!-- 0.95 -->
      <g style="fill:#262626;" transform="translate(37.31125 45.858713)scale(0.12 -0.12)">
       <use xlink:href="#DejaVuSans-30"/>
       <use x="63.623047" xlink:href="#DejaVuSans-2e"/>
       <use x="95.410156" xlink:href="#DejaVuSans-39"/>
       <use x="159.033203" xlink:href="#DejaVuSans-35"/>
      </g>
     </g>
    </g>
    <g id="text_11">
     <!-- Fraction of 01 &amp; 10 States -->
     <g style="fill:#262626;" transform="translate(30.815625 185.210438)rotate(-90)scale(0.12 -0.12)">
      <defs>
       <path d="M 628 4666 
L 3309 4666 
L 3309 4134 
L 1259 4134 
L 1259 2759 
L 3109 2759 
L 3109 2228 
L 1259 2228 
L 1259 0 
L 628 0 
L 628 4666 
z
" id="DejaVuSans-46" transform="scale(0.015625)"/>
       <path d="M 2631 2963 
Q 2534 3019 2420 3045 
Q 2306 3072 2169 3072 
Q 1681 3072 1420 2755 
Q 1159 2438 1159 1844 
L 1159 0 
L 581 0 
L 581 3500 
L 1159 3500 
L 1159 2956 
Q 1341 3275 1631 3429 
Q 1922 3584 2338 3584 
Q 2397 3584 2469 3576 
Q 2541 3569 2628 3553 
L 2631 2963 
z
" id="DejaVuSans-72" transform="scale(0.015625)"/>
       <path d="M 2194 1759 
Q 1497 1759 1228 1600 
Q 959 1441 959 1056 
Q 959 750 1161 570 
Q 1363 391 1709 391 
Q 2188 391 2477 730 
Q 2766 1069 2766 1631 
L 2766 1759 
L 2194 1759 
z
M 3341 1997 
L 3341 0 
L 2766 0 
L 2766 531 
Q 2569 213 2275 61 
Q 1981 -91 1556 -91 
Q 1019 -91 701 211 
Q 384 513 384 1019 
Q 384 1609 779 1909 
Q 1175 2209 1959 2209 
L 2766 2209 
L 2766 2266 
Q 2766 2663 2505 2880 
Q 2244 3097 1772 3097 
Q 1472 3097 1187 3025 
Q 903 2953 641 2809 
L 641 3341 
Q 956 3463 1253 3523 
Q 1550 3584 1831 3584 
Q 2591 3584 2966 3190 
Q 3341 2797 3341 1997 
z
" id="DejaVuSans-61" transform="scale(0.015625)"/>
       <path d="M 3122 3366 
L 3122 2828 
Q 2878 2963 2633 3030 
Q 2388 3097 2138 3097 
Q 1578 3097 1268 2742 
Q 959 2388 959 1747 
Q 959 1106 1268 751 
Q 1578 397 2138 397 
Q 2388 397 2633 464 
Q 2878 531 3122 666 
L 3122 134 
Q 2881 22 2623 -34 
Q 2366 -91 2075 -91 
Q 1284 -91 818 406 
Q 353 903 353 1747 
Q 353 2603 823 3093 
Q 1294 3584 2113 3584 
Q 2378 3584 2631 3529 
Q 2884 3475 3122 3366 
z
" id="DejaVuSans-63" transform="scale(0.015625)"/>
       <path d="M 1172 4494 
L 1172 3500 
L 2356 3500 
L 2356 3053 
L 1172 3053 
L 1172 1153 
Q 1172 725 1289 603 
Q 1406 481 1766 481 
L 2356 481 
L 2356 0 
L 1766 0 
Q 1100 0 847 248 
Q 594 497 594 1153 
L 594 3053 
L 172 3053 
L 172 3500 
L 594 3500 
L 594 4494 
L 1172 4494 
z
" id="DejaVuSans-74" transform="scale(0.015625)"/>
       <path d="M 603 3500 
L 1178 3500 
L 1178 0 
L 603 0 
L 603 3500 
z
M 603 4863 
L 1178 4863 
L 1178 4134 
L 603 4134 
L 603 4863 
z
" id="DejaVuSans-69" transform="scale(0.015625)"/>
       <path id="DejaVuSans-20" transform="scale(0.015625)"/>
       <path d="M 2375 4863 
L 2375 4384 
L 1825 4384 
Q 1516 4384 1395 4259 
Q 1275 4134 1275 3809 
L 1275 3500 
L 2222 3500 
L 2222 3053 
L 1275 3053 
L 1275 0 
L 697 0 
L 697 3053 
L 147 3053 
L 147 3500 
L 697 3500 
L 697 3744 
Q 697 4328 969 4595 
Q 1241 4863 1831 4863 
L 2375 4863 
z
" id="DejaVuSans-66" transform="scale(0.015625)"/>
       <path d="M 1556 2509 
Q 1272 2256 1139 2004 
Q 1006 1753 1006 1478 
Q 1006 1022 1337 719 
Q 1669 416 2169 416 
Q 2466 416 2725 514 
Q 2984 613 3213 813 
L 1556 2509 
z
M 1997 2859 
L 3584 1234 
Q 3769 1513 3872 1830 
Q 3975 2147 3994 2503 
L 4575 2503 
Q 4538 2091 4375 1687 
Q 4213 1284 3922 891 
L 4794 0 
L 4006 0 
L 3559 459 
Q 3234 181 2878 45 
Q 2522 -91 2113 -91 
Q 1359 -91 881 339 
Q 403 769 403 1441 
Q 403 1841 612 2192 
Q 822 2544 1241 2853 
Q 1091 3050 1012 3245 
Q 934 3441 934 3628 
Q 934 4134 1281 4442 
Q 1628 4750 2203 4750 
Q 2463 4750 2720 4694 
Q 2978 4638 3244 4525 
L 3244 3956 
Q 2972 4103 2725 4179 
Q 2478 4256 2266 4256 
Q 1938 4256 1733 4082 
Q 1528 3909 1528 3634 
Q 1528 3475 1620 3314 
Q 1713 3153 1997 2859 
z
" id="DejaVuSans-26" transform="scale(0.015625)"/>
       <path d="M 3425 4513 
L 3425 3897 
Q 3066 4069 2747 4153 
Q 2428 4238 2131 4238 
Q 1616 4238 1336 4038 
Q 1056 3838 1056 3469 
Q 1056 3159 1242 3001 
Q 1428 2844 1947 2747 
L 2328 2669 
Q 3034 2534 3370 2195 
Q 3706 1856 3706 1288 
Q 3706 609 3251 259 
Q 2797 -91 1919 -91 
Q 1588 -91 1214 -16 
Q 841 59 441 206 
L 441 856 
Q 825 641 1194 531 
Q 1563 422 1919 422 
Q 2459 422 2753 634 
Q 3047 847 3047 1241 
Q 3047 1584 2836 1778 
Q 2625 1972 2144 2069 
L 1759 2144 
Q 1053 2284 737 2584 
Q 422 2884 422 3419 
Q 422 4038 858 4394 
Q 1294 4750 2059 4750 
Q 2388 4750 2728 4690 
Q 3069 4631 3425 4513 
z
" id="DejaVuSans-53" transform="scale(0.015625)"/>
       <path d="M 3597 1894 
L 3597 1613 
L 953 1613 
Q 991 1019 1311 708 
Q 1631 397 2203 397 
Q 2534 397 2845 478 
Q 3156 559 3463 722 
L 3463 178 
Q 3153 47 2828 -22 
Q 2503 -91 2169 -91 
Q 1331 -91 842 396 
Q 353 884 353 1716 
Q 353 2575 817 3079 
Q 1281 3584 2069 3584 
Q 2775 3584 3186 3129 
Q 3597 2675 3597 1894 
z
M 3022 2063 
Q 3016 2534 2758 2815 
Q 2500 3097 2075 3097 
Q 1594 3097 1305 2825 
Q 1016 2553 972 2059 
L 3022 2063 
z
" id="DejaVuSans-65" transform="scale(0.015625)"/>
       <path d="M 2834 3397 
L 2834 2853 
Q 2591 2978 2328 3040 
Q 2066 3103 1784 3103 
Q 1356 3103 1142 2972 
Q 928 2841 928 2578 
Q 928 2378 1081 2264 
Q 1234 2150 1697 2047 
L 1894 2003 
Q 2506 1872 2764 1633 
Q 3022 1394 3022 966 
Q 3022 478 2636 193 
Q 2250 -91 1575 -91 
Q 1294 -91 989 -36 
Q 684 19 347 128 
L 347 722 
Q 666 556 975 473 
Q 1284 391 1588 391 
Q 1994 391 2212 530 
Q 2431 669 2431 922 
Q 2431 1156 2273 1281 
Q 2116 1406 1581 1522 
L 1381 1569 
Q 847 1681 609 1914 
Q 372 2147 372 2553 
Q 372 3047 722 3315 
Q 1072 3584 1716 3584 
Q 2034 3584 2315 3537 
Q 2597 3491 2834 3397 
z
" id="DejaVuSans-73" transform="scale(0.015625)"/>
      </defs>
      <use xlink:href="#DejaVuSans-46"/>
      <use x="50.269531" xlink:href="#DejaVuSans-72"/>
      <use x="91.382812" xlink:href="#DejaVuSans-61"/>
      <use x="152.662109" xlink:href="#DejaVuSans-63"/>
      <use x="207.642578" xlink:href="#DejaVuSans-74"/>
      <use x="246.851562" xlink:href="#DejaVuSans-69"/>
      <use x="274.634766" xlink:href="#DejaVuSans-6f"/>
      <use x="335.816406" xlink:href="#DejaVuSans-6e"/>
      <use x="399.195312" xlink:href="#DejaVuSans-20"/>
      <use x="430.982422" xlink:href="#DejaVuSans-6f"/>
      <use x="492.164062" xlink:href="#DejaVuSans-66"/>
      <use x="527.369141" xlink:href="#DejaVuSans-20"/>
      <use x="559.15625" xlink:href="#DejaVuSans-30"/>
      <use x="622.779297" xlink:href="#DejaVuSans-31"/>
      <use x="686.402344" xlink:href="#DejaVuSans-20"/>
      <use x="718.189453" xlink:href="#DejaVuSans-26"/>
      <use x="796.167969" xlink:href="#DejaVuSans-20"/>
      <use x="827.955078" xlink:href="#DejaVuSans-31"/>
      <use x="891.578125" xlink:href="#DejaVuSans-30"/>
      <use x="955.201172" xlink:href="#DejaVuSans-20"/>
      <use x="986.988281" xlink:href="#DejaVuSans-53"/>
      <use x="1050.464844" xlink:href="#DejaVuSans-74"/>
      <use x="1089.673828" xlink:href="#DejaVuSans-61"/>
      <use x="1150.953125" xlink:href="#DejaVuSans-74"/>
      <use x="1190.162109" xlink:href="#DejaVuSans-65"/>
      <use x="1251.685547" xlink:href="#DejaVuSans-73"/>
     </g>
    </g>
   </g>
   <g id="PathCollection_1">
    <path clip-path="url(#p1fc04c30a1)" d="M 175.640278 120.059541 
L 177.240278 120.059541 
L 177.240278 118.459541 
L 178.840278 118.459541 
L 178.840278 116.859541 
L 177.240278 116.859541 
L 177.240278 115.259541 
L 175.640278 115.259541 
L 175.640278 116.859541 
L 174.040278 116.859541 
L 174.040278 118.459541 
L 175.640278 118.459541 
z
" style="fill:#4c72b0;stroke:#ffffff;stroke-width:0.384;"/>
    <path clip-path="url(#p1fc04c30a1)" d="M 134.620076 94.784788 
L 136.220076 94.784788 
L 136.220076 93.184788 
L 137.820076 93.184788 
L 137.820076 91.584788 
L 136.220076 91.584788 
L 136.220076 89.984788 
L 134.620076 89.984788 
L 134.620076 91.584788 
L 133.020076 91.584788 
L 133.020076 93.184788 
L 134.620076 93.184788 
z
" style="fill:#4c72b0;stroke:#ffffff;stroke-width:0.384;"/>
    <path clip-path="url(#p1fc04c30a1)" d="M 134.620076 98.982016 
L 136.220076 98.982016 
L 136.220076 97.382016 
L 137.820076 97.382016 
L 137.820076 95.782016 
L 136.220076 95.782016 
L 136.220076 94.182016 
L 134.620076 94.182016 
L 134.620076 95.782016 
L 133.020076 95.782016 
L 133.020076 97.382016 
L 134.620076 97.382016 
z
" style="fill:#4c72b0;stroke:#ffffff;stroke-width:0.384;"/>
    <path clip-path="url(#p1fc04c30a1)" d="M 175.640278 122.78731 
L 177.240278 122.78731 
L 177.240278 121.18731 
L 178.840278 121.18731 
L 178.840278 119.58731 
L 177.240278 119.58731 
L 177.240278 117.98731 
L 175.640278 117.98731 
L 175.640278 119.58731 
L 174.040278 119.58731 
L 174.040278 121.18731 
L 175.640278 121.18731 
z
" style="fill:#4c72b0;stroke:#ffffff;stroke-width:0.384;"/>
    <path clip-path="url(#p1fc04c30a1)" d="M 175.640278 99.226558 
L 177.240278 99.226558 
L 177.240278 97.626558 
L 178.840278 97.626558 
L 178.840278 96.026558 
L 177.240278 96.026558 
L 177.240278 94.426558 
L 175.640278 94.426558 
L 175.640278 96.026558 
L 174.040278 96.026558 
L 174.040278 97.626558 
L 175.640278 97.626558 
z
" style="fill:#4c72b0;stroke:#ffffff;stroke-width:0.384;"/>
    <path clip-path="url(#p1fc04c30a1)" d="M 134.620076 107.846075 
L 136.220076 107.846075 
L 136.220076 106.246075 
L 137.820076 106.246075 
L 137.820076 104.646075 
L 136.220076 104.646075 
L 136.220076 103.046075 
L 134.620076 103.046075 
L 134.620076 104.646075 
L 133.020076 104.646075 
L 133.020076 106.246075 
L 134.620076 106.246075 
z
" style="fill:#4c72b0;stroke:#ffffff;stroke-width:0.384;"/>
    <path clip-path="url(#p1fc04c30a1)" d="M 199.635558 93.774543 
L 201.235558 93.774543 
L 201.235558 92.174543 
L 202.835558 92.174543 
L 202.835558 90.574543 
L 201.235558 90.574543 
L 201.235558 88.974543 
L 199.635558 88.974543 
L 199.635558 90.574543 
L 198.035558 90.574543 
L 198.035558 92.174543 
L 199.635558 92.174543 
z
" style="fill:#4c72b0;stroke:#ffffff;stroke-width:0.384;"/>
    <path clip-path="url(#p1fc04c30a1)" d="M 151.644998 43.028205 
L 153.244998 43.028205 
L 153.244998 41.428205 
L 154.844998 41.428205 
L 154.844998 39.828205 
L 153.244998 39.828205 
L 153.244998 38.228205 
L 151.644998 38.228205 
L 151.644998 39.828205 
L 150.044998 39.828205 
L 150.044998 41.428205 
L 151.644998 41.428205 
z
" style="fill:#4c72b0;stroke:#ffffff;stroke-width:0.384;"/>
    <path clip-path="url(#p1fc04c30a1)" d="M 175.640278 117.659256 
L 177.240278 117.659256 
L 177.240278 116.059256 
L 178.840278 116.059256 
L 178.840278 114.459256 
L 177.240278 114.459256 
L 177.240278 112.859256 
L 175.640278 112.859256 
L 175.640278 114.459256 
L 174.040278 114.459256 
L 174.040278 116.059256 
L 175.640278 116.059256 
z
" style="fill:#4c72b0;stroke:#ffffff;stroke-width:0.384;"/>
    <path clip-path="url(#p1fc04c30a1)" d="M 175.640278 44.22504 
L 177.240278 44.22504 
L 177.240278 42.62504 
L 178.840278 42.62504 
L 178.840278 41.02504 
L 177.240278 41.02504 
L 177.240278 39.42504 
L 175.640278 39.42504 
L 175.640278 41.02504 
L 174.040278 41.02504 
L 174.040278 42.62504 
L 175.640278 42.62504 
z
" style="fill:#4c72b0;stroke:#ffffff;stroke-width:0.384;"/>
    <path clip-path="url(#p1fc04c30a1)" d="M 151.644998 58.014019 
L 153.244998 58.014019 
L 153.244998 56.414019 
L 154.844998 56.414019 
L 154.844998 54.814019 
L 153.244998 54.814019 
L 153.244998 53.214019 
L 151.644998 53.214019 
L 151.644998 54.814019 
L 150.044998 54.814019 
L 150.044998 56.414019 
L 151.644998 56.414019 
z
" style="fill:#4c72b0;stroke:#ffffff;stroke-width:0.384;"/>
    <path clip-path="url(#p1fc04c30a1)" d="M 134.620076 60.931613 
L 136.220076 60.931613 
L 136.220076 59.331613 
L 137.820076 59.331613 
L 137.820076 57.731613 
L 136.220076 57.731613 
L 136.220076 56.131613 
L 134.620076 56.131613 
L 134.620076 57.731613 
L 133.020076 57.731613 
L 133.020076 59.331613 
L 134.620076 59.331613 
z
" style="fill:#4c72b0;stroke:#ffffff;stroke-width:0.384;"/>
    <path clip-path="url(#p1fc04c30a1)" d="M 175.640278 116.187938 
L 177.240278 116.187938 
L 177.240278 114.587938 
L 178.840278 114.587938 
L 178.840278 112.987938 
L 177.240278 112.987938 
L 177.240278 111.387938 
L 175.640278 111.387938 
L 175.640278 112.987938 
L 174.040278 112.987938 
L 174.040278 114.587938 
L 175.640278 114.587938 
z
" style="fill:#4c72b0;stroke:#ffffff;stroke-width:0.384;"/>
    <path clip-path="url(#p1fc04c30a1)" d="M 134.620076 78.744803 
L 136.220076 78.744803 
L 136.220076 77.144803 
L 137.820076 77.144803 
L 137.820076 75.544803 
L 136.220076 75.544803 
L 136.220076 73.944803 
L 134.620076 73.944803 
L 134.620076 75.544803 
L 133.020076 75.544803 
L 133.020076 77.144803 
L 134.620076 77.144803 
z
" style="fill:#4c72b0;stroke:#ffffff;stroke-width:0.384;"/>
    <path clip-path="url(#p1fc04c30a1)" d="M 240.65576 68.751462 
L 242.25576 68.751462 
L 242.25576 67.151462 
L 243.85576 67.151462 
L 243.85576 65.551462 
L 242.25576 65.551462 
L 242.25576 63.951462 
L 240.65576 63.951462 
L 240.65576 65.551462 
L 239.05576 65.551462 
L 239.05576 67.151462 
L 240.65576 67.151462 
z
" style="fill:#4c72b0;stroke:#ffffff;stroke-width:0.384;"/>
    <path clip-path="url(#p1fc04c30a1)" d="M 151.644998 67.857223 
L 153.244998 67.857223 
L 153.244998 66.257223 
L 154.844998 66.257223 
L 154.844998 64.657223 
L 153.244998 64.657223 
L 153.244998 63.057223 
L 151.644998 63.057223 
L 151.644998 64.657223 
L 150.044998 64.657223 
L 150.044998 66.257223 
L 151.644998 66.257223 
z
" style="fill:#4c72b0;stroke:#ffffff;stroke-width:0.384;"/>
    <path clip-path="url(#p1fc04c30a1)" d="M 175.640278 118.965027 
L 177.240278 118.965027 
L 177.240278 117.365027 
L 178.840278 117.365027 
L 178.840278 115.765027 
L 177.240278 115.765027 
L 177.240278 114.165027 
L 175.640278 114.165027 
L 175.640278 115.765027 
L 174.040278 115.765027 
L 174.040278 117.365027 
L 175.640278 117.365027 
z
" style="fill:#4c72b0;stroke:#ffffff;stroke-width:0.384;"/>
    <path clip-path="url(#p1fc04c30a1)" d="M 240.65576 131.364228 
L 242.25576 131.364228 
L 242.25576 129.764228 
L 243.85576 129.764228 
L 243.85576 128.164228 
L 242.25576 128.164228 
L 242.25576 126.564228 
L 240.65576 126.564228 
L 240.65576 128.164228 
L 239.05576 128.164228 
L 239.05576 129.764228 
L 240.65576 129.764228 
z
" style="fill:#4c72b0;stroke:#ffffff;stroke-width:0.384;"/>
    <path clip-path="url(#p1fc04c30a1)" d="M 134.620076 93.256857 
L 136.220076 93.256857 
L 136.220076 91.656857 
L 137.820076 91.656857 
L 137.820076 90.056857 
L 136.220076 90.056857 
L 136.220076 88.456857 
L 134.620076 88.456857 
L 134.620076 90.056857 
L 133.020076 90.056857 
L 133.020076 91.656857 
L 134.620076 91.656857 
z
" style="fill:#4c72b0;stroke:#ffffff;stroke-width:0.384;"/>
    <path clip-path="url(#p1fc04c30a1)" d="M 199.635558 58.383438 
L 201.235558 58.383438 
L 201.235558 56.783438 
L 202.835558 56.783438 
L 202.835558 55.183438 
L 201.235558 55.183438 
L 201.235558 53.583438 
L 199.635558 53.583438 
L 199.635558 55.183438 
L 198.035558 55.183438 
L 198.035558 56.783438 
L 199.635558 56.783438 
z
" style="fill:#4c72b0;stroke:#ffffff;stroke-width:0.384;"/>
    <path clip-path="url(#p1fc04c30a1)" d="M 134.620076 121.048725 
L 136.220076 121.048725 
L 136.220076 119.448725 
L 137.820076 119.448725 
L 137.820076 117.848725 
L 136.220076 117.848725 
L 136.220076 116.248725 
L 134.620076 116.248725 
L 134.620076 117.848725 
L 133.020076 117.848725 
L 133.020076 119.448725 
L 134.620076 119.448725 
z
" style="fill:#4c72b0;stroke:#ffffff;stroke-width:0.384;"/>
    <path clip-path="url(#p1fc04c30a1)" d="M 134.620076 120.228702 
L 136.220076 120.228702 
L 136.220076 118.628702 
L 137.820076 118.628702 
L 137.820076 117.028702 
L 136.220076 117.028702 
L 136.220076 115.428702 
L 134.620076 115.428702 
L 134.620076 117.028702 
L 133.020076 117.028702 
L 133.020076 118.628702 
L 134.620076 118.628702 
z
" style="fill:#4c72b0;stroke:#ffffff;stroke-width:0.384;"/>
    <path clip-path="url(#p1fc04c30a1)" d="M 175.640278 77.971789 
L 177.240278 77.971789 
L 177.240278 76.371789 
L 178.840278 76.371789 
L 178.840278 74.771789 
L 177.240278 74.771789 
L 177.240278 73.171789 
L 175.640278 73.171789 
L 175.640278 74.771789 
L 174.040278 74.771789 
L 174.040278 76.371789 
L 175.640278 76.371789 
z
" style="fill:#4c72b0;stroke:#ffffff;stroke-width:0.384;"/>
    <path clip-path="url(#p1fc04c30a1)" d="M 134.620076 67.975301 
L 136.220076 67.975301 
L 136.220076 66.375301 
L 137.820076 66.375301 
L 137.820076 64.775301 
L 136.220076 64.775301 
L 136.220076 63.175301 
L 134.620076 63.175301 
L 134.620076 64.775301 
L 133.020076 64.775301 
L 133.020076 66.375301 
L 134.620076 66.375301 
z
" style="fill:#4c72b0;stroke:#ffffff;stroke-width:0.384;"/>
    <path clip-path="url(#p1fc04c30a1)" d="M 151.644998 114.89841 
L 153.244998 114.89841 
L 153.244998 113.29841 
L 154.844998 113.29841 
L 154.844998 111.69841 
L 153.244998 111.69841 
L 153.244998 110.09841 
L 151.644998 110.09841 
L 151.644998 111.69841 
L 150.044998 111.69841 
L 150.044998 113.29841 
L 151.644998 113.29841 
z
" style="fill:#4c72b0;stroke:#ffffff;stroke-width:0.384;"/>
    <path clip-path="url(#p1fc04c30a1)" d="M 200.435558 123.396381 
C 201.072045 123.396381 201.682549 123.143502 202.132614 122.693437 
C 202.582679 122.243373 202.835558 121.632869 202.835558 120.996381 
C 202.835558 120.359894 202.582679 119.749389 202.132614 119.299325 
C 201.682549 118.84926 201.072045 118.596381 200.435558 118.596381 
C 199.79907 118.596381 199.188566 118.84926 198.738501 119.299325 
C 198.288437 119.749389 198.035558 120.359894 198.035558 120.996381 
C 198.035558 121.632869 198.288437 122.243373 198.738501 122.693437 
C 199.188566 123.143502 199.79907 123.396381 200.435558 123.396381 
z
" style="fill:#c44e52;stroke:#ffffff;stroke-width:0.384;"/>
    <path clip-path="url(#p1fc04c30a1)" d="M 217.46048 100.282932 
C 218.096967 100.282932 218.707471 100.030052 219.157536 99.579988 
C 219.607601 99.129923 219.86048 98.519419 219.86048 97.882932 
C 219.86048 97.246444 219.607601 96.63594 219.157536 96.185875 
C 218.707471 95.735811 218.096967 95.482932 217.46048 95.482932 
C 216.823992 95.482932 216.213488 95.735811 215.763424 96.185875 
C 215.313359 96.63594 215.06048 97.246444 215.06048 97.882932 
C 215.06048 98.519419 215.313359 99.129923 215.763424 99.579988 
C 216.213488 100.030052 216.823992 100.282932 217.46048 100.282932 
z
" style="fill:#c44e52;stroke:#ffffff;stroke-width:0.384;"/>
    <path clip-path="url(#p1fc04c30a1)" d="M 176.440278 25.075382 
C 177.076765 25.075382 177.687269 24.822503 178.137334 24.372438 
C 178.587399 23.922374 178.840278 23.311869 178.840278 22.675382 
C 178.840278 22.038895 178.587399 21.42839 178.137334 20.978326 
C 177.687269 20.528261 177.076765 20.275382 176.440278 20.275382 
C 175.80379 20.275382 175.193286 20.528261 174.743221 20.978326 
C 174.293157 21.42839 174.040278 22.038895 174.040278 22.675382 
C 174.040278 23.311869 174.293157 23.922374 174.743221 24.372438 
C 175.193286 24.822503 175.80379 25.075382 176.440278 25.075382 
z
" style="fill:#c44e52;stroke:#ffffff;stroke-width:0.384;"/>
    <path clip-path="url(#p1fc04c30a1)" d="M 176.440278 29.132613 
C 177.076765 29.132613 177.687269 28.879733 178.137334 28.429669 
C 178.587399 27.979604 178.840278 27.3691 178.840278 26.732613 
C 178.840278 26.096125 178.587399 25.485621 178.137334 25.035556 
C 177.687269 24.585492 177.076765 24.332613 176.440278 24.332613 
C 175.80379 24.332613 175.193286 24.585492 174.743221 25.035556 
C 174.293157 25.485621 174.040278 26.096125 174.040278 26.732613 
C 174.040278 27.3691 174.293157 27.979604 174.743221 28.429669 
C 175.193286 28.879733 175.80379 29.132613 176.440278 29.132613 
z
" style="fill:#c44e52;stroke:#ffffff;stroke-width:0.384;"/>
    <path clip-path="url(#p1fc04c30a1)" d="M 176.440278 106.224653 
C 177.076765 106.224653 177.687269 105.971774 178.137334 105.521709 
C 178.587399 105.071645 178.840278 104.461141 178.840278 103.824653 
C 178.840278 103.188166 178.587399 102.577661 178.137334 102.127597 
C 177.687269 101.677532 177.076765 101.424653 176.440278 101.424653 
C 175.80379 101.424653 175.193286 101.677532 174.743221 102.127597 
C 174.293157 102.577661 174.040278 103.188166 174.040278 103.824653 
C 174.040278 104.461141 174.293157 105.071645 174.743221 105.521709 
C 175.193286 105.971774 175.80379 106.224653 176.440278 106.224653 
z
" style="fill:#c44e52;stroke:#ffffff;stroke-width:0.384;"/>
    <path clip-path="url(#p1fc04c30a1)" d="M 135.420076 102.466046 
C 136.056563 102.466046 136.667067 102.213167 137.117132 101.763102 
C 137.567197 101.313038 137.820076 100.702533 137.820076 100.066046 
C 137.820076 99.429559 137.567197 98.819054 137.117132 98.36899 
C 136.667067 97.918925 136.056563 97.666046 135.420076 97.666046 
C 134.783588 97.666046 134.173084 97.918925 133.723019 98.36899 
C 133.272955 98.819054 133.020076 99.429559 133.020076 100.066046 
C 133.020076 100.702533 133.272955 101.313038 133.723019 101.763102 
C 134.173084 102.213167 134.783588 102.466046 135.420076 102.466046 
z
" style="fill:#c44e52;stroke:#ffffff;stroke-width:0.384;"/>
    <path clip-path="url(#p1fc04c30a1)" d="M 111.424796 46.120932 
C 112.061283 46.120932 112.671787 45.868052 113.121852 45.417988 
C 113.571917 44.967923 113.824796 44.357419 113.824796 43.720932 
C 113.824796 43.084444 113.571917 42.47394 113.121852 42.023875 
C 112.671787 41.573811 112.061283 41.320932 111.424796 41.320932 
C 110.788308 41.320932 110.177804 41.573811 109.727739 42.023875 
C 109.277675 42.47394 109.024796 43.084444 109.024796 43.720932 
C 109.024796 44.357419 109.277675 44.967923 109.727739 45.417988 
C 110.177804 45.868052 110.788308 46.120932 111.424796 46.120932 
z
" style="fill:#c44e52;stroke:#ffffff;stroke-width:0.384;"/>
    <path clip-path="url(#p1fc04c30a1)" d="M 200.435558 68.504249 
C 201.072045 68.504249 201.682549 68.25137 202.132614 67.801305 
C 202.582679 67.351241 202.835558 66.740736 202.835558 66.104249 
C 202.835558 65.467761 202.582679 64.857257 202.132614 64.407193 
C 201.682549 63.957128 201.072045 63.704249 200.435558 63.704249 
C 199.79907 63.704249 199.188566 63.957128 198.738501 64.407193 
C 198.288437 64.857257 198.035558 65.467761 198.035558 66.104249 
C 198.035558 66.740736 198.288437 67.351241 198.738501 67.801305 
C 199.188566 68.25137 199.79907 68.504249 200.435558 68.504249 
z
" style="fill:#c44e52;stroke:#ffffff;stroke-width:0.384;"/>
    <path clip-path="url(#p1fc04c30a1)" d="M 152.444998 79.34619 
C 153.081485 79.34619 153.691989 79.093311 154.142054 78.643246 
C 154.592119 78.193181 154.844998 77.582677 154.844998 76.94619 
C 154.844998 76.309702 154.592119 75.699198 154.142054 75.249133 
C 153.691989 74.799069 153.081485 74.54619 152.444998 74.54619 
C 151.80851 74.54619 151.198006 74.799069 150.747942 75.249133 
C 150.297877 75.699198 150.044998 76.309702 150.044998 76.94619 
C 150.044998 77.582677 150.297877 78.193181 150.747942 78.643246 
C 151.198006 79.093311 151.80851 79.34619 152.444998 79.34619 
z
" style="fill:#c44e52;stroke:#ffffff;stroke-width:0.384;"/>
    <path clip-path="url(#p1fc04c30a1)" d="M 176.440278 99.627884 
C 177.076765 99.627884 177.687269 99.375005 178.137334 98.92494 
C 178.587399 98.474876 178.840278 97.864371 178.840278 97.227884 
C 178.840278 96.591396 178.587399 95.980892 178.137334 95.530828 
C 177.687269 95.080763 177.076765 94.827884 176.440278 94.827884 
C 175.80379 94.827884 175.193286 95.080763 174.743221 95.530828 
C 174.293157 95.980892 174.040278 96.591396 174.040278 97.227884 
C 174.040278 97.864371 174.293157 98.474876 174.743221 98.92494 
C 175.193286 99.375005 175.80379 99.627884 176.440278 99.627884 
z
" style="fill:#8172b3;stroke:#ffffff;stroke-width:0.384;"/>
    <path clip-path="url(#p1fc04c30a1)" d="M 135.420076 102.748344 
C 136.056563 102.748344 136.667067 102.495465 137.117132 102.045401 
C 137.567197 101.595336 137.820076 100.984832 137.820076 100.348344 
C 137.820076 99.711857 137.567197 99.101353 137.117132 98.651288 
C 136.667067 98.201224 136.056563 97.948344 135.420076 97.948344 
C 134.783588 97.948344 134.173084 98.201224 133.723019 98.651288 
C 133.272955 99.101353 133.020076 99.711857 133.020076 100.348344 
C 133.020076 100.984832 133.272955 101.595336 133.723019 102.045401 
C 134.173084 102.495465 134.783588 102.748344 135.420076 102.748344 
z
" style="fill:#8172b3;stroke:#ffffff;stroke-width:0.384;"/>
    <path clip-path="url(#p1fc04c30a1)" d="M 230.666035 58.654476 
C 231.302523 58.654476 231.913027 58.401597 232.363092 57.951533 
C 232.813156 57.501468 233.066035 56.890964 233.066035 56.254476 
C 233.066035 55.617989 232.813156 55.007485 232.363092 54.55742 
C 231.913027 54.107355 231.302523 53.854476 230.666035 53.854476 
C 230.029548 53.854476 229.419044 54.107355 228.968979 54.55742 
C 228.518914 55.007485 228.266035 55.617989 228.266035 56.254476 
C 228.266035 56.890964 228.518914 57.501468 228.968979 57.951533 
C 229.419044 58.401597 230.029548 58.654476 230.666035 58.654476 
z
" style="fill:#8172b3;stroke:#ffffff;stroke-width:0.384;"/>
    <path clip-path="url(#p1fc04c30a1)" d="M 217.46048 120.827432 
C 218.096967 120.827432 218.707471 120.574553 219.157536 120.124489 
C 219.607601 119.674424 219.86048 119.06392 219.86048 118.427432 
C 219.86048 117.790945 219.607601 117.180441 219.157536 116.730376 
C 218.707471 116.280311 218.096967 116.027432 217.46048 116.027432 
C 216.823992 116.027432 216.213488 116.280311 215.763424 116.730376 
C 215.313359 117.180441 215.06048 117.790945 215.06048 118.427432 
C 215.06048 119.06392 215.313359 119.674424 215.763424 120.124489 
C 216.213488 120.574553 216.823992 120.827432 217.46048 120.827432 
z
" style="fill:#55a868;stroke:#ffffff;stroke-width:0.384;"/>
    <path clip-path="url(#p1fc04c30a1)" d="M 135.420076 94.127161 
C 136.056563 94.127161 136.667067 93.874282 137.117132 93.424217 
C 137.567197 92.974152 137.820076 92.363648 137.820076 91.727161 
C 137.820076 91.090673 137.567197 90.480169 137.117132 90.030104 
C 136.667067 89.58004 136.056563 89.327161 135.420076 89.327161 
C 134.783588 89.327161 134.173084 89.58004 133.723019 90.030104 
C 133.272955 90.480169 133.020076 91.090673 133.020076 91.727161 
C 133.020076 92.363648 133.272955 92.974152 133.723019 93.424217 
C 134.173084 93.874282 134.783588 94.127161 135.420076 94.127161 
z
" style="fill:#55a868;stroke:#ffffff;stroke-width:0.384;"/>
    <path clip-path="url(#p1fc04c30a1)" d="M 217.46048 156.205282 
C 218.096967 156.205282 218.707471 155.952403 219.157536 155.502339 
C 219.607601 155.052274 219.86048 154.44177 219.86048 153.805282 
C 219.86048 153.168795 219.607601 152.558291 219.157536 152.108226 
C 218.707471 151.658162 218.096967 151.405282 217.46048 151.405282 
C 216.823992 151.405282 216.213488 151.658162 215.763424 152.108226 
C 215.313359 152.558291 215.06048 153.168795 215.06048 153.805282 
C 215.06048 154.44177 215.313359 155.052274 215.763424 155.502339 
C 216.213488 155.952403 216.823992 156.205282 217.46048 156.205282 
z
" style="fill:#55a868;stroke:#ffffff;stroke-width:0.384;"/>
    <path clip-path="url(#p1fc04c30a1)" d="M 176.440278 122.215451 
C 177.076765 122.215451 177.687269 121.962572 178.137334 121.512507 
C 178.587399 121.062442 178.840278 120.451938 178.840278 119.815451 
C 178.840278 119.178963 178.587399 118.568459 178.137334 118.118395 
C 177.687269 117.66833 177.076765 117.415451 176.440278 117.415451 
C 175.80379 117.415451 175.193286 117.66833 174.743221 118.118395 
C 174.293157 118.568459 174.040278 119.178963 174.040278 119.815451 
C 174.040278 120.451938 174.293157 121.062442 174.743221 121.512507 
C 175.193286 121.962572 175.80379 122.215451 176.440278 122.215451 
z
" style="fill:#55a868;stroke:#ffffff;stroke-width:0.384;"/>
    <path clip-path="url(#p1fc04c30a1)" d="M 217.46048 85.492166 
C 218.096967 85.492166 218.707471 85.239287 219.157536 84.789222 
C 219.607601 84.339157 219.86048 83.728653 219.86048 83.092166 
C 219.86048 82.455678 219.607601 81.845174 219.157536 81.395109 
C 218.707471 80.945045 218.096967 80.692166 217.46048 80.692166 
C 216.823992 80.692166 216.213488 80.945045 215.763424 81.395109 
C 215.313359 81.845174 215.06048 82.455678 215.06048 83.092166 
C 215.06048 83.728653 215.313359 84.339157 215.763424 84.789222 
C 216.213488 85.239287 216.823992 85.492166 217.46048 85.492166 
z
" style="fill:#55a868;stroke:#ffffff;stroke-width:0.384;"/>
    <path clip-path="url(#p1fc04c30a1)" d="M 176.440278 128.021861 
C 177.076765 128.021861 177.687269 127.768982 178.137334 127.318917 
C 178.587399 126.868853 178.840278 126.258349 178.840278 125.621861 
C 178.840278 124.985374 178.587399 124.374869 178.137334 123.924805 
C 177.687269 123.47474 177.076765 123.221861 176.440278 123.221861 
C 175.80379 123.221861 175.193286 123.47474 174.743221 123.924805 
C 174.293157 124.374869 174.040278 124.985374 174.040278 125.621861 
C 174.040278 126.258349 174.293157 126.868853 174.743221 127.318917 
C 175.193286 127.768982 175.80379 128.021861 176.440278 128.021861 
z
" style="fill:#55a868;stroke:#ffffff;stroke-width:0.384;"/>
    <path clip-path="url(#p1fc04c30a1)" d="M 176.440278 132.423311 
C 177.076765 132.423311 177.687269 132.170431 178.137334 131.720367 
C 178.587399 131.270302 178.840278 130.659798 178.840278 130.023311 
C 178.840278 129.386823 178.587399 128.776319 178.137334 128.326254 
C 177.687269 127.87619 177.076765 127.623311 176.440278 127.623311 
C 175.80379 127.623311 175.193286 127.87619 174.743221 128.326254 
C 174.293157 128.776319 174.040278 129.386823 174.040278 130.023311 
C 174.040278 130.659798 174.293157 131.270302 174.743221 131.720367 
C 175.193286 132.170431 175.80379 132.423311 176.440278 132.423311 
z
" style="fill:#55a868;stroke:#ffffff;stroke-width:0.384;"/>
    <path clip-path="url(#p1fc04c30a1)" d="M 176.440278 157.989739 
C 177.076765 157.989739 177.687269 157.73686 178.137334 157.286795 
C 178.587399 156.836731 178.840278 156.226226 178.840278 155.589739 
C 178.840278 154.953251 178.587399 154.342747 178.137334 153.892683 
C 177.687269 153.442618 177.076765 153.189739 176.440278 153.189739 
C 175.80379 153.189739 175.193286 153.442618 174.743221 153.892683 
C 174.293157 154.342747 174.040278 154.953251 174.040278 155.589739 
C 174.040278 156.226226 174.293157 156.836731 174.743221 157.286795 
C 175.193286 157.73686 175.80379 157.989739 176.440278 157.989739 
z
" style="fill:#55a868;stroke:#ffffff;stroke-width:0.384;"/>
    <path clip-path="url(#p1fc04c30a1)" d="M 176.440278 128.29263 
C 177.076765 128.29263 177.687269 128.039751 178.137334 127.589687 
C 178.587399 127.139622 178.840278 126.529118 178.840278 125.89263 
C 178.840278 125.256143 178.587399 124.645639 178.137334 124.195574 
C 177.687269 123.745509 177.076765 123.49263 176.440278 123.49263 
C 175.80379 123.49263 175.193286 123.745509 174.743221 124.195574 
C 174.293157 124.645639 174.040278 125.256143 174.040278 125.89263 
C 174.040278 126.529118 174.293157 127.139622 174.743221 127.589687 
C 175.193286 128.039751 175.80379 128.29263 176.440278 128.29263 
z
" style="fill:#55a868;stroke:#ffffff;stroke-width:0.384;"/>
    <path clip-path="url(#p1fc04c30a1)" d="M 176.440278 120.18443 
C 177.076765 120.18443 177.687269 119.931551 178.137334 119.481487 
C 178.587399 119.031422 178.840278 118.420918 178.840278 117.78443 
C 178.840278 117.147943 178.587399 116.537439 178.137334 116.087374 
C 177.687269 115.637309 177.076765 115.38443 176.440278 115.38443 
C 175.80379 115.38443 175.193286 115.637309 174.743221 116.087374 
C 174.293157 116.537439 174.040278 117.147943 174.040278 117.78443 
C 174.040278 118.420918 174.293157 119.031422 174.743221 119.481487 
C 175.193286 119.931551 175.80379 120.18443 176.440278 120.18443 
z
" style="fill:#55a868;stroke:#ffffff;stroke-width:0.384;"/>
    <path clip-path="url(#p1fc04c30a1)" d="M 217.46048 73.273901 
C 218.096967 73.273901 218.707471 73.021022 219.157536 72.570957 
C 219.607601 72.120893 219.86048 71.510389 219.86048 70.873901 
C 219.86048 70.237414 219.607601 69.626909 219.157536 69.176845 
C 218.707471 68.72678 218.096967 68.473901 217.46048 68.473901 
C 216.823992 68.473901 216.213488 68.72678 215.763424 69.176845 
C 215.313359 69.626909 215.06048 70.237414 215.06048 70.873901 
C 215.06048 71.510389 215.313359 72.120893 215.763424 72.570957 
C 216.213488 73.021022 216.823992 73.273901 217.46048 73.273901 
z
" style="fill:#55a868;stroke:#ffffff;stroke-width:0.384;"/>
    <path clip-path="url(#p1fc04c30a1)" d="M 176.440278 120.505057 
C 177.076765 120.505057 177.687269 120.252178 178.137334 119.802113 
C 178.587399 119.352049 178.840278 118.741544 178.840278 118.105057 
C 178.840278 117.46857 178.587399 116.858065 178.137334 116.408001 
C 177.687269 115.957936 177.076765 115.705057 176.440278 115.705057 
C 175.80379 115.705057 175.193286 115.957936 174.743221 116.408001 
C 174.293157 116.858065 174.040278 117.46857 174.040278 118.105057 
C 174.040278 118.741544 174.293157 119.352049 174.743221 119.802113 
C 175.193286 120.252178 175.80379 120.505057 176.440278 120.505057 
z
" style="fill:#55a868;stroke:#ffffff;stroke-width:0.384;"/>
    <path clip-path="url(#p1fc04c30a1)" d="M 135.420076 105.547912 
C 136.056563 105.547912 136.667067 105.295033 137.117132 104.844968 
C 137.567197 104.394904 137.820076 103.7844 137.820076 103.147912 
C 137.820076 102.511425 137.567197 101.90092 137.117132 101.450856 
C 136.667067 101.000791 136.056563 100.747912 135.420076 100.747912 
C 134.783588 100.747912 134.173084 101.000791 133.723019 101.450856 
C 133.272955 101.90092 133.020076 102.511425 133.020076 103.147912 
C 133.020076 103.7844 133.272955 104.394904 133.723019 104.844968 
C 134.173084 105.295033 134.783588 105.547912 135.420076 105.547912 
z
" style="fill:#55a868;stroke:#ffffff;stroke-width:0.384;"/>
    <path clip-path="url(#p1fc04c30a1)" d="M 217.46048 99.315143 
C 218.096967 99.315143 218.707471 99.062264 219.157536 98.612199 
C 219.607601 98.162135 219.86048 97.551631 219.86048 96.915143 
C 219.86048 96.278656 219.607601 95.668151 219.157536 95.218087 
C 218.707471 94.768022 218.096967 94.515143 217.46048 94.515143 
C 216.823992 94.515143 216.213488 94.768022 215.763424 95.218087 
C 215.313359 95.668151 215.06048 96.278656 215.06048 96.915143 
C 215.06048 97.551631 215.313359 98.162135 215.763424 98.612199 
C 216.213488 99.062264 216.823992 99.315143 217.46048 99.315143 
z
" style="fill:#55a868;stroke:#ffffff;stroke-width:0.384;"/>
    <path clip-path="url(#p1fc04c30a1)" d="M 176.440278 98.862643 
C 177.076765 98.862643 177.687269 98.609764 178.137334 98.159699 
C 178.587399 97.709634 178.840278 97.09913 178.840278 96.462643 
C 178.840278 95.826155 178.587399 95.215651 178.137334 94.765587 
C 177.687269 94.315522 177.076765 94.062643 176.440278 94.062643 
C 175.80379 94.062643 175.193286 94.315522 174.743221 94.765587 
C 174.293157 95.215651 174.040278 95.826155 174.040278 96.462643 
C 174.040278 97.09913 174.293157 97.709634 174.743221 98.159699 
C 175.193286 98.609764 175.80379 98.862643 176.440278 98.862643 
z
" style="fill:#55a868;stroke:#ffffff;stroke-width:0.384;"/>
    <path clip-path="url(#p1fc04c30a1)" d="M 217.46048 95.292691 
C 218.096967 95.292691 218.707471 95.039812 219.157536 94.589747 
C 219.607601 94.139683 219.86048 93.529178 219.86048 92.892691 
C 219.86048 92.256204 219.607601 91.645699 219.157536 91.195635 
C 218.707471 90.74557 218.096967 90.492691 217.46048 90.492691 
C 216.823992 90.492691 216.213488 90.74557 215.763424 91.195635 
C 215.313359 91.645699 215.06048 92.256204 215.06048 92.892691 
C 215.06048 93.529178 215.313359 94.139683 215.763424 94.589747 
C 216.213488 95.039812 216.823992 95.292691 217.46048 95.292691 
z
" style="fill:#55a868;stroke:#ffffff;stroke-width:0.384;"/>
    <path clip-path="url(#p1fc04c30a1)" d="M 258.480682 65.969192 
C 259.117169 65.969192 259.727674 65.716313 260.177738 65.266248 
C 260.627803 64.816184 260.880682 64.20568 260.880682 63.569192 
C 260.880682 62.932705 260.627803 62.3222 260.177738 61.872136 
C 259.727674 61.422071 259.117169 61.169192 258.480682 61.169192 
C 257.844194 61.169192 257.23369 61.422071 256.783626 61.872136 
C 256.333561 62.3222 256.080682 62.932705 256.080682 63.569192 
C 256.080682 64.20568 256.333561 64.816184 256.783626 65.266248 
C 257.23369 65.716313 257.844194 65.969192 258.480682 65.969192 
z
" style="fill:#55a868;stroke:#ffffff;stroke-width:0.384;"/>
    <path clip-path="url(#p1fc04c30a1)" d="M 111.424796 85.571074 
C 112.061283 85.571074 112.671787 85.318195 113.121852 84.86813 
C 113.571917 84.418065 113.824796 83.807561 113.824796 83.171074 
C 113.824796 82.534586 113.571917 81.924082 113.121852 81.474017 
C 112.671787 81.023953 112.061283 80.771074 111.424796 80.771074 
C 110.788308 80.771074 110.177804 81.023953 109.727739 81.474017 
C 109.277675 81.924082 109.024796 82.534586 109.024796 83.171074 
C 109.024796 83.807561 109.277675 84.418065 109.727739 84.86813 
C 110.177804 85.318195 110.788308 85.571074 111.424796 85.571074 
z
" style="fill:#c44e52;stroke:#ffffff;stroke-width:0.384;"/>
    <path clip-path="url(#p1fc04c30a1)" d="M 159.415356 103.390986 
C 160.051843 103.390986 160.662347 103.138107 161.112412 102.688043 
C 161.562477 102.237978 161.815356 101.627474 161.815356 100.990986 
C 161.815356 100.354499 161.562477 99.743995 161.112412 99.29393 
C 160.662347 98.843865 160.051843 98.590986 159.415356 98.590986 
C 158.778868 98.590986 158.168364 98.843865 157.718299 99.29393 
C 157.268235 99.743995 157.015356 100.354499 157.015356 100.990986 
C 157.015356 101.627474 157.268235 102.237978 157.718299 102.688043 
C 158.168364 103.138107 158.778868 103.390986 159.415356 103.390986 
z
" style="fill:#c44e52;stroke:#ffffff;stroke-width:0.384;"/>
    <path clip-path="url(#p1fc04c30a1)" d="M 81.194318 73.878207 
C 81.830806 73.878207 82.44131 73.625328 82.891374 73.175263 
C 83.341439 72.725199 83.594318 72.114695 83.594318 71.478207 
C 83.594318 70.84172 83.341439 70.231215 82.891374 69.781151 
C 82.44131 69.331086 81.830806 69.078207 81.194318 69.078207 
C 80.557831 69.078207 79.947326 69.331086 79.497262 69.781151 
C 79.047197 70.231215 78.794318 70.84172 78.794318 71.478207 
C 78.794318 72.114695 79.047197 72.725199 79.497262 73.175263 
C 79.947326 73.625328 80.557831 73.878207 81.194318 73.878207 
z
" style="fill:#c44e52;stroke:#ffffff;stroke-width:0.384;"/>
    <path clip-path="url(#p1fc04c30a1)" d="M 176.440278 132.722809 
C 177.076765 132.722809 177.687269 132.46993 178.137334 132.019866 
C 178.587399 131.569801 178.840278 130.959297 178.840278 130.322809 
C 178.840278 129.686322 178.587399 129.075818 178.137334 128.625753 
C 177.687269 128.175688 177.076765 127.922809 176.440278 127.922809 
C 175.80379 127.922809 175.193286 128.175688 174.743221 128.625753 
C 174.293157 129.075818 174.040278 129.686322 174.040278 130.322809 
C 174.040278 130.959297 174.293157 131.569801 174.743221 132.019866 
C 175.193286 132.46993 175.80379 132.722809 176.440278 132.722809 
z
" style="fill:#c44e52;stroke:#ffffff;stroke-width:0.384;"/>
    <path clip-path="url(#p1fc04c30a1)" d="M 189.645833 57.844101 
C 190.282321 57.844101 190.892825 57.591222 191.34289 57.141158 
C 191.792954 56.691093 192.045833 56.080589 192.045833 55.444101 
C 192.045833 54.807614 191.792954 54.19711 191.34289 53.747045 
C 190.892825 53.29698 190.282321 53.044101 189.645833 53.044101 
C 189.009346 53.044101 188.398842 53.29698 187.948777 53.747045 
C 187.498712 54.19711 187.245833 54.807614 187.245833 55.444101 
C 187.245833 56.080589 187.498712 56.691093 187.948777 57.141158 
C 188.398842 57.591222 189.009346 57.844101 189.645833 57.844101 
z
" style="fill:#8172b3;stroke:#ffffff;stroke-width:0.384;"/>
    <path clip-path="url(#p1fc04c30a1)" d="M 163.234722 72.425321 
C 163.87121 72.425321 164.481714 72.172442 164.931779 71.722377 
C 165.381843 71.272312 165.634722 70.661808 165.634722 70.025321 
C 165.634722 69.388833 165.381843 68.778329 164.931779 68.328264 
C 164.481714 67.8782 163.87121 67.625321 163.234722 67.625321 
C 162.598235 67.625321 161.987731 67.8782 161.537666 68.328264 
C 161.087601 68.778329 160.834722 69.388833 160.834722 70.025321 
C 160.834722 70.661808 161.087601 71.272312 161.537666 71.722377 
C 161.987731 72.172442 162.598235 72.425321 163.234722 72.425321 
z
" style="fill:#8172b3;stroke:#ffffff;stroke-width:0.384;"/>
    <path clip-path="url(#p1fc04c30a1)" d="M 189.645833 42.667105 
C 190.282321 42.667105 190.892825 42.414226 191.34289 41.964162 
C 191.792954 41.514097 192.045833 40.903593 192.045833 40.267105 
C 192.045833 39.630618 191.792954 39.020114 191.34289 38.570049 
C 190.892825 38.119984 190.282321 37.867105 189.645833 37.867105 
C 189.009346 37.867105 188.398842 38.119984 187.948777 38.570049 
C 187.498712 39.020114 187.245833 39.630618 187.245833 40.267105 
C 187.245833 40.903593 187.498712 41.514097 187.948777 41.964162 
C 188.398842 42.414226 189.009346 42.667105 189.645833 42.667105 
z
" style="fill:#8172b3;stroke:#ffffff;stroke-width:0.384;"/>
    <path clip-path="url(#p1fc04c30a1)" d="M 217.46048 129.59377 
C 218.096967 129.59377 218.707471 129.340891 219.157536 128.890826 
C 219.607601 128.440762 219.86048 127.830257 219.86048 127.19377 
C 219.86048 126.557283 219.607601 125.946778 219.157536 125.496714 
C 218.707471 125.046649 218.096967 124.79377 217.46048 124.79377 
C 216.823992 124.79377 216.213488 125.046649 215.763424 125.496714 
C 215.313359 125.946778 215.06048 126.557283 215.06048 127.19377 
C 215.06048 127.830257 215.313359 128.440762 215.763424 128.890826 
C 216.213488 129.340891 216.823992 129.59377 217.46048 129.59377 
z
" style="fill:#55a868;stroke:#ffffff;stroke-width:0.384;"/>
    <path clip-path="url(#p1fc04c30a1)" d="M 176.440278 136.307102 
C 177.076765 136.307102 177.687269 136.054223 178.137334 135.604158 
C 178.587399 135.154094 178.840278 134.543589 178.840278 133.907102 
C 178.840278 133.270614 178.587399 132.66011 178.137334 132.210046 
C 177.687269 131.759981 177.076765 131.507102 176.440278 131.507102 
C 175.80379 131.507102 175.193286 131.759981 174.743221 132.210046 
C 174.293157 132.66011 174.040278 133.270614 174.040278 133.907102 
C 174.040278 134.543589 174.293157 135.154094 174.743221 135.604158 
C 175.193286 136.054223 175.80379 136.307102 176.440278 136.307102 
z
" style="fill:#55a868;stroke:#ffffff;stroke-width:0.384;"/>
    <path clip-path="url(#p1fc04c30a1)" d="M 152.444998 101.71772 
C 153.081485 101.71772 153.691989 101.464841 154.142054 101.014776 
C 154.592119 100.564712 154.844998 99.954207 154.844998 99.31772 
C 154.844998 98.681232 154.592119 98.070728 154.142054 97.620664 
C 153.691989 97.170599 153.081485 96.91772 152.444998 96.91772 
C 151.80851 96.91772 151.198006 97.170599 150.747942 97.620664 
C 150.297877 98.070728 150.044998 98.681232 150.044998 99.31772 
C 150.044998 99.954207 150.297877 100.564712 150.747942 101.014776 
C 151.198006 101.464841 151.80851 101.71772 152.444998 101.71772 
z
" style="fill:#55a868;stroke:#ffffff;stroke-width:0.384;"/>
    <path clip-path="url(#p1fc04c30a1)" d="M 152.444998 124.593718 
C 153.081485 124.593718 153.691989 124.340839 154.142054 123.890774 
C 154.592119 123.44071 154.844998 122.830205 154.844998 122.193718 
C 154.844998 121.55723 154.592119 120.946726 154.142054 120.496662 
C 153.691989 120.046597 153.081485 119.793718 152.444998 119.793718 
C 151.80851 119.793718 151.198006 120.046597 150.747942 120.496662 
C 150.297877 120.946726 150.044998 121.55723 150.044998 122.193718 
C 150.044998 122.830205 150.297877 123.44071 150.747942 123.890774 
C 151.198006 124.340839 151.80851 124.593718 152.444998 124.593718 
z
" style="fill:#55a868;stroke:#ffffff;stroke-width:0.384;"/>
    <path clip-path="url(#p1fc04c30a1)" d="M 152.444998 98.544456 
C 153.081485 98.544456 153.691989 98.291577 154.142054 97.841513 
C 154.592119 97.391448 154.844998 96.780944 154.844998 96.144456 
C 154.844998 95.507969 154.592119 94.897465 154.142054 94.4474 
C 153.691989 93.997335 153.081485 93.744456 152.444998 93.744456 
C 151.80851 93.744456 151.198006 93.997335 150.747942 94.4474 
C 150.297877 94.897465 150.044998 95.507969 150.044998 96.144456 
C 150.044998 96.780944 150.297877 97.391448 150.747942 97.841513 
C 151.198006 98.291577 151.80851 98.544456 152.444998 98.544456 
z
" style="fill:#55a868;stroke:#ffffff;stroke-width:0.384;"/>
    <path clip-path="url(#p1fc04c30a1)" d="M 135.420076 86.013946 
C 136.056563 86.013946 136.667067 85.761067 137.117132 85.311002 
C 137.567197 84.860938 137.820076 84.250434 137.820076 83.613946 
C 137.820076 82.977459 137.567197 82.366955 137.117132 81.91689 
C 136.667067 81.466825 136.056563 81.213946 135.420076 81.213946 
C 134.783588 81.213946 134.173084 81.466825 133.723019 81.91689 
C 133.272955 82.366955 133.020076 82.977459 133.020076 83.613946 
C 133.020076 84.250434 133.272955 84.860938 133.723019 85.311002 
C 134.173084 85.761067 134.783588 86.013946 135.420076 86.013946 
z
" style="fill:#55a868;stroke:#ffffff;stroke-width:0.384;"/>
    <path clip-path="url(#p1fc04c30a1)" d="M 152.444998 107.524749 
C 153.081485 107.524749 153.691989 107.271869 154.142054 106.821805 
C 154.592119 106.37174 154.844998 105.761236 154.844998 105.124749 
C 154.844998 104.488261 154.592119 103.877757 154.142054 103.427692 
C 153.691989 102.977628 153.081485 102.724749 152.444998 102.724749 
C 151.80851 102.724749 151.198006 102.977628 150.747942 103.427692 
C 150.297877 103.877757 150.044998 104.488261 150.044998 105.124749 
C 150.044998 105.761236 150.297877 106.37174 150.747942 106.821805 
C 151.198006 107.271869 151.80851 107.524749 152.444998 107.524749 
z
" style="fill:#55a868;stroke:#ffffff;stroke-width:0.384;"/>
    <path clip-path="url(#p1fc04c30a1)" d="M 217.46048 129.613061 
C 218.096967 129.613061 218.707471 129.360182 219.157536 128.910118 
C 219.607601 128.460053 219.86048 127.849549 219.86048 127.213061 
C 219.86048 126.576574 219.607601 125.96607 219.157536 125.516005 
C 218.707471 125.06594 218.096967 124.813061 217.46048 124.813061 
C 216.823992 124.813061 216.213488 125.06594 215.763424 125.516005 
C 215.313359 125.96607 215.06048 126.576574 215.06048 127.213061 
C 215.06048 127.849549 215.313359 128.460053 215.763424 128.910118 
C 216.213488 129.360182 216.823992 129.613061 217.46048 129.613061 
z
" style="fill:#55a868;stroke:#ffffff;stroke-width:0.384;"/>
    <path clip-path="url(#p1fc04c30a1)" d="M 111.424796 80.090067 
C 112.061283 80.090067 112.671787 79.837188 113.121852 79.387124 
C 113.571917 78.937059 113.824796 78.326555 113.824796 77.690067 
C 113.824796 77.05358 113.571917 76.443076 113.121852 75.993011 
C 112.671787 75.542946 112.061283 75.290067 111.424796 75.290067 
C 110.788308 75.290067 110.177804 75.542946 109.727739 75.993011 
C 109.277675 76.443076 109.024796 77.05358 109.024796 77.690067 
C 109.024796 78.326555 109.277675 78.937059 109.727739 79.387124 
C 110.177804 79.837188 110.788308 80.090067 111.424796 80.090067 
z
" style="fill:#55a868;stroke:#ffffff;stroke-width:0.384;"/>
    <path clip-path="url(#p1fc04c30a1)" d="M 176.440278 127.448587 
C 177.076765 127.448587 177.687269 127.195708 178.137334 126.745643 
C 178.587399 126.295579 178.840278 125.685075 178.840278 125.048587 
C 178.840278 124.4121 178.587399 123.801595 178.137334 123.351531 
C 177.687269 122.901466 177.076765 122.648587 176.440278 122.648587 
C 175.80379 122.648587 175.193286 122.901466 174.743221 123.351531 
C 174.293157 123.801595 174.040278 124.4121 174.040278 125.048587 
C 174.040278 125.685075 174.293157 126.295579 174.743221 126.745643 
C 175.193286 127.195708 175.80379 127.448587 176.440278 127.448587 
z
" style="fill:#55a868;stroke:#ffffff;stroke-width:0.384;"/>
    <path clip-path="url(#p1fc04c30a1)" d="M 217.46048 121.469102 
C 218.096967 121.469102 218.707471 121.216223 219.157536 120.766158 
C 219.607601 120.316093 219.86048 119.705589 219.86048 119.069102 
C 219.86048 118.432614 219.607601 117.82211 219.157536 117.372046 
C 218.707471 116.921981 218.096967 116.669102 217.46048 116.669102 
C 216.823992 116.669102 216.213488 116.921981 215.763424 117.372046 
C 215.313359 117.82211 215.06048 118.432614 215.06048 119.069102 
C 215.06048 119.705589 215.313359 120.316093 215.763424 120.766158 
C 216.213488 121.216223 216.823992 121.469102 217.46048 121.469102 
z
" style="fill:#55a868;stroke:#ffffff;stroke-width:0.384;"/>
    <path clip-path="url(#p1fc04c30a1)" d="M 176.440278 120.1261 
C 177.076765 120.1261 177.687269 119.873221 178.137334 119.423157 
C 178.587399 118.973092 178.840278 118.362588 178.840278 117.7261 
C 178.840278 117.089613 178.587399 116.479109 178.137334 116.029044 
C 177.687269 115.578979 177.076765 115.3261 176.440278 115.3261 
C 175.80379 115.3261 175.193286 115.578979 174.743221 116.029044 
C 174.293157 116.479109 174.040278 117.089613 174.040278 117.7261 
C 174.040278 118.362588 174.293157 118.973092 174.743221 119.423157 
C 175.193286 119.873221 175.80379 120.1261 176.440278 120.1261 
z
" style="fill:#55a868;stroke:#ffffff;stroke-width:0.384;"/>
    <path clip-path="url(#p1fc04c30a1)" d="M 200.435558 112.564985 
C 201.072045 112.564985 201.682549 112.312105 202.132614 111.862041 
C 202.582679 111.411976 202.835558 110.801472 202.835558 110.164985 
C 202.835558 109.528497 202.582679 108.917993 202.132614 108.467928 
C 201.682549 108.017864 201.072045 107.764985 200.435558 107.764985 
C 199.79907 107.764985 199.188566 108.017864 198.738501 108.467928 
C 198.288437 108.917993 198.035558 109.528497 198.035558 110.164985 
C 198.035558 110.801472 198.288437 111.411976 198.738501 111.862041 
C 199.188566 112.312105 199.79907 112.564985 200.435558 112.564985 
z
" style="fill:#55a868;stroke:#ffffff;stroke-width:0.384;"/>
    <path clip-path="url(#p1fc04c30a1)" d="M 217.46048 102.660957 
C 218.096967 102.660957 218.707471 102.408077 219.157536 101.958013 
C 219.607601 101.507948 219.86048 100.897444 219.86048 100.260957 
C 219.86048 99.624469 219.607601 99.013965 219.157536 98.5639 
C 218.707471 98.113836 218.096967 97.860957 217.46048 97.860957 
C 216.823992 97.860957 216.213488 98.113836 215.763424 98.5639 
C 215.313359 99.013965 215.06048 99.624469 215.06048 100.260957 
C 215.06048 100.897444 215.313359 101.507948 215.763424 101.958013 
C 216.213488 102.408077 216.823992 102.660957 217.46048 102.660957 
z
" style="fill:#55a868;stroke:#ffffff;stroke-width:0.384;"/>
    <path clip-path="url(#p1fc04c30a1)" d="M 135.420076 113.120359 
C 136.056563 113.120359 136.667067 112.86748 137.117132 112.417416 
C 137.567197 111.967351 137.820076 111.356847 137.820076 110.720359 
C 137.820076 110.083872 137.567197 109.473368 137.117132 109.023303 
C 136.667067 108.573239 136.056563 108.320359 135.420076 108.320359 
C 134.783588 108.320359 134.173084 108.573239 133.723019 109.023303 
C 133.272955 109.473368 133.020076 110.083872 133.020076 110.720359 
C 133.020076 111.356847 133.272955 111.967351 133.723019 112.417416 
C 134.173084 112.86748 134.783588 113.120359 135.420076 113.120359 
z
" style="fill:#55a868;stroke:#ffffff;stroke-width:0.384;"/>
    <path clip-path="url(#p1fc04c30a1)" d="M 176.440278 128.611313 
C 177.076765 128.611313 177.687269 128.358434 178.137334 127.908369 
C 178.587399 127.458305 178.840278 126.8478 178.840278 126.211313 
C 178.840278 125.574825 178.587399 124.964321 178.137334 124.514257 
C 177.687269 124.064192 177.076765 123.811313 176.440278 123.811313 
C 175.80379 123.811313 175.193286 124.064192 174.743221 124.514257 
C 174.293157 124.964321 174.040278 125.574825 174.040278 126.211313 
C 174.040278 126.8478 174.293157 127.458305 174.743221 127.908369 
C 175.193286 128.358434 175.80379 128.611313 176.440278 128.611313 
z
" style="fill:#55a868;stroke:#ffffff;stroke-width:0.384;"/>
    <path clip-path="url(#p1fc04c30a1)" d="M 135.420076 105.570464 
C 136.056563 105.570464 136.667067 105.317585 137.117132 104.86752 
C 137.567197 104.417456 137.820076 103.806952 137.820076 103.170464 
C 137.820076 102.533977 137.567197 101.923473 137.117132 101.473408 
C 136.667067 101.023343 136.056563 100.770464 135.420076 100.770464 
C 134.783588 100.770464 134.173084 101.023343 133.723019 101.473408 
C 133.272955 101.923473 133.020076 102.533977 133.020076 103.170464 
C 133.020076 103.806952 133.272955 104.417456 133.723019 104.86752 
C 134.173084 105.317585 134.783588 105.570464 135.420076 105.570464 
z
" style="fill:#c44e52;stroke:#ffffff;stroke-width:0.384;"/>
    <path clip-path="url(#p1fc04c30a1)" d="M 135.420076 116.760978 
C 136.056563 116.760978 136.667067 116.508098 137.117132 116.058034 
C 137.567197 115.607969 137.820076 114.997465 137.820076 114.360978 
C 137.820076 113.72449 137.567197 113.113986 137.117132 112.663921 
C 136.667067 112.213857 136.056563 111.960978 135.420076 111.960978 
C 134.783588 111.960978 134.173084 112.213857 133.723019 112.663921 
C 133.272955 113.113986 133.020076 113.72449 133.020076 114.360978 
C 133.020076 114.997465 133.272955 115.607969 133.723019 116.058034 
C 134.173084 116.508098 134.783588 116.760978 135.420076 116.760978 
z
" style="fill:#8172b3;stroke:#ffffff;stroke-width:0.384;"/>
    <path clip-path="url(#p1fc04c30a1)" d="M 176.440278 124.83327 
L 179.83439 121.439158 
L 176.440278 118.045045 
L 173.046165 121.439158 
z
" style="fill:#4c72b0;stroke:#ffffff;stroke-width:0.384;"/>
    <path clip-path="url(#p1fc04c30a1)" d="M 176.440278 102.541019 
L 179.83439 99.146906 
L 176.440278 95.752794 
L 173.046165 99.146906 
z
" style="fill:#4c72b0;stroke:#ffffff;stroke-width:0.384;"/>
    <path clip-path="url(#p1fc04c30a1)" d="M 176.440278 94.174983 
L 179.83439 90.78087 
L 176.440278 87.386758 
L 173.046165 90.78087 
z
" style="fill:#4c72b0;stroke:#ffffff;stroke-width:0.384;"/>
    <path clip-path="url(#p1fc04c30a1)" d="M 176.440278 122.956747 
L 179.83439 119.562635 
L 176.440278 116.168522 
L 173.046165 119.562635 
z
" style="fill:#4c72b0;stroke:#ffffff;stroke-width:0.384;"/>
    <path clip-path="url(#p1fc04c30a1)" d="M 176.440278 171.338616 
L 179.83439 167.944504 
L 176.440278 164.550391 
L 173.046165 167.944504 
z
" style="fill:#4c72b0;stroke:#ffffff;stroke-width:0.384;"/>
    <path clip-path="url(#p1fc04c30a1)" d="M 176.440278 137.53475 
L 179.83439 134.140638 
L 176.440278 130.746525 
L 173.046165 134.140638 
z
" style="fill:#4c72b0;stroke:#ffffff;stroke-width:0.384;"/>
    <path clip-path="url(#p1fc04c30a1)" d="M 176.440278 149.038056 
L 179.83439 145.643944 
L 176.440278 142.249831 
L 173.046165 145.643944 
z
" style="fill:#4c72b0;stroke:#ffffff;stroke-width:0.384;"/>
    <path clip-path="url(#p1fc04c30a1)" d="M 135.420076 121.92684 
L 138.814188 118.532728 
L 135.420076 115.138615 
L 132.025963 118.532728 
z
" style="fill:#4c72b0;stroke:#ffffff;stroke-width:0.384;"/>
    <path clip-path="url(#p1fc04c30a1)" d="M 217.46048 118.84537 
L 220.854592 115.451258 
L 217.46048 112.057145 
L 214.066367 115.451258 
z
" style="fill:#4c72b0;stroke:#ffffff;stroke-width:0.384;"/>
    <path clip-path="url(#p1fc04c30a1)" d="M 217.46048 93.634913 
L 220.854592 90.240801 
L 217.46048 86.846688 
L 214.066367 90.240801 
z
" style="fill:#4c72b0;stroke:#ffffff;stroke-width:0.384;"/>
    <path clip-path="url(#p1fc04c30a1)" d="M 135.420076 103.912593 
L 138.814188 100.51848 
L 135.420076 97.124368 
L 132.025963 100.51848 
z
" style="fill:#4c72b0;stroke:#ffffff;stroke-width:0.384;"/>
    <path clip-path="url(#p1fc04c30a1)" d="M 135.420076 93.411338 
L 138.814188 90.017225 
L 135.420076 86.623113 
L 132.025963 90.017225 
z
" style="fill:#4c72b0;stroke:#ffffff;stroke-width:0.384;"/>
    <path clip-path="url(#p1fc04c30a1)" d="M 135.420076 101.653406 
L 138.814188 98.259293 
L 135.420076 94.865181 
L 132.025963 98.259293 
z
" style="fill:#4c72b0;stroke:#ffffff;stroke-width:0.384;"/>
    <path clip-path="url(#p1fc04c30a1)" d="M 200.435558 170.796394 
C 201.072045 170.796394 201.682549 170.543515 202.132614 170.093451 
C 202.582679 169.643386 202.835558 169.032882 202.835558 168.396394 
C 202.835558 167.759907 202.582679 167.149403 202.132614 166.699338 
C 201.682549 166.249274 201.072045 165.996394 200.435558 165.996394 
C 199.79907 165.996394 199.188566 166.249274 198.738501 166.699338 
C 198.288437 167.149403 198.035558 167.759907 198.035558 168.396394 
C 198.035558 169.032882 198.288437 169.643386 198.738501 170.093451 
C 199.188566 170.543515 199.79907 170.796394 200.435558 170.796394 
z
" style="fill:#c44e52;stroke:#ffffff;stroke-width:0.384;"/>
   </g>
   <g id="PathCollection_2"/>
   <g id="PathCollection_3"/>
   <g id="PathCollection_4"/>
   <g id="PathCollection_5"/>
   <g id="PathCollection_6"/>
   <g id="patch_3">
    <path d="M 72.33 200.82 
L 72.33 13.149 
" style="fill:none;stroke:#262626;stroke-linecap:square;stroke-linejoin:miter;"/>
   </g>
   <g id="patch_4">
    <path d="M 267.345 200.82 
L 267.345 13.149 
" style="fill:none;stroke:#262626;stroke-linecap:square;stroke-linejoin:miter;"/>
   </g>
   <g id="patch_5">
    <path d="M 72.33 200.82 
L 267.345 200.82 
" style="fill:none;stroke:#262626;stroke-linecap:square;stroke-linejoin:miter;"/>
   </g>
   <g id="patch_6">
    <path d="M 72.33 13.149 
L 267.345 13.149 
" style="fill:none;stroke:#262626;stroke-linecap:square;stroke-linejoin:miter;"/>
   </g>
   <g id="legend_1">
    <g id="patch_7">
     <path d="M 278.89575 96.078688 
L 375.58325 96.078688 
Q 377.38325 96.078688 377.38325 94.278688 
L 377.38325 14.949 
Q 377.38325 13.149 375.58325 13.149 
L 278.89575 13.149 
Q 277.09575 13.149 277.09575 14.949 
L 277.09575 94.278688 
Q 277.09575 96.078688 278.89575 96.078688 
z
" style="fill:#ffffff;opacity:0.8;stroke:#cccccc;stroke-linejoin:miter;stroke-width:0.8;"/>
    </g>
    <g id="text_12">
     <!-- Mean Connectivity -->
     <g style="fill:#262626;" transform="translate(280.69575 24.347438)scale(0.1 -0.1)">
      <defs>
       <path d="M 628 4666 
L 1569 4666 
L 2759 1491 
L 3956 4666 
L 4897 4666 
L 4897 0 
L 4281 0 
L 4281 4097 
L 3078 897 
L 2444 897 
L 1241 4097 
L 1241 0 
L 628 0 
L 628 4666 
z
" id="DejaVuSans-4d" transform="scale(0.015625)"/>
       <path d="M 4122 4306 
L 4122 3641 
Q 3803 3938 3442 4084 
Q 3081 4231 2675 4231 
Q 1875 4231 1450 3742 
Q 1025 3253 1025 2328 
Q 1025 1406 1450 917 
Q 1875 428 2675 428 
Q 3081 428 3442 575 
Q 3803 722 4122 1019 
L 4122 359 
Q 3791 134 3420 21 
Q 3050 -91 2638 -91 
Q 1578 -91 968 557 
Q 359 1206 359 2328 
Q 359 3453 968 4101 
Q 1578 4750 2638 4750 
Q 3056 4750 3426 4639 
Q 3797 4528 4122 4306 
z
" id="DejaVuSans-43" transform="scale(0.015625)"/>
       <path d="M 191 3500 
L 800 3500 
L 1894 563 
L 2988 3500 
L 3597 3500 
L 2284 0 
L 1503 0 
L 191 3500 
z
" id="DejaVuSans-76" transform="scale(0.015625)"/>
       <path d="M 2059 -325 
Q 1816 -950 1584 -1140 
Q 1353 -1331 966 -1331 
L 506 -1331 
L 506 -850 
L 844 -850 
Q 1081 -850 1212 -737 
Q 1344 -625 1503 -206 
L 1606 56 
L 191 3500 
L 800 3500 
L 1894 763 
L 2988 3500 
L 3597 3500 
L 2059 -325 
z
" id="DejaVuSans-79" transform="scale(0.015625)"/>
      </defs>
      <use xlink:href="#DejaVuSans-4d"/>
      <use x="86.279297" xlink:href="#DejaVuSans-65"/>
      <use x="147.802734" xlink:href="#DejaVuSans-61"/>
      <use x="209.082031" xlink:href="#DejaVuSans-6e"/>
      <use x="272.460938" xlink:href="#DejaVuSans-20"/>
      <use x="304.248047" xlink:href="#DejaVuSans-43"/>
      <use x="374.072266" xlink:href="#DejaVuSans-6f"/>
      <use x="435.253906" xlink:href="#DejaVuSans-6e"/>
      <use x="498.632812" xlink:href="#DejaVuSans-6e"/>
      <use x="562.011719" xlink:href="#DejaVuSans-65"/>
      <use x="623.535156" xlink:href="#DejaVuSans-63"/>
      <use x="678.515625" xlink:href="#DejaVuSans-74"/>
      <use x="717.724609" xlink:href="#DejaVuSans-69"/>
      <use x="745.507812" xlink:href="#DejaVuSans-76"/>
      <use x="804.6875" xlink:href="#DejaVuSans-69"/>
      <use x="832.470703" xlink:href="#DejaVuSans-74"/>
      <use x="871.679688" xlink:href="#DejaVuSans-79"/>
     </g>
    </g>
    <g id="PathCollection_7">
     <defs>
      <path d="M -0.8 2.4 
L 0.8 2.4 
L 0.8 0.8 
L 2.4 0.8 
L 2.4 -0.8 
L 0.8 -0.8 
L 0.8 -2.4 
L -0.8 -2.4 
L -0.8 -0.8 
L -2.4 -0.8 
L -2.4 0.8 
L -0.8 0.8 
z
" id="m69369373dc" style="stroke:#4c72b0;stroke-width:0.8;"/>
     </defs>
     <g>
      <use style="fill:#4c72b0;stroke:#4c72b0;stroke-width:0.8;" x="297.588016" xlink:href="#m69369373dc" y="35.403219"/>
     </g>
    </g>
    <g id="text_13">
     <!-- 5N &amp; E:2N -->
     <g style="fill:#262626;" transform="translate(313.788016 37.765719)scale(0.09 -0.09)">
      <defs>
       <path d="M 628 4666 
L 1478 4666 
L 3547 763 
L 3547 4666 
L 4159 4666 
L 4159 0 
L 3309 0 
L 1241 3903 
L 1241 0 
L 628 0 
L 628 4666 
z
" id="DejaVuSans-4e" transform="scale(0.015625)"/>
       <path d="M 628 4666 
L 3578 4666 
L 3578 4134 
L 1259 4134 
L 1259 2753 
L 3481 2753 
L 3481 2222 
L 1259 2222 
L 1259 531 
L 3634 531 
L 3634 0 
L 628 0 
L 628 4666 
z
" id="DejaVuSans-45" transform="scale(0.015625)"/>
       <path d="M 750 794 
L 1409 794 
L 1409 0 
L 750 0 
L 750 794 
z
M 750 3309 
L 1409 3309 
L 1409 2516 
L 750 2516 
L 750 3309 
z
" id="DejaVuSans-3a" transform="scale(0.015625)"/>
      </defs>
      <use xlink:href="#DejaVuSans-35"/>
      <use x="63.623047" xlink:href="#DejaVuSans-4e"/>
      <use x="138.427734" xlink:href="#DejaVuSans-20"/>
      <use x="170.214844" xlink:href="#DejaVuSans-26"/>
      <use x="248.193359" xlink:href="#DejaVuSans-20"/>
      <use x="279.980469" xlink:href="#DejaVuSans-45"/>
      <use x="343.164062" xlink:href="#DejaVuSans-3a"/>
      <use x="376.855469" xlink:href="#DejaVuSans-32"/>
      <use x="440.478516" xlink:href="#DejaVuSans-4e"/>
     </g>
    </g>
    <g id="PathCollection_8">
     <defs>
      <path d="M -0 3.394113 
L 3.394113 0 
L 0 -3.394113 
L -3.394113 -0 
z
" id="m38d3ceed7c" style="stroke:#4c72b0;stroke-width:0.8;"/>
     </defs>
     <g>
      <use style="fill:#4c72b0;stroke:#4c72b0;stroke-width:0.8;" x="297.588016" xlink:href="#m38d3ceed7c" y="48.613531"/>
     </g>
    </g>
    <g id="text_14">
     <!-- 20N &amp; E:2N -->
     <g style="fill:#262626;" transform="translate(313.788016 50.976031)scale(0.09 -0.09)">
      <use xlink:href="#DejaVuSans-32"/>
      <use x="63.623047" xlink:href="#DejaVuSans-30"/>
      <use x="127.246094" xlink:href="#DejaVuSans-4e"/>
      <use x="202.050781" xlink:href="#DejaVuSans-20"/>
      <use x="233.837891" xlink:href="#DejaVuSans-26"/>
      <use x="311.816406" xlink:href="#DejaVuSans-20"/>
      <use x="343.603516" xlink:href="#DejaVuSans-45"/>
      <use x="406.787109" xlink:href="#DejaVuSans-3a"/>
      <use x="440.478516" xlink:href="#DejaVuSans-32"/>
      <use x="504.101562" xlink:href="#DejaVuSans-4e"/>
     </g>
    </g>
    <g id="PathCollection_9">
     <defs>
      <path d="M 0 2.4 
C 0.636487 2.4 1.246992 2.147121 1.697056 1.697056 
C 2.147121 1.246992 2.4 0.636487 2.4 0 
C 2.4 -0.636487 2.147121 -1.246992 1.697056 -1.697056 
C 1.246992 -2.147121 0.636487 -2.4 0 -2.4 
C -0.636487 -2.4 -1.246992 -2.147121 -1.697056 -1.697056 
C -2.147121 -1.246992 -2.4 -0.636487 -2.4 0 
C -2.4 0.636487 -2.147121 1.246992 -1.697056 1.697056 
C -1.246992 2.147121 -0.636487 2.4 0 2.4 
z
" id="mfe577aaacf" style="stroke:#55a868;stroke-width:0.8;"/>
     </defs>
     <g>
      <use style="fill:#55a868;stroke:#55a868;stroke-width:0.8;" x="297.588016" xlink:href="#mfe577aaacf" y="61.823844"/>
     </g>
    </g>
    <g id="text_15">
     <!-- E:2N -->
     <g style="fill:#262626;" transform="translate(313.788016 64.186344)scale(0.09 -0.09)">
      <use xlink:href="#DejaVuSans-45"/>
      <use x="63.183594" xlink:href="#DejaVuSans-3a"/>
      <use x="96.875" xlink:href="#DejaVuSans-32"/>
      <use x="160.498047" xlink:href="#DejaVuSans-4e"/>
     </g>
    </g>
    <g id="PathCollection_10">
     <defs>
      <path d="M 0 2.4 
C 0.636487 2.4 1.246992 2.147121 1.697056 1.697056 
C 2.147121 1.246992 2.4 0.636487 2.4 0 
C 2.4 -0.636487 2.147121 -1.246992 1.697056 -1.697056 
C 1.246992 -2.147121 0.636487 -2.4 0 -2.4 
C -0.636487 -2.4 -1.246992 -2.147121 -1.697056 -1.697056 
C -2.147121 -1.246992 -2.4 -0.636487 -2.4 0 
C -2.4 0.636487 -2.147121 1.246992 -1.697056 1.697056 
C -1.246992 2.147121 -0.636487 2.4 0 2.4 
z
" id="m1da140aa67" style="stroke:#c44e52;stroke-width:0.8;"/>
     </defs>
     <g>
      <use style="fill:#c44e52;stroke:#c44e52;stroke-width:0.8;" x="297.588016" xlink:href="#m1da140aa67" y="75.034156"/>
     </g>
    </g>
    <g id="text_16">
     <!-- E:4N -->
     <g style="fill:#262626;" transform="translate(313.788016 77.396656)scale(0.09 -0.09)">
      <defs>
       <path d="M 2419 4116 
L 825 1625 
L 2419 1625 
L 2419 4116 
z
M 2253 4666 
L 3047 4666 
L 3047 1625 
L 3713 1625 
L 3713 1100 
L 3047 1100 
L 3047 0 
L 2419 0 
L 2419 1100 
L 313 1100 
L 313 1709 
L 2253 4666 
z
" id="DejaVuSans-34" transform="scale(0.015625)"/>
      </defs>
      <use xlink:href="#DejaVuSans-45"/>
      <use x="63.183594" xlink:href="#DejaVuSans-3a"/>
      <use x="96.875" xlink:href="#DejaVuSans-34"/>
      <use x="160.498047" xlink:href="#DejaVuSans-4e"/>
     </g>
    </g>
    <g id="PathCollection_11">
     <defs>
      <path d="M 0 2.4 
C 0.636487 2.4 1.246992 2.147121 1.697056 1.697056 
C 2.147121 1.246992 2.4 0.636487 2.4 0 
C 2.4 -0.636487 2.147121 -1.246992 1.697056 -1.697056 
C 1.246992 -2.147121 0.636487 -2.4 0 -2.4 
C -0.636487 -2.4 -1.246992 -2.147121 -1.697056 -1.697056 
C -2.147121 -1.246992 -2.4 -0.636487 -2.4 0 
C -2.4 0.636487 -2.147121 1.246992 -1.697056 1.697056 
C -1.246992 2.147121 -0.636487 2.4 0 2.4 
z
" id="mee530cfa2e" style="stroke:#8172b3;stroke-width:0.8;"/>
     </defs>
     <g>
      <use style="fill:#8172b3;stroke:#8172b3;stroke-width:0.8;" x="297.588016" xlink:href="#mee530cfa2e" y="88.244469"/>
     </g>
    </g>
    <g id="text_17">
     <!-- E:6N -->
     <g style="fill:#262626;" transform="translate(313.788016 90.606969)scale(0.09 -0.09)">
      <defs>
       <path d="M 2113 2584 
Q 1688 2584 1439 2293 
Q 1191 2003 1191 1497 
Q 1191 994 1439 701 
Q 1688 409 2113 409 
Q 2538 409 2786 701 
Q 3034 994 3034 1497 
Q 3034 2003 2786 2293 
Q 2538 2584 2113 2584 
z
M 3366 4563 
L 3366 3988 
Q 3128 4100 2886 4159 
Q 2644 4219 2406 4219 
Q 1781 4219 1451 3797 
Q 1122 3375 1075 2522 
Q 1259 2794 1537 2939 
Q 1816 3084 2150 3084 
Q 2853 3084 3261 2657 
Q 3669 2231 3669 1497 
Q 3669 778 3244 343 
Q 2819 -91 2113 -91 
Q 1303 -91 875 529 
Q 447 1150 447 2328 
Q 447 3434 972 4092 
Q 1497 4750 2381 4750 
Q 2619 4750 2861 4703 
Q 3103 4656 3366 4563 
z
" id="DejaVuSans-36" transform="scale(0.015625)"/>
      </defs>
      <use xlink:href="#DejaVuSans-45"/>
      <use x="63.183594" xlink:href="#DejaVuSans-3a"/>
      <use x="96.875" xlink:href="#DejaVuSans-36"/>
      <use x="160.498047" xlink:href="#DejaVuSans-4e"/>
     </g>
    </g>
   </g>
  </g>
 </g>
 <defs>
  <clipPath id="p1fc04c30a1">
   <rect height="187.671" width="195.015" x="72.33" y="13.149"/>
  </clipPath>
 </defs>
</svg>
